<svg fill="none" height="18" viewBox="0 0 18 18" width="18" xmlns="http://www.w3.org/2000/svg" xmlns:xlink="http://www.w3.org/1999/xlink"><mask id="a" height="18" maskUnits="userSpaceOnUse" width="18" x="0" y="0"><path clip-rule="evenodd" d="m.75 9c0 4.575 3.675 8.25 8.25 8.25s8.25-3.675 8.25-8.25-3.675-8.25-8.25-8.25-8.25 3.675-8.25 8.25zm1.5 0c0-3.75 3-6.75 6.75-6.75s6.75 3 6.75 6.75-3 6.75-6.75 6.75-6.75-3-6.75-6.75zm7.5 0v-3c0-.45-.3-.75-.75-.75s-.75.3-.75.75v3c0 .45.3.75.75.75s.75-.3.75-.75zm-.075 3.3c0 .075-.075.15-.15.225-.15.15-.3.225-.6.225-.225 0-.375-.075-.525-.225s-.225-.3-.225-.525c0-.0879.02574-.15.04706-.2015.01507-.0364.02794-.0674.02794-.0985 0-.075.075-.15.15-.225.225-.225.525-.3.825-.15.0375 0 .05625.0188.075.0375.01875.0188.0375.0375.075.0375.075 0 .15.075.15.075.0375.0375.05625.075.075.1125s.0375.075.075.1125c.075.075.075.225.075.3 0 .0375-.01875.0938-.0375.15-.01875.0563-.0375.1125-.0375.15z" fill="#fff" fill-rule="evenodd"/></mask><path clip-rule="evenodd" d="m.75 9c0 4.575 3.675 8.25 8.25 8.25s8.25-3.675 8.25-8.25-3.675-8.25-8.25-8.25-8.25 3.675-8.25 8.25zm1.5 0c0-3.75 3-6.75 6.75-6.75s6.75 3 6.75 6.75-3 6.75-6.75 6.75-6.75-3-6.75-6.75zm7.5 0v-3c0-.45-.3-.75-.75-.75s-.75.3-.75.75v3c0 .45.3.75.75.75s.75-.3.75-.75zm-.075 3.3c0 .075-.075.15-.15.225-.15.15-.3.225-.6.225-.225 0-.375-.075-.525-.225s-.225-.3-.225-.525c0-.0879.02574-.15.04706-.2015.01507-.0364.02794-.0674.02794-.0985 0-.075.075-.15.15-.225.225-.225.525-.3.825-.15.0375 0 .05625.0188.075.0375.01875.0188.0375.0375.075.0375.075 0 .15.075.15.075.0375.0375.05625.075.075.1125s.0375.075.075.1125c.075.075.075.225.075.3 0 .0375-.01875.0938-.0375.15-.01875.0563-.0375.1125-.0375.15z" fill="#007bff" fill-rule="evenodd"/></svg>
