<svg fill="currentColor" height="18" viewBox="0 0 18 18" width="18" xmlns="http://www.w3.org/2000/svg" xmlns:xlink="http://www.w3.org/1999/xlink"><path clip-rule="evenodd" d="m13.5 2.25h-.75c0-.825-.675-1.5-1.5-1.5h-4.5c-.825 0-1.5.675-1.5 1.5h-.75c-1.275 0-2.25.975-2.25 2.25v10.5c0 1.275.975 2.25 2.25 2.25h9c1.275 0 2.25-.975 2.25-2.25v-10.5c0-1.275-.975-2.25-2.25-2.25zm-6.75 0h4.5v1.5h-4.5v-.75zm6.75 13.5c.45 0 .75-.3.75-.75v-10.5c0-.45-.3-.75-.75-.75h-.75c0 .825-.675 1.5-1.5 1.5h-4.5c-.825 0-1.5-.675-1.5-1.5h-.75c-.45 0-.75.3-.75.75v10.5c0 .45.3.75.75.75z" fill-rule="evenodd"/></svg>
