<svg fill="currentColor" height="18" viewBox="0 0 18 18" width="18" xmlns="http://www.w3.org/2000/svg" xmlns:xlink="http://www.w3.org/1999/xlink"><path clip-rule="evenodd" d="m15.225 11.55c.075-.15.225-.3.525-.3 1.275 0 2.25-.975 2.25-2.25s-.975-2.25-2.25-2.25h-.15c-.15 0-.3-.075-.375-.225 0-.075 0-.075-.075-.15-.075-.15-.075-.375.15-.6.9-.9.9-2.325 0-3.15-.45-.45-.975-.675-1.575-.675s-1.2.225-1.65.675c-.15.15-.375.15-.525.075-.15 0-.3-.225-.3-.45 0-1.275-.975-2.25-2.25-2.25s-2.25.975-2.25 2.25v.15c0 .15-.075.3-.225.375-.075 0-.075 0-.15.075-.15.075-.375 0-.6-.15-.9-.9-2.325-.9-3.15 0-.9.9-.9 2.325.075 3.225.15.15.15.375.075.6-.075.15-.3.3-.525.3-1.275 0-2.25.975-2.25 2.25s.975 2.25 2.25 2.25h.15c.225 0 .375.15.45.3s.075.375-.15.6c-.45.45-.675.975-.675 1.575s.225 1.125.675 1.575c.9.9 2.325.9 3.225-.075.15-.15.375-.15.6-.075s.3.225.3.525c0 1.275.975 2.25 2.25 2.25s2.25-.975 2.25-2.25v-.15c0-.225.15-.375.3-.45s.375-.075.6.15c.9.9 2.325.9 3.15 0 .9-.9.9-2.325-.075-3.225-.075-.15-.15-.375-.075-.525zm-9.225-2.55c0-1.65 1.35-3 3-3s3 1.35 3 3-1.35 3-3 3-3-1.35-3-3zm1.5 0c0 .825.675 1.5 1.5 1.5s1.5-.675 1.5-1.5-.675-1.5-1.5-1.5-1.5.675-1.5 1.5zm6.825 4.2c-.6-.675-.75-1.5-.45-2.25s1.05-1.2 1.8-1.2c.525 0 .825-.3.825-.75s-.3-.75-.75-.75h-.15c-.75 0-1.5-.45-1.8-1.2-.075-.075-.075-.15-.075-.225-.225-.675-.075-1.5.45-2.025.375-.375.375-.825.075-1.125-.15-.15-.3-.225-.525-.225s-.375.075-.525.225c-.675.6-1.5.75-2.25.45s-1.2-.975-1.2-1.8c0-.525-.3-.825-.75-.825s-.75.3-.75.75v.15c0 .75-.45 1.5-1.2 1.8-.075.075-.15.075-.225.075-.675.225-1.5.075-2.025-.45-.375-.375-.825-.375-1.125-.075s-.3.75 0 1.05c.6.675.75 1.5.45 2.25s-.975 1.275-1.8 1.275h-.075c-.45 0-.75.3-.75.75s.3.75.75.75h.15c.75 0 1.5.45 1.8 1.2.375.75.225 1.575-.375 2.175-.225.225-.3.375-.3.6s.075.375.225.525c.3.3.75.3 1.05 0 .375-.375.9-.6 1.425-.6.3 0 .6 0 .825.15.75.3 1.275.975 1.275 1.8v.075c0 .45.3.75.75.75s.75-.3.75-.75v-.15c0-.75.45-1.5 1.2-1.8.75-.375 1.575-.225 2.175.375.225.225.375.3.6.3s.375-.075.525-.225.225-.3.225-.525-.075-.375-.225-.525z" fill-rule="evenodd"/></svg>
