<svg height="23" viewBox="0 0 18 23" width="18" xmlns="http://www.w3.org/2000/svg"><path clip-rule="evenodd" d="m3.81923 15.1972c.45833 0 .76389-.3985.76389-.9964s-.30556-.9964-.76389-.9964h-.76389c-.45833 0-.76389-.3986-.76389-.9965v-8.96782c0-.59786.30556-.99643.76389-.99643h6.875c.45836 0 .76386.39857.76386.99643v.99643c0 .59786.3056.99643.7639.99643.4584 0 .7639-.39857.7639-.99643v-.99643c0-1.69393-.993-2.989287-2.29166-2.989287h-6.875c-1.29861 0-2.291668 1.295357-2.291668 2.989287v8.96782c0 1.694.993058 2.9893 2.291668 2.9893zm11.45837-7.9714h-6.87504c-1.29861 0-2.29166 1.29535-2.29166 2.9893v8.9678c0 1.694.99305 2.9893 2.29166 2.9893h6.87504c1.2986 0 2.2916-1.2953 2.2916-2.9893v-8.9678c0-1.69395-.993-2.9893-2.2916-2.9893zm.7639 11.9572c0 .5978-.3056.9964-.7639.9964h-6.87504c-.45833 0-.76389-.3986-.76389-.9964v-8.9679c0-.59787.30556-.99644.76389-.99644h6.87504c.4583 0 .7639.39857.7639.99644z" fill-rule="evenodd"/></svg>
