<svg fill="currentColor" height="23" viewBox="0 0 18 23" width="18" xmlns="http://www.w3.org/2000/svg"><path clip-rule="evenodd" d="m16.5001 4.08649h-3.3334v-.99643c0-1.69393-1.0833-2.989291-2.5-2.989291h-3.33328c-1.41667 0-2.5 1.295361-2.5 2.989291v.99643h-3.33334c-.5 0-.833332.39857-.833332.99643 0 .59785.333332.99643.833332.99643h.83333v12.95355c0 1.694 1.08334 2.9893 2.50001 2.9893h8.33328c1.4167 0 2.5-1.2953 2.5-2.9893v-12.95355h.8334c.5 0 .8333-.39858.8333-.99643 0-.59786-.3333-.99643-.8333-.99643zm-10.00002-.99643c0-.59786.33333-.99643.83333-.99643h3.33329c.5 0 .8334.39857.8334.99643v.99643h-5.00002zm6.66662 16.93934c.5 0 .8334-.3986.8334-.9965v-12.95355h-10.00002v12.95355c0 .5979.33333.9965.83333.9965z" fill-rule="evenodd"/></svg>
