<svg width="24" height="24" fill="none" xmlns="http://www.w3.org/2000/svg"><path d="M20.7 7.7l-11 11c-.2.2-.4.3-.7.3-.3 0-.5-.1-.7-.3l-5-5c-.4-.4-.4-1 0-1.4.4-.4 1-.4 1.4 0L9 16.6 19.3 6.3c.4-.4 1-.4 1.4 0 .4.4.4 1 0 1.4z" fill="#28A745"/><mask id="a" maskUnits="userSpaceOnUse" x="3" y="6" width="18" height="13"><path d="M20.7 7.7l-11 11c-.2.2-.4.3-.7.3-.3 0-.5-.1-.7-.3l-5-5c-.4-.4-.4-1 0-1.4.4-.4 1-.4 1.4 0L9 16.6 19.3 6.3c.4-.4 1-.4 1.4 0 .4.4.4 1 0 1.4z" fill="#fff"/></mask><g mask="url(#a)"><path fill-rule="evenodd" clip-rule="evenodd" d="M0 0h24v24H0V0z" fill="#28A745"/></g></svg>