<?xml version="1.0" ?><svg enable-background="new 0 0 500 500" id="Layer_1" version="1.1" viewBox="0 0 500 500" xml:space="preserve" xmlns="http://www.w3.org/2000/svg" xmlns:xlink="http://www.w3.org/1999/xlink"><g><g><path d="    M440.595,424.135H56.485c-14.047,0-25.434-11.387-25.434-25.434V97.085c0-14.047,11.387-25.434,25.434-25.434h384.11    c14.047,0,25.434,11.387,25.434,25.434V398.7C466.029,412.747,454.642,424.135,440.595,424.135z" fill="none" stroke="#474747" stroke-linecap="round" stroke-linejoin="round" stroke-miterlimit="10" stroke-width="15"/><line fill="none" stroke="#474747" stroke-linecap="round" stroke-linejoin="round" stroke-miterlimit="10" stroke-width="15" x1="31" x2="466" y1="127.5" y2="127.5"/><circle cx="71.551" cy="100.374" fill="#474747" r="8.985"/><circle cx="101.567" cy="100.374" fill="#474747" r="8.985"/><circle cx="131.583" cy="100.374" fill="#474747" r="8.985"/></g><line fill="none" stroke="#474747" stroke-linecap="round" stroke-linejoin="round" stroke-miterlimit="10" stroke-width="15" x1="299" x2="202" y1="172" y2="367"/><g><path d="    M157.629,325.161l-5.598-14.715h-47.664l-5.598,15.035c-2.187,5.866-4.052,9.824-5.598,11.876    c-1.547,2.052-4.079,3.079-7.597,3.079c-2.987,0-5.626-1.093-7.917-3.279c-2.293-2.185-3.439-4.665-3.439-7.437    c0-1.599,0.266-3.251,0.8-4.958c0.532-1.706,1.412-4.079,2.639-7.118l29.99-76.134c0.852-2.186,1.879-4.811,3.079-7.877    c1.2-3.065,2.479-5.61,3.839-7.637c1.36-2.026,3.145-3.665,5.358-4.919c2.212-1.252,4.945-1.879,8.197-1.879    c3.305,0,6.064,0.627,8.277,1.879c2.212,1.253,3.999,2.867,5.358,4.838c1.36,1.973,2.506,4.092,3.439,6.358    c0.932,2.267,2.119,5.292,3.559,9.077l30.629,75.654c2.399,5.758,3.599,9.944,3.599,12.556c0,2.719-1.134,5.212-3.399,7.478    c-2.267,2.265-4.998,3.399-8.197,3.399c-1.867,0-3.466-0.334-4.799-1c-1.333-0.667-2.453-1.572-3.359-2.719    c-0.907-1.146-1.879-2.905-2.919-5.278C159.268,329.067,158.375,326.974,157.629,325.161z M110.605,292.612h35.028l-17.674-48.384    L110.605,292.612z" fill="none" stroke="#474747" stroke-linecap="round" stroke-linejoin="round" stroke-miterlimit="10" stroke-width="10"/></g><g><path d="    M364.818,338.436H328.99c-5.172,0-8.865-1.16-11.076-3.479c-2.213-2.319-3.319-6.01-3.319-11.076v-88.13    c0-5.171,1.132-8.889,3.399-11.156c2.266-2.265,5.931-3.399,10.996-3.399h37.987c5.598,0,10.449,0.347,14.555,1.04    c4.105,0.694,7.784,2.027,11.036,3.999c2.772,1.653,5.225,3.746,7.358,6.278c2.132,2.533,3.759,5.332,4.878,8.397    c1.12,3.067,1.679,6.306,1.679,9.717c0,11.73-5.866,20.313-17.594,25.751c15.407,4.906,23.112,14.449,23.112,28.63    c0,6.558-1.679,12.463-5.038,17.714c-3.359,5.252-7.891,9.131-13.595,11.636c-3.573,1.493-7.677,2.547-12.316,3.159    C376.414,338.13,371.002,338.436,364.818,338.436z M338.347,239.03v30.31H360.1c5.918,0,10.489-0.56,13.715-1.679    c3.225-1.12,5.691-3.252,7.397-6.398c1.332-2.239,1.999-4.745,1.999-7.518c0-5.918-2.107-9.849-6.318-11.796    c-4.212-1.946-10.636-2.919-19.274-2.919H338.347z M363.059,286.374h-24.712v34.228h25.511c16.047,0,24.072-5.784,24.072-17.354    c0-5.918-2.079-10.209-6.238-12.876C377.534,287.707,371.322,286.374,363.059,286.374z" fill="none" stroke="#474747" stroke-linecap="round" stroke-linejoin="round" stroke-miterlimit="10" stroke-width="10"/></g></g></svg>