<?xml version="1.0" ?><svg enable-background="new 0 0 64 64" height="64px" id="Layer_1" version="1.1" viewBox="0 0 64 64" width="64px" xml:space="preserve" xmlns="http://www.w3.org/2000/svg" xmlns:xlink="http://www.w3.org/1999/xlink"><g><circle cx="9" cy="20" fill="#333333" r="1"/><circle cx="13" cy="20" fill="#333333" r="1"/><circle cx="17" cy="20" fill="#333333" r="1"/><line fill="none" stroke="#333333" stroke-miterlimit="10" stroke-width="2" x1="5" x2="41" y1="24" y2="24"/><path d="M34.544,60.629C35.345,61.383,35.1,62,34,62H4   c-1.1,0-2-0.9-2-2V32c0-1.1,0.655-1.383,1.456-0.629L34.544,60.629z" fill="none" stroke="#333333" stroke-miterlimit="10" stroke-width="2"/><polygon fill="none" points="9,55 9,46.2 18.35,55  " stroke="#333333" stroke-miterlimit="10" stroke-width="2"/><line fill="none" stroke="#333333" stroke-miterlimit="10" stroke-width="2" x1="2" x2="5" y1="38" y2="38"/><line fill="none" stroke="#333333" stroke-miterlimit="10" stroke-width="2" x1="2" x2="5" y1="42" y2="42"/><line fill="none" stroke="#333333" stroke-miterlimit="10" stroke-width="2" x1="2" x2="5" y1="46" y2="46"/><line fill="none" stroke="#333333" stroke-miterlimit="10" stroke-width="2" x1="2" x2="5" y1="50" y2="50"/><line fill="none" stroke="#333333" stroke-miterlimit="10" stroke-width="2" x1="2" x2="5" y1="54" y2="54"/><line fill="none" stroke="#333333" stroke-miterlimit="10" stroke-width="2" x1="2" x2="5" y1="58" y2="58"/><polygon fill="none" points="16.875,44 33,44 33,28 9,28 9,36.588  " stroke="#333333" stroke-miterlimit="10" stroke-width="2"/><path d="M51.5,30h-9c-0.828,0-1.5-0.672-1.5-1.5v0   c0-0.828,0.672-1.5,1.5-1.5h9c0.828,0,1.5,0.672,1.5,1.5v0C53,29.328,52.328,30,51.5,30z" fill="none" stroke="#333333" stroke-miterlimit="10" stroke-width="2"/><path d="M51.5,33h-9c-0.828,0-1.5-0.672-1.5-1.5v0   c0-0.828,0.672-1.5,1.5-1.5h9c0.828,0,1.5,0.672,1.5,1.5v0C53,32.328,52.328,33,51.5,33z" fill="none" stroke="#333333" stroke-miterlimit="10" stroke-width="2"/><path d="M58,15c0-6.075-4.925-11-11-11S36,8.925,36,15   c0,4.273,2.441,7.968,6,9.79V27h10v-2.21C55.559,22.968,58,19.273,58,15z" fill="none" stroke="#333333" stroke-miterlimit="10" stroke-width="2"/><line fill="none" stroke="#333333" stroke-miterlimit="10" stroke-width="2" x1="35" x2="59" y1="4" y2="4"/><rect fill="none" height="4" stroke="#333333" stroke-miterlimit="10" stroke-width="2" width="4" x="32" y="2"/><rect fill="none" height="4" stroke="#333333" stroke-miterlimit="10" stroke-width="2" width="4" x="58" y="2"/><line fill="none" stroke="#333333" stroke-miterlimit="10" stroke-width="2" x1="36" x2="59" y1="38" y2="38"/><line fill="none" stroke="#333333" stroke-miterlimit="10" stroke-width="2" x1="36" x2="59" y1="42" y2="42"/><line fill="none" stroke="#333333" stroke-miterlimit="10" stroke-width="2" x1="36" x2="59" y1="46" y2="46"/><line fill="none" stroke="#333333" stroke-miterlimit="10" stroke-width="2" x1="36" x2="59" y1="50" y2="50"/><path d="M32,58h28c1.105,0,2-0.895,2-2V18   c0-1.105-0.895-2-2-2h-2.05c-0.348,3.844-2.672,7.112-5.95,8.79V27H42v-2.21c-3.278-1.678-5.602-4.946-5.95-8.79H7   c-1.105,0-2,0.895-2,2v15" fill="none" stroke="#333333" stroke-miterlimit="10" stroke-width="2"/><line fill="none" stroke="#333333" stroke-miterlimit="10" stroke-width="2" x1="53" x2="62" y1="24" y2="24"/><line fill="none" stroke="#333333" stroke-miterlimit="10" stroke-width="2" x1="47" x2="47" y1="27" y2="18"/><circle cx="47" cy="15" fill="none" r="3" stroke="#333333" stroke-miterlimit="10" stroke-width="2"/></g></svg>