<svg fill="currentColor" height="18" viewBox="0 0 18 18" width="18" xmlns="http://www.w3.org/2000/svg" xmlns:xlink="http://www.w3.org/1999/xlink"><path clip-rule="evenodd" d="m8.7 9.66638-7.5-3.75426c-.3-.15017-.45-.37543-.45-.67577s.15-.5256.375-.67577l7.5-3.754266c.225-.075085.45-.075085.675 0l7.5 3.754266c.3.15017.45.37543.45.67577s-.15.5256-.45.67577l-7.5 3.75426c-.075.07509-.15.07509-.3.07509s-.225 0-.3-.07509zm6.15-4.43003-5.85-2.92833-5.85 2.92833 5.85 2.92833zm2.325 7.20815c.15.3755 0 .826-.3.9761l-7.5 3.7543c-.15.0751-.225.0751-.375.0751s-.225 0-.3-.0751l-7.5-3.7543c-.375-.1501-.525-.6006-.3-.9761.15-.3754.6-.5256.975-.3003l7.2 3.6041 7.2-3.6041c.225-.2253.675-.0751.9.3003zm-.3-2.77812c.3-.15017.45-.60068.3-.97611-.225-.37542-.675-.52559-.9-.30034l-7.2 3.60407-7.2-3.60407c-.375-.22525-.825-.07508-.975.30034-.225.37543-.075.82594.3.97611l7.5 3.75422c.075.0751.15.0751.3.0751s.225 0 .375-.0751z" fill-rule="evenodd"/></svg>
