<svg fill="currentColor" height="18" viewBox="0 0 18 18" width="18" xmlns="http://www.w3.org/2000/svg" xmlns:xlink="http://www.w3.org/1999/xlink"><path clip-rule="evenodd" d="m5.25 5.25c0-2.1 1.65-3.75 3.75-3.75s3.75 1.65 3.75 3.75-1.65 3.75-3.75 3.75-3.75-1.65-3.75-3.75zm10.5 9v1.5c0 .45-.3.75-.75.75s-.75-.3-.75-.75v-1.5c0-1.275-.975-2.25-2.25-2.25h-6c-1.275 0-2.25.975-2.25 2.25v1.5c0 .45-.3.75-.75.75s-.75-.3-.75-.75v-1.5c0-2.1 1.65-3.75 3.75-3.75h6c2.1 0 3.75 1.65 3.75 3.75zm-6.75-6.75c-1.275 0-2.25-.975-2.25-2.25s.975-2.25 2.25-2.25 2.25.975 2.25 2.25-.975 2.25-2.25 2.25z" fill-rule="evenodd"/></svg>
