<svg width="326" height="267" viewBox="0 0 326 267" fill="none" xmlns="http://www.w3.org/2000/svg">
<path d="M279.04 202.059H278.538L278.031 202.065C278.042 200.658 278.053 199.251 278.059 197.844C278.388 197.844 278.711 197.844 279.04 197.855V202.059Z" fill="#FEF4E5"/>
<path d="M273.954 206.576C253.873 208.251 223.123 207.335 201.08 207.207C188.848 207.14 171.841 206.459 159.609 206.576C158.192 206.587 154.031 224.443 140.845 222.936C130.269 221.724 119.555 222.187 108.912 221.651C104.444 221.428 101.209 219.094 99.045 214.962C92.9763 203.377 86.6511 191.919 80.4988 180.379C76.8342 173.5 71.6524 166.9 70.1241 159.552C68.3113 150.842 68.685 148.508 56.6314 142.361C44.6447 136.247 40.6622 123.522 39.5912 110.826C37.6055 87.2635 44.126 66.2922 60.7646 48.9109C70.2914 38.9556 77.18 27.2639 82.6741 14.69C86.1993 6.61637 89.3898 6.11386 97.6951 8.92792C113.486 14.2824 123.994 27.9284 126.7 44.6619C127.748 51.1443 124.831 63.1878 125.026 69.7874C125.026 69.7874 129.701 65.5105 133.951 63.0873C133.951 63.0873 135.925 62.7355 135.624 65.879C135.262 69.6534 129.901 82.3222 130.046 84.3043C132.785 83.7683 139.757 86.5265 141.202 84.8627C148.191 76.8114 170.703 47.5876 174.864 43.9193C178.718 40.519 179.728 40.8763 180.804 45.7786C183.777 59.2682 187.051 79.1285 189.729 92.6795C190.588 97.0346 194.855 99.9659 199.211 102.73C203.869 105.689 207.583 109.893 211.482 113.897C211.482 113.897 241.759 111.289 255.547 110.546C261.476 110.228 266.055 111.11 263.914 116.688C260.282 126.13 253.901 137.777 249.411 146.839C246.617 152.478 243.331 155.024 241.045 160.797C241.045 160.797 239.884 170.401 239.929 175.314C239.929 175.638 262.134 178.96 268.934 184.248C274.115 188.279 277.3 198.765 273.954 206.582V206.576Z" fill="#FEA619"/>
<path d="M100.484 217.185C115.678 216.113 128.289 210.752 141.135 203.399C161.829 191.551 180.804 182.009 207.979 161.546C224.311 146.024 240.9 131.099 257.226 115.566C258.916 113.958 260.561 111.987 262.402 110.541C262.251 113.003 262.809 115.795 261.828 117.872C256.116 129.966 250.365 142.065 243.962 153.801C240.955 159.312 238.395 167.994 239.377 174.756C239.862 178.1 259.758 178.609 266.708 183.131C272.503 186.906 276.625 192.389 276.19 199.881C275.783 206.866 273.217 207.112 266.005 207.252C257.432 207.419 248.848 207.285 240.269 207.235C214.215 207.073 188.162 206.95 162.108 206.632C159.218 206.598 158.159 207.626 157.283 210.116C154.377 218.363 147.979 222.271 139.624 222.338C128.63 222.422 117.625 221.891 106.642 221.305C104.076 221.166 100.4 217.614 100.49 217.196L100.484 217.185Z" fill="#FE7D04"/>
<path d="M42.4749 82.6237C48.2368 95.9067 59.4482 103.154 73.2086 104.689C74.8038 104.868 77.2413 104.907 77.615 105.516C77.615 105.516 75.9696 108.391 75.2668 109.72C68.8635 121.836 67.034 147.403 66.4595 147.392C48.644 140.608 40.506 127.001 38.5705 108.866C37.5888 96.9843 42.1905 81.9705 42.4749 82.6237Z" fill="#FE7E05"/>
<path d="M67.3186 148.285C67.8931 148.296 68.4732 148.307 69.0477 148.313C71.6302 151.333 74.1737 154.388 76.8064 157.364C86.7795 168.648 98.8499 175.259 114.395 174.46C117.853 174.281 121.412 174.594 124.798 175.298C126.231 175.594 128.038 177.28 128.462 178.692C130.309 184.862 129.511 185.683 122.89 186.062C117.491 186.37 112.103 186.995 106.698 187.123C100.886 187.269 95.6649 188.251 92.1677 193.561C90.2489 196.47 88.8935 195.37 87.4488 192.835C82.9754 185.013 77.8997 177.503 73.8557 169.474C71.3234 164.443 70.2023 158.698 68.5066 153.26C67.9991 151.635 67.7034 149.949 67.313 148.291L67.3186 148.285Z" fill="#FE8008"/>
<path d="M234.111 207.201C233.754 207.201 233.403 207.19 233.046 207.185C233.051 205.437 233.063 203.689 233.068 201.942C233.414 201.947 233.765 201.953 234.111 201.947V207.201Z" fill="#FEF6E9"/>
<path d="M234.351 207.134C212.693 207.134 188.056 207.19 166.397 207.179C158.984 207.179 159.112 207.106 156.435 200.194C155.124 196.811 153.088 194.231 149.569 192.137C141.224 187.174 132.183 186.688 123.035 186.224C117.982 185.968 109.994 186.252 104.941 186.476C101.605 186.621 102.799 185.404 103.362 181.847C104.662 173.639 105.677 165.37 107.417 157.258C108.538 152.031 109.057 147.062 107.746 141.819C105.56 133.07 103.647 124.254 101.7 115.449C101.365 113.936 101.265 111.434 101.6 109.983C101.789 109.145 113.687 112.825 118.333 115.008C136.182 123.383 143.991 139.016 147.895 159.675C147.895 159.675 151.125 158.737 157.378 159.675C168.533 161.35 183.036 171.4 181.92 182.567C181.92 182.567 193.366 179.848 199.769 180.334C212.246 181.277 224.11 188.268 229.889 198.759C230.307 199.524 234.357 205.387 234.351 207.134Z" fill="#FEEDD3"/>
<path d="M126.142 59.1733C122.511 52.3503 119.655 47.2526 113.659 42.1773C109.966 51.9148 105.504 58.0566 98.253 65.3151C96.5797 59.1733 95.1573 54.7791 93.233 50.2398C90.8457 44.6117 87.6552 39.6312 87.6552 39.6312C87.6552 39.6312 82.981 42.5402 78.463 44.4553C73.6605 46.4933 59.9224 51.8143 58.6506 51.9148C59.108 50.7088 71.1337 34.9076 75.2557 28.308C78.3681 23.322 80.8782 17.8502 82.8639 12.3115C84.3866 8.0569 86.0655 8.95025 89.8863 8.36399C97.0259 7.27522 116.102 15.0641 121.122 27.906C124.92 37.6268 127.843 46.6608 126.142 59.1733Z" fill="#FEEDD4"/>
<path d="M233.788 201.154C234.139 201.154 234.491 201.155 234.842 201.149V206.286C234.491 206.342 234.134 206.397 233.782 206.459L233.793 206.157C233.793 204.493 233.793 202.824 233.793 201.16L233.788 201.154Z" fill="#FEC7C4"/>
<path d="M233.782 206.453C234.134 206.397 234.491 206.342 234.842 206.28V207.307C234.491 207.023 234.134 206.738 233.782 206.453Z" fill="#FEF2F2"/>
<path d="M232.678 206.576C232.678 208.24 188.072 207.307 165.772 207.24C160.334 207.224 158.041 206.827 156.82 201.551C158.85 201.428 162.81 201.551 164.696 201.06C173.603 198.731 179.979 191.344 182.478 182.567C183.052 180.557 198.246 179.173 206.462 180.892C217.144 183.126 233.236 195.968 232.678 206.576Z" fill="#FE9A94"/>
<path d="M113.313 185.867C112.616 185.867 103.97 186.487 103.273 186.476C103.273 186.476 102.91 174.12 105.504 174.192C106.023 174.209 107.735 174.75 110.524 174.192C114.183 173.461 116.766 172.891 118.333 173.634C118.333 173.634 119.376 177.073 121.122 181.451C122.237 184.242 123.911 186.476 123.911 186.476C121.702 186.794 115.572 185.789 113.313 185.789C113.313 185.817 113.313 185.845 113.313 185.873V185.867Z" fill="#FE9A94"/>
<path d="M54.774 141.641C47.2049 143.299 41.3036 144.578 35.4079 145.89C34.2254 146.152 29.0938 146.275 27.4205 149.625C26.4444 151.585 27.2866 153.014 29.0938 154.092C31.0014 155.231 36.3059 157.565 38.4366 158.335C44.1037 160.384 47.6735 163.611 47.5006 168.05C47.3109 172.735 42.3076 179.273 37.4717 180.535C32.0947 181.936 27.7886 182.305 22.4005 183.684C21.0618 184.025 18.5406 185.191 17.3805 185.917C11.4513 189.614 11.4234 192.282 16.9956 196.515C17.9661 197.252 18.7916 198.234 19.8458 198.809C22.4116 200.211 25.1224 201.825 27.9783 200.998C28.8094 200.758 29.1663 199.837 30.1369 199.234C39.9203 193.12 50.864 192.383 61.8969 196.18C66.8555 197.888 69.2874 201.696 68.501 206.068C67.7312 210.334 64.6133 213.086 59.3367 212.947C51.8624 212.751 48.8337 212.612 41.3594 212.165C39.7865 212.07 32.4349 210.49 32.4349 210.49C32.4349 210.49 32.9425 216.464 33.5505 217.748C36.2613 223.488 40.4893 225.599 46.24 227.464C61.3893 232.388 77.0238 234.979 92.8871 236.258C110.111 237.648 127.33 239.167 144.571 240.311C145.949 240.4 148.693 241.126 150.132 240.635C151.331 240.222 156.251 236.57 157.383 236.168C165.192 233.377 169.822 232.997 178.021 232.818C178.886 232.801 178.021 249.01 178.021 254.594C178.021 254.594 162.403 257.385 150.132 248.452C149.128 247.72 145.77 247.826 144.404 247.759C135.323 247.307 125.724 246.911 116.665 246.218C91.2751 244.287 70.0795 243.069 45.8272 234.493C37.6279 231.595 28.0229 227.832 25.7472 218.301C25.5464 217.458 24.6316 208.251 24.6316 208.251C20.8889 206.671 13.1692 203.226 10.1293 200.434C4.94755 195.672 3.03436 188.575 8.22171 183.807C13.2362 179.206 19.1319 176.437 25.8866 175.387C28.2851 175.013 30.6779 174.293 32.9537 173.634C46.3906 169.725 36.6796 164.728 34.6772 163.584C31.6652 161.858 28.4747 160.864 25.195 159.675C22.0268 158.531 18.7972 156.197 18.5016 152.417C18.1669 148.179 22.0212 144.466 25.7527 142.925C33.4445 139.753 38.5036 138.011 46.5858 136.113C48.5101 135.661 51.3994 139.251 54.7852 141.646L54.774 141.641ZM53.0059 206.654C53.0059 206.699 58.8179 206.241 59.2139 206.012C60.798 205.108 60.8873 203.22 60.8873 203.22C59.5263 202.12 56.5254 200.792 55.0808 200.68C50.5739 200.323 49.7819 200.071 45.2695 200.429C44.0758 200.524 37.4717 202.321 36.345 203.22C37.4996 204.03 40.1211 204.711 41.365 204.895C45.1412 205.443 49.1962 206.375 53.0059 206.654Z" fill="#94B0ED"/>
<path d="M277.473 194.477C283.843 197.079 289.755 199.491 295.662 201.908C297.101 202.5 298.529 203.125 299.98 203.689C303.555 205.074 307.342 206.113 310.667 207.888C328.053 217.185 321.66 232.098 308.865 239.418C299.187 244.957 288.735 246.029 277.858 246.777C274.193 247.028 261.682 248.452 261.682 248.452C254.732 253.399 248.296 255.152 236.582 255.152L234.351 251.244C232.048 250.4 227.831 251.104 225.984 250.685C224.819 250.417 225.27 246.146 224.869 244.543C224.752 244.069 233.157 245.303 233.793 245.102C233.793 245.102 233.358 243.617 234.669 243.075C233.431 242.455 227.295 240.909 225.984 240.635V236.168C225.984 236.168 233.342 236.531 234.909 235.61C234.909 235.61 235.115 232.014 237.14 231.701C244.391 230.585 258.336 233.377 262.24 240.077C263.339 241.964 286.526 237.916 296.231 235.973C300.521 235.113 304.827 232.824 308.385 230.188C314.504 225.666 313.617 218.402 306.863 214.951C301.441 212.182 295.166 209.558 289.571 207.134C286.526 205.817 279.258 203.36 276.185 202.109C276.185 202.109 276.062 199.842 277.473 194.477Z" fill="#93AFED"/>
<path d="M246.064 154.65C247.186 150.049 250.527 147.392 250.527 147.392C255.285 149 264.097 151.121 268.783 152.863C274.444 154.974 279.922 156.56 285.109 159.675C289.348 162.221 291.78 169.184 289.571 173.634C286.844 179.139 285.109 180.334 278.973 183.684C277.657 184.404 272.28 185.359 272.28 185.359C270.835 184.734 266.29 181.389 265.029 180.334C266.217 179.508 268.906 178.754 270.205 178.19C272.28 177.296 279.531 177.542 281.205 172.517C282.878 167.492 280.29 164.834 277.395 163.6C269.491 160.234 262.24 157.442 254.498 156.498C251.782 156.169 248.792 155.449 246.064 154.65Z" fill="#94B0ED"/>
<path d="M245.172 153.371C246.394 151.144 247.615 148.916 248.34 147.593C259.457 149.061 268.443 153.036 278.343 155.722C276.19 156.325 275.075 160.234 275.075 162.467C275.075 162.467 272.001 161.149 269.586 160.239C262.162 157.436 254.225 156.001 246.5 153.986C246.059 153.785 245.618 153.578 245.172 153.377V153.371Z" fill="#5375D3"/>
<path d="M46.3793 136.225C47.1546 136.007 47.5171 135.856 48.2199 136.387C50.4399 138.067 52.5204 139.932 54.5563 141.646C46.7195 143.305 38.9608 145.22 31.085 146.392C30.7559 144.594 30.1981 142.361 25.3733 143.059C25.6243 142.484 39.8756 138.034 46.3737 136.219L46.3793 136.225Z" fill="#5576D4"/>
<path d="M27.4148 200.993C29.0826 199.172 33.0651 197.436 34.1082 197.084C39.6469 195.214 39.9872 195.476 45.6932 194.292C46.9873 194.024 49.832 196.252 50.2782 197.816C51.2543 201.216 50.3005 199.547 48.6104 199.876C44.7952 200.619 40.8015 200.993 36.8971 203.226C36.8971 203.226 31.877 202.668 27.4148 200.993Z" fill="#5375D3"/>
<path d="M284.814 205.833C275.766 202.227 275.51 200.792 275.627 193.176C280.323 194.639 284.819 197.207 289.689 198.726C286.783 199.876 285.667 200.434 284.814 205.828V205.833Z" fill="#5173D3"/>
<path d="M285.098 247.089C278.672 247.542 267.556 248.681 261.125 249.01C261.125 249.01 260.952 248.614 261.654 245.476C262.24 242.868 264.533 243.354 265.96 243.494C272.375 244.119 278.745 245.18 285.131 246.084C285.165 246.419 285.154 246.754 285.098 247.089Z" fill="#5B7BD5"/>
<path d="M279.531 182.338C273.842 185.956 270.545 185.761 265.118 181.467C270.886 175.929 276.363 176.264 279.531 182.338Z" fill="#5677D4"/>
<path d="M31.877 209.926C31.877 213.801 34.1081 215.761 34.1081 219.418C29.0881 217.743 27.4148 219.418 25.7414 219.976C24.5255 218.396 23.8506 210.747 25.1837 208.809C25.1837 208.809 29.4061 210.094 31.877 209.926Z" fill="#5879D5"/>
<path d="M244.057 153.371C244.497 153.572 244.938 153.779 245.384 153.98C244.687 154.136 243.99 154.293 243.292 154.449C243.549 154.092 243.8 153.729 244.057 153.371Z" fill="#AFBEEA"/>
<path d="M254.95 175.878C254.677 176.029 254.403 176.291 254.13 176.291C253.857 176.291 253.583 176.023 253.31 175.878C253.583 175.728 253.857 175.465 254.13 175.465C254.403 175.465 254.677 175.733 254.95 175.884V175.878Z" fill="#EBEFF9"/>
<path d="M285.098 246.531C285.148 246.196 285.159 245.867 285.132 245.526C285.929 245.593 286.721 245.666 287.519 245.733C287.519 245.945 287.513 246.163 287.508 246.375C286.705 246.425 285.901 246.475 285.098 246.526V246.531Z" fill="#AFBEEA"/>
<path d="M65.316 150.602C60.6865 147.392 56.3804 144.449 52.119 141.445C44.0312 135.745 40.3219 127.286 38.1968 118.123C35.2908 105.577 36.7131 93.2546 40.1713 80.8594C43.2112 69.9661 48.6496 60.6752 55.7166 52.127C58.8123 48.3805 61.8745 44.5949 65.1487 41.0048C72.6118 32.8306 76.4828 22.6297 81.2295 12.9201C82.0662 11.2115 82.808 9.45835 83.4718 7.9899C92.6863 3.66832 100.947 6.52146 108.048 11.3679C116.922 17.4259 123.944 25.4493 126.605 36.4878C128.172 42.9813 129.003 49.4804 128.54 56.147C128.373 58.5479 127.938 62.0822 127.81 64.7567C130.041 63.0817 135.083 60.396 136.734 59.7316C138.408 60.29 137.063 67.8611 136.227 71.4178C135.39 74.9632 134.246 78.4361 133.103 82.4004C135.401 82.5735 137.403 82.7242 139.674 82.8973C143.729 77.5093 147.672 72.0263 151.872 66.7444C157.194 60.0499 162.632 53.4447 168.204 46.9567C171.556 43.0539 173.548 39.6312 178.568 37.9562C181.161 39.0617 182.182 45.1756 182.974 47.811C186.377 59.1733 188.608 70.8985 190.186 82.674C190.554 85.4378 191.954 93.2267 191.954 93.2267C191.954 93.2267 193.444 94.6114 194.899 95.9179C200.734 101.166 206.752 106.203 213.223 111.764C229.867 109.19 249.121 108.564 266.697 109.419C266.697 112.21 266.161 115.639 264.795 119.218C259.479 133.143 251.113 149.162 242.344 161.964C242.11 165.688 241.865 169.658 241.625 173.544C247.866 174.946 253.857 175.951 259.63 177.687C265.325 179.401 270.986 181.914 274.232 187.185C277.529 192.539 279.582 198.402 277.25 204.979C275.984 208.547 273.613 209.909 270.122 209.893C262.251 209.859 254.376 209.876 246.505 209.714C237.954 209.535 229.409 208.988 220.864 208.938C200.778 208.821 180.693 208.899 160.585 208.899C158.616 212.405 156.48 216.168 154.393 219.954C153.094 222.316 151.114 223.377 148.459 223.628C137.811 224.633 127.174 225.169 116.503 223.918C113.558 223.572 110.58 223.499 107.618 223.259C102.944 222.885 101.594 222.757 101.594 222.757C97.2378 214.599 88.5587 200.172 84.024 192.115C80.008 184.979 75.3784 178.173 71.5911 170.926C69.2763 166.504 67.9153 161.562 66.3647 156.777C65.6786 154.65 65.5893 152.327 65.3105 150.591L65.316 150.602ZM148.777 158.776C166.531 156.867 181.362 167.486 183.035 180.887C204.789 176.978 220.719 181.149 232.41 200.077C234.987 186.526 237.268 173.159 237.876 160.217C247.805 145.404 255.993 130.412 261.376 113.495C244.001 112.166 227.608 114.929 211.783 116.297C203.433 109.48 195.613 103.093 187.71 96.6326C183.498 65.2536 180.247 52.462 177.458 44.0868C176.342 44.6452 174.936 46.1192 174.513 46.644C165.705 57.4815 156.887 68.3022 148.163 79.2066C146.317 81.5126 144.108 83.9247 143.394 86.6382C142.412 90.3847 140.086 92.2161 137.024 93.6566C131.982 96.0295 126.873 98.2685 121.83 100.653C116.526 103.16 110.948 105.231 106.14 109.854C132.322 116.119 144.571 134.17 148.771 158.765L148.777 158.776ZM64.6077 143.79C66.32 135.058 67.5695 126.789 69.6333 118.732C71.6357 110.921 75.2613 104.047 82.1443 98.9441C92.1508 91.5293 103.05 86.4651 115.232 84.1368C119.638 83.2937 124.1 82.7633 128.658 82.071C130.091 77.0235 131.446 72.2664 133.125 66.348C129.405 68.9555 126.795 70.7868 123.805 72.8806C122.795 72.5735 122.812 70.5523 122.851 69.7818C123.041 65.6277 123.236 61.4681 123.66 57.3363C125.289 41.5073 120.91 27.9674 108.533 17.5208C102.235 12.2054 95.0178 9.82685 86.8017 11.3567C85.134 15.12 83.4327 18.7157 81.9323 22.3952C77.5203 33.1991 71.1671 42.8473 63.0738 51.0885C54.0377 60.29 47.7181 70.6751 44.2822 83.1374C41.3092 93.9302 40.0598 104.65 42.2853 115.666C44.9571 128.882 52.1469 138.475 64.6021 143.785L64.6077 143.79ZM141.202 186.035C151.08 188.581 159.374 192.59 160.033 203.723C184.051 204.013 207.466 204.292 230.971 204.577C228.188 188.475 204.131 176.224 183.22 183.343C180.81 192.003 174.474 199.524 169.509 199.407C167.981 199.318 174.117 197.084 178.021 190.942C181.061 186.163 182.21 178.637 178.874 174.069C175.243 169.106 170.865 164.907 164.947 162.612C159.637 160.557 153.306 159.647 147.343 161.35C145.67 151.3 143.299 145.37 141.051 140.105C134.157 123.947 121.401 115.119 104.227 111.384C105.482 117.085 106.62 122.305 107.785 127.52C108.962 132.796 110.15 138.073 111.372 143.338C112.627 148.76 114.205 154.12 115.137 159.591C116.018 164.778 118.606 169.625 118.891 175.225C114.646 174.181 113.798 173.489 112.755 169.831C111.467 165.314 110.357 160.742 109.174 156.197L108.471 156.23C106.954 165.56 105.437 174.884 103.881 184.482C115.907 181.947 127.218 185.03 138.759 185.141C138.452 180.881 137.409 176.961 139.239 173.338C139.451 172.919 140.092 173.075 140.092 173.55C140.103 177.442 140.22 181.015 141.208 186.046L141.202 186.035ZM98.7438 107.001C111.695 100.619 124.485 94.321 137.275 88.0229C132.668 87.2691 128.284 86.8113 124.028 87.3529C110.915 89.0335 98.4984 93.0089 87.6161 100.725C83.271 103.807 78.9203 107.213 76.5832 112.266C70.3082 125.828 70.0962 140.289 70.548 154.823C70.5703 155.493 70.9998 156.141 71.0779 156.822C71.7751 162.584 75.3282 167.079 77.9163 171.964C81.6925 179.089 86.0989 188.223 89.8918 194.845C93.2385 190.378 96.5852 187.587 101.572 185.895C103.345 174.784 105.281 162.919 107.088 151.032C107.345 149.351 107.228 147.531 106.876 145.862C105.27 138.184 103.468 130.541 101.839 122.869C100.763 117.805 99.8482 112.707 98.7438 106.995V107.001ZM130.61 219.971C134.213 219.971 138.062 220.172 141.219 220.172C144.281 214.013 142.965 207.179 142.881 200.987C145.112 200.429 145.67 213.829 143.996 219.971C145.653 219.798 147.321 219.513 148.788 219.033C149.251 218.882 149.652 218.586 149.937 218.19C151.147 216.475 152.285 214.99 153.239 213.388C157.523 206.196 155.989 196.057 147.075 192.936C142.853 191.456 138.43 190.328 134.001 189.714C123.492 188.257 112.945 186.961 102.308 188.743C97.1151 189.614 93.4226 192.266 90.9683 197.469C95.2967 204.549 99.6195 211.618 103.82 218.497C112.342 218.971 120.107 219.407 128.54 219.876V201.992C128.379 200.417 129.494 200.976 129.678 201.964C131.19 207.76 130.61 216.051 130.61 219.96V219.971ZM271.605 205.727C275.259 199.122 273.228 190.697 267.026 186.425C259.345 181.138 250.588 179.273 240.961 178.798C239.444 187.33 237.943 195.783 236.348 204.778C245.473 204.421 254.041 205.9 262.653 205.085C263.624 199.429 261.136 193.165 259.061 189.239C265.04 189.815 263.88 200.038 265.587 205.314C267.656 205.454 269.525 205.582 271.605 205.722V205.727Z" fill="black"/>
<path d="M162.398 151.3C159.609 150.742 159.776 149.206 159.609 147.392C160.166 141.808 166.492 137.676 168.907 141.696C171.322 145.717 165.666 151.953 162.398 151.3Z" fill="black"/>
<path d="M197.276 160.016C198.653 163.025 193.338 170.189 189.857 169.122C186.377 168.056 187.765 162.634 191.224 159.379C193.042 157.671 195.892 157.012 197.276 160.021V160.016Z" fill="black"/>
<path d="M170.859 177.135H163.926C163.262 175.175 162.548 173.053 161.784 170.797C161.661 170.434 161.935 170.06 162.32 170.06C166.754 170.077 170.184 172.428 171.417 176.375C171.534 176.749 171.255 177.135 170.865 177.135H170.859Z" fill="black"/>
<path d="M153.373 185.124C158.415 184.784 162.81 186.219 167.401 187.129C167.791 187.207 167.814 187.754 167.429 187.855C164.116 188.754 157.919 187.838 153.267 185.655C153.005 185.532 153.083 185.141 153.373 185.124Z" fill="black"/>
<path d="M148.849 239.982C128.741 238.301 108.153 236.894 87.6438 234.75C73.7663 233.298 59.9835 230.875 46.7028 226.308C41.8055 224.622 37.3879 222.126 34.7105 217.52C33.7567 215.878 33.5169 213.823 32.7471 211.288C37.1759 212.02 40.5672 212.913 43.992 213.07C50.2503 213.349 56.6313 213.89 62.7724 213.014C69.5885 212.042 71.8587 205.23 68.2833 199.329C66.4594 196.319 63.5589 195.214 60.5246 194.426C48.5044 191.322 37.3098 193.137 27.3255 200.401C21.8035 199.647 16.644 196.744 13.7994 192.299C13.5818 191.959 13.5316 191.523 13.6934 191.155C14.5691 189.1 16.8337 186.52 19.0425 185.353C21.2513 184.186 32.1447 182.539 38.6261 180.87C42.129 179.965 44.7673 177.732 46.0111 174.164C49.6032 169.089 49.4136 164.494 44.9681 160.937C42.7202 159.139 39.9313 157.944 37.2763 156.716C34.0747 155.236 28.5192 153.522 28.112 151.551C27.9614 148.497 33.277 146.705 36.9138 146.141C40.1768 145.633 43.3505 144.555 46.6024 143.941C49.7985 143.344 53.0447 143.014 56.2743 142.573C55.7165 141.462 55.2089 140.954 54.8241 141.032C46.6637 142.729 38.4421 144.215 30.4156 146.409C27.7941 147.124 25.7358 149.078 26.8458 153.517C27.4036 154.633 33.6061 156.995 37.5217 158.363C44.0924 160.652 48.5658 165.789 46.106 171.188C45.643 172.21 44.9291 173.204 44.3768 173.969C44.3545 173.98 44.3322 174.002 44.3099 174.03C41.376 178.508 36.8189 179.675 31.9272 180.563C27.9391 181.289 24.0569 182.551 20.1525 183.667C15.6902 185.342 11.2503 189.865 12.3045 192.411C14.2344 196.286 16.8839 199.044 20.7605 200.161C28.4467 202.372 36.1217 204.812 43.9697 206.23C48.6606 207.079 53.7754 207.207 58.6337 207.118C61.0656 206.632 61.4672 205.621 61.8186 204.343C61.919 203.98 61.8521 203.583 61.6067 203.299C57.0552 197.944 46.0892 197.871 35.6253 202.735C34.0691 202.249 30.912 201.545 29.0658 200.976C29.0658 200.976 29.6236 200.418 30.2594 199.887C30.8953 199.357 36.1217 197.056 39.2118 196.202C46.7251 194.119 54.3053 193.5 61.7963 196.548C65.9518 198.24 68.8578 202.567 68.2164 206.28C67.6474 209.58 64.9924 211.026 59.6712 211.54C45.9777 212.852 32.8141 210.451 20.1246 205.632C13.5484 203.137 4.52348 195.392 5.57211 190.753C6.19682 188.134 8.40563 185.867 10.7093 184.03C16.0305 179.787 21.9876 176.632 29.0491 175.973C31.4252 175.75 33.8125 174.89 36.0325 173.941C38.7265 172.791 43.0159 168.592 40.411 166.604C38.4644 165.32 36.1663 163.522 33.6173 162.216C30.8451 160.792 27.8275 159.831 24.9271 158.653C18.9867 156.241 17.7652 151.512 22.0266 146.861C23.2872 145.482 24.8769 144.114 26.5948 143.483C31.8101 141.557 37.1424 139.932 42.4637 138.307C44.851 137.576 47.3163 137.112 49.7483 136.526C48.761 135.437 47.8797 135.075 47.1602 135.281C39.9592 137.302 32.7025 139.184 25.6522 141.646C23.3597 142.445 21.2569 144.55 19.7062 146.549C15.7349 151.669 17.4472 157.637 23.3932 160.25C26.5892 161.652 29.9248 162.757 33.0595 164.276C34.9671 165.203 37.5106 166.532 38.7712 167.693C38.9887 167.894 39.0835 168.195 38.9998 168.475C37.6389 172.975 31.4587 173.483 27.4538 174.136C19.9461 175.365 13.5093 178.436 8.0096 183.583C3.4637 187.838 2.56567 194.052 6.36973 198.061C8.95783 200.786 12.0702 203.098 15.2217 205.186C17.9214 206.972 21.017 208.178 23.845 209.597C23.0027 216.9 24.9438 223.354 29.3168 226.866C33.8069 230.468 38.6038 233.533 44.2039 235.37C59.7102 240.456 75.7129 243.265 91.8495 244.873C109.397 246.62 127.057 247.274 144.666 248.496C146.523 248.625 148.994 248.999 148.994 248.999C153.445 252.628 159.904 254.594 165.192 255.381C169.531 256.029 174.752 255.699 179.114 255.699C178.556 249.557 179.114 236.715 179.164 232.243C167.166 231.997 156.184 233.79 148.832 239.971L148.849 239.982ZM60.123 203.109C60.9485 205.51 58.2154 205.945 57.6409 206.007C54.9914 205.582 52.3419 205.649 49.7092 205.476C46.3458 205.253 38.007 203.226 38.007 203.226C47.0988 199.184 54.3611 200.63 60.123 203.109ZM177.112 254.03C167.072 253.823 157.757 253.94 149.775 246.704C140.499 246.308 130.716 246.107 120.966 245.409C110.887 244.683 100.819 243.661 90.7841 242.422C81.2963 241.249 71.7861 240.021 62.4322 238.095C52.9109 236.135 43.3115 234.158 34.7942 228.915C27.9 224.666 24.8657 218.335 26.3606 209.731C27.8387 210.027 29.3112 210.317 30.7893 210.613C31.0013 211.244 31.2467 211.707 31.3025 212.193C32.0555 218.592 35.2683 223.198 41.1975 225.906C48.0247 229.027 54.9189 231.78 62.4768 232.807C75.6125 234.599 88.6757 236.939 101.834 238.586C108.75 239.451 115.795 239.289 122.773 239.697C132.01 240.239 141.246 240.892 150.517 241.5C158.248 234.666 169.085 234.493 177.112 234.136V254.03Z" fill="black"/>
<path d="M312.29 226.654C312.686 226.179 312.903 225.582 312.931 224.962C313.154 218.943 310.934 215.487 305.34 213.103C296.226 209.217 287.084 205.387 277.931 201.584C277.044 201.216 276.012 201.194 275.047 201.009C275.739 202.137 276.558 202.807 277.496 203.198C284.384 206.085 291.323 208.86 298.195 211.791C301.235 213.086 304.341 214.376 307.102 216.152C312.491 219.613 312.613 225.588 307.655 229.574C306.394 230.59 305.167 231.657 303.929 232.701C307.85 232.126 310.075 229.329 312.295 226.66L312.29 226.654Z" fill="black"/>
<path d="M279.983 166.476C281.21 168.05 281.21 168.609 281.272 170.278C280.279 174.365 277.44 175.588 274.283 176.431C272.76 176.839 271.209 177.162 269.726 177.682C268.264 178.195 265.592 178.653 264.477 180.328C264.655 180.697 265.804 180.261 265.983 180.624C271.471 177.872 278.962 179.474 282.515 172.405C282.956 169.558 283.001 166.604 280.474 164.739C278.193 163.059 275.872 161.244 273.067 160.663C272.436 160.34 271.633 160.005 270.612 159.664C261.13 156.872 253.455 155.649 245.535 153.874C245.367 153.835 245.094 154.298 244.508 154.896C253.159 156.766 267.266 160.222 273.401 162.456C273.424 162.456 277.864 164.689 279.983 166.465V166.476Z" fill="black"/>
<path d="M267.126 152.59C267.126 152.59 261.972 151.077 267.126 152.584C272.28 154.092 277.356 156.615 281.969 158.994C286.057 161.099 288.885 164.27 289.571 168.609C289.225 173.042 287.468 176.794 284.005 179.323C283.966 179.351 283.932 179.385 283.899 179.418C283.068 180.049 281.138 181.4 278.416 182.567C274.511 184.242 271.343 184.326 271.343 184.326L272.358 185.973C272.358 185.973 275.069 185.353 278.973 184.237C282.878 183.12 287.167 178.877 287.184 178.86C290.581 176.051 292.36 168.603 290.854 165.141C284.992 156.833 276.475 153.617 267.45 151.373C264.293 149.212 250.527 146.828 250.527 146.828L249.411 147.944C249.411 147.944 251.782 148.67 253.873 149.061C254.838 149.346 267.121 152.584 267.121 152.584L267.126 152.59Z" fill="black"/>
<path d="M316.345 210.484C314.8 208.943 308.017 205.711 307.08 205.309C302.3 203.237 297.364 201.529 292.556 199.519C287.558 197.43 280.078 194.588 275.627 192.617C276.938 195.13 280.19 196.42 284.546 198.173C290.04 200.378 295.607 202.411 301.151 204.488C303.388 205.325 305.63 206.141 307.872 206.956C324.154 214.398 320.679 226.933 316.189 232.098C313.316 235.398 309.445 238.335 305.424 240.038C298.061 243.153 290.28 245.258 282.147 245.649C274.829 246.001 267.963 246.894 261.125 247.346C254.426 255.068 245.507 254.046 236.956 254.409C236.025 252.93 235.104 251.221 234.909 250.696C232.12 250.696 228.773 250.138 226.542 250.138C226.542 250.138 225.985 248.463 225.985 245.671C229.683 245.493 231.59 245.833 234.909 245.671C235.076 243.84 235.294 243.656 235.467 241.763C232.12 241.205 229.889 240.646 226.782 239.915C227.05 238.491 226.961 237.48 227.1 236.738C229.967 236.47 232.778 236.453 235.233 236.218C236.025 234.504 236.025 233.946 237.14 232.271C247.738 232.271 255.58 232.656 261.682 241.205C271.722 240.646 280.569 239.585 289.995 238.05C294.725 237.279 303.103 234.733 306.863 231.154C305.602 231.433 300.928 233.365 299.74 233.818C287.597 238.452 274.902 238.832 262.48 239.06C254.933 231.311 245.864 230.3 236.08 231.143C235.511 232.383 235.026 233.444 234.58 234.432C231.629 234.616 228.723 234.8 225.471 235.007C225.293 237.307 225.153 239.139 224.992 241.21C227.993 241.802 230.564 242.31 233.135 242.818C233.091 243.131 233.04 243.443 232.996 243.756H224.3C224.456 246.403 224.596 248.837 224.757 251.606C228.076 251.835 230.809 252.02 233.682 252.215C234.329 253.376 234.97 254.532 235.629 255.71C245.423 255.688 255.201 256.481 261.638 249.289C272.587 248.195 282.605 247.91 292.31 246.034C304.559 243.667 316.562 240.01 321.61 226.514C324.159 217.743 316.947 210.836 316.35 210.484H316.345Z" fill="black"/>
</svg>
