<svg width="296" height="296" viewBox="0 0 296 296" fill="none" xmlns="http://www.w3.org/2000/svg">
<path d="M235.633 120.555C223.845 139.819 211.3 160.443 199.25 179.545C190.799 192.938 182.648 206.698 172.649 218.882C164.944 228.269 160.977 235.873 160.977 241.444C160.977 251.505 162.593 269.711 162.576 279.816C162.565 285.649 162.158 287.621 156.521 285.454C121.201 271.889 87.0958 254.313 55.7315 232.859C41.5312 223.149 26.98 214.007 14.2003 202.325C11.0025 199.406 10.4677 199.578 13.3479 197.991C19.5428 194.57 26.4619 191.562 32.8461 188.52C36.0773 186.983 36.7068 183.244 35.0299 180.687C29.8434 172.793 24.3783 165.067 19.5038 156.989C10.49 142.047 10.6237 146.532 20.2559 132.059C22.4954 128.694 25.058 125.541 27.2474 122.148C27.9772 121.012 28.3226 119.413 28.3058 118.031C27.9994 92.3938 27.4479 66.7564 27.3254 41.119C27.2864 33.0412 28.1554 24.9466 28.9521 16.891C29.5036 11.3424 30.2668 11.7045 35.0801 14.7128C57.815 28.941 77.291 50.4002 94.1319 70.9792C96.4884 73.8593 114.906 73.0237 119.201 70.4221C119.201 70.4221 124.549 60.2328 127.106 55.4307C136.209 38.3503 147.646 22.9355 160.253 8.35082C161.423 6.99708 163.729 5.33694 165.011 5.67677C166.682 6.12245 168.649 8.22268 169.105 9.97196C171.963 20.8631 174.381 31.8713 177.089 42.807C177.596 44.8459 177.98 50.0325 179.367 51.4809C187.1 59.5365 190.782 66.4779 192.308 77.2632C192.643 79.6364 193.216 83.926 194.966 85.4636C207.144 96.1208 235.611 119.196 235.633 120.56V120.555Z" fill="#FDA519"/>
<path d="M26.3895 90.3326H25.9326L25.4758 90.3103V55.8764C25.7655 55.8652 26.0496 55.8597 26.3393 55.8652C26.356 67.3525 26.3727 78.8453 26.395 90.3326H26.3895Z" fill="#FEE9D5"/>
<path d="M26.3337 55.8652C26.044 55.8652 25.7599 55.8652 25.4702 55.8764V46.7623C25.7766 46.7512 26.083 46.7512 26.3894 46.7512C26.3727 49.7874 26.3504 52.8235 26.3337 55.8652Z" fill="#FEF2E7"/>
<path d="M173.362 215.857C175.378 204.715 183.033 162.833 184.386 154.125C184.665 129.68 184.325 105.291 180.676 81.0124C179.356 72.2382 179.551 63.2356 179.116 54.3332C179.072 53.3918 179.445 52.4336 179.623 51.4809C180.487 52.1216 181.517 52.623 182.191 53.4252C188.069 60.3944 190.303 68.8121 191.512 77.5863C191.974 80.9567 192.81 83.6085 195.835 86.0374C207.511 95.4188 218.798 105.291 230.241 114.973C235.388 119.324 235.784 120.36 232.363 125.97C221.138 144.359 209.879 162.727 198.369 180.938C190.91 192.737 182.983 204.241 175.267 215.879C174.632 215.873 174.002 215.868 173.367 215.862L173.362 215.857Z" fill="#FE7D03"/>
<path d="M78.4218 186.23C91.1013 186.347 102.594 195.957 103.881 208.397C104.265 212.096 103.43 216.859 101.274 219.701C94.3658 228.809 86.6278 237.299 79.0179 245.856C78.3383 246.619 75.8704 246.747 74.8843 246.135C65.0238 239.99 55.3304 233.578 45.5088 227.372C43.3863 226.029 43.3751 224.776 44.5673 222.865C50.7232 213.01 56.6172 202.988 63.0238 193.3C66.5279 188.008 72.1768 186.169 78.4163 186.23H78.4218Z" fill="#FE7D03"/>
<path d="M26.3337 55.8652C26.3504 52.8291 26.3726 49.7929 26.3894 46.7512C26.757 40.0327 26.8907 33.2863 27.6205 26.6067C27.8545 24.4675 29.2138 21.7099 30.9074 20.7573C31.938 20.1779 35.2806 21.5873 36.7457 23.0692C45.0297 31.4256 48.3221 42.651 52.205 53.5422C57.2467 67.6979 51.6257 80.823 46.7734 93.2629C44.662 98.6722 28.3893 103.848 26.3782 90.3381C26.3615 78.8509 26.3448 67.3581 26.3225 55.8708L26.3337 55.8652Z" fill="#FE7E05"/>
<path d="M173.362 215.857C173.997 215.862 174.626 215.868 175.261 215.873C174.66 216.481 174.058 217.082 173.456 217.689C173.423 217.077 173.395 216.469 173.362 215.857Z" fill="#FEA14A"/>
<path d="M172.726 219.584L172.654 219.255L172.905 219.3L172.726 219.584Z" fill="#FED0A5"/>
<path d="M236.508 121.34C233.728 125.914 230.971 130.499 228.168 135.056C219.372 149.362 210.754 163.774 201.701 177.919C193.021 191.478 183.924 204.771 174.927 218.13C173.061 220.904 171.105 223.717 168.721 226.018C164.81 229.79 163.111 233.979 163.479 239.505C163.924 246.229 163.59 253.004 163.59 259.761C163.59 268.079 163.59 276.396 163.59 285.8C160.509 285.098 157.891 284.892 155.607 283.911C141.279 277.75 127.09 271.265 112.733 265.17C97.0344 258.508 82.3884 249.979 68.1101 240.753C67.7034 240.491 67.3748 240.107 66.3943 239.227C72.2827 236.987 77.4358 235.427 83.5527 233.099C82.6725 231.89 71.5808 223.021 67.397 219.171C61.4807 213.729 56.2552 207.01 50.7177 201.183C47.4921 197.79 44.5228 194.108 41.7652 190.32C39.2026 186.804 37.0856 182.971 34.7403 179.3C28.2334 169.117 21.6764 158.966 15.2142 148.755C13.0081 145.267 13.2309 144.003 16.3785 141.546C27.0914 133.201 39.3976 130.844 52.3555 133.936C67.7759 137.619 115.123 154.744 121.435 157.891C121.435 157.891 121.658 148.075 126.449 142.85C138.705 129.479 156.827 129.095 159.317 128.922C175.473 127.808 184.175 137.24 184.944 137.836C193.857 122.237 207.946 121.151 216.052 120.349C220.046 119.953 224.051 119.502 228.057 119.452C230.87 119.418 233.695 120.02 236.508 120.338V121.351V121.34Z" fill="#FEEDD3"/>
<path d="M47.9935 57.0463C48.4503 54.2608 49.5088 51.6592 51.2358 49.247C52.2831 51.1522 62.3776 72.0878 65.1631 81.0012C59.0239 85.9092 50.3946 91.7698 44.0604 97.0009C39.5034 92.5386 37.6427 86.5276 36.1776 80.6893C34.6901 74.7507 35.7375 65.8929 38.4226 59.8317C41.2917 53.3528 41.5814 54.9405 47.9935 57.0463Z" fill="#FEEDD4"/>
<path d="M177.139 48.9239C184.542 54.3165 188.013 62.127 190.147 70.6338C191.06 74.2827 191.372 78.0765 192.152 83.0514C189.122 81.4525 186.988 80.0653 184.659 79.1684C181.562 77.9707 181.462 75.6253 180.994 72.8176C179.668 64.8177 177.791 56.907 176.13 48.9629C176.465 48.9517 176.804 48.9406 177.139 48.9239Z" fill="#FEEDD4"/>
<path d="M178.81 48.3668C178.476 48.3835 178.136 48.3946 177.802 48.4058C177.412 46.0214 177.027 43.6371 176.637 41.2527C177.005 41.1914 177.373 41.1357 177.74 41.0744C178.097 43.5089 178.454 45.9378 178.81 48.3723V48.3668Z" fill="#FEF4E5"/>
<path d="M62.879 211.216C70.1045 214.882 77.5472 217.99 85.6863 218.826C107.045 221.01 126.945 217.762 143.546 202.737C144.292 202.057 145.017 201.339 145.674 200.576C149.674 195.957 149.334 195.996 144.972 191.612C140.8 187.412 136.582 183.556 133.128 177.378C133.128 177.378 134.293 177.796 134.538 177.941C145.351 184.554 156.276 186.347 168.225 183.506C180.175 180.665 191.623 167.802 191.623 156.209C191.623 144.616 184.938 137.825 184.938 137.825C191.623 128.354 201.801 122.828 206.665 121.669C218.364 118.884 227.099 119.028 232.291 120.555C235.823 121.591 235.489 121.229 233.962 123.897C229.455 131.791 225.55 138.582 220.592 146.181C204.414 170.994 189.389 196.787 172.125 220.831C166.42 228.776 160.443 230.776 160.983 240.33C161.629 251.711 162.716 270.691 162.654 282.112C162.632 286.68 163.061 287.304 158.76 285.627C148.426 281.605 138.075 277.582 127.964 273.037C107.547 263.861 65.943 239.817 65.1575 239.21C66.0767 238.636 76.8509 235.171 80.7561 234.196C82.9956 233.639 83.2853 233.422 81.6251 231.828C79.4469 229.734 77.1684 227.739 75.0682 225.561C70.539 220.859 62.3887 214.993 57.9153 210.241C58.3331 210.202 57.3582 208.57 62.8678 211.211L62.879 211.216Z" fill="#FEA19A"/>
<path d="M178.999 47.3139C182.654 52.8737 187.016 58.1048 189.746 64.0879C192.125 69.3023 192.737 75.3468 193.991 81.0514C194.509 83.3912 193.406 83.4302 191.451 82.7338C185.846 80.7394 182.103 77.8983 181.701 71.0404C181.239 63.0852 179.406 55.2023 178.169 47.2916L178.587 47.2582L178.999 47.3083V47.3139Z" fill="#FEA59D"/>
<path d="M54.2774 54.2385C57.7035 62.088 61.9486 73.0683 65.163 81.0068C65.163 81.0068 56.5671 88.0206 56.5448 87.5527C56.5002 86.4719 56.2774 83.5082 56.2495 83.2352C55.1353 71.5363 52.4613 61.3526 50.6786 51.4809C50.5282 50.6397 53.9822 53.5645 54.2774 54.2385Z" fill="#FEA7A0"/>
<path d="M178.999 47.3139L178.587 47.2637L178.169 47.2972C177.791 45.8766 177.406 44.4504 177.027 43.0298C177.518 42.9463 178.002 42.8683 178.492 42.7847C178.66 44.2944 178.832 45.8042 178.999 47.3194V47.3139Z" fill="#FEDDDA"/>
<path d="M282.424 39.6817C282.724 39.5313 282.986 39.5814 283.209 39.8377V44.8794C282.925 44.8849 282.641 44.9072 282.362 44.9462C282.385 43.1914 282.407 41.4365 282.429 39.6873L282.424 39.6817Z" fill="#EFA0A3"/>
<path d="M282.362 44.9407C282.646 44.9072 282.925 44.885 283.209 44.8738V47.8988C282.925 47.9155 282.646 47.9322 282.368 47.9545C282.368 46.9518 282.368 45.9434 282.368 44.9407H282.362Z" fill="#F5CACB"/>
<path d="M282.362 46.0548C282.362 47.0576 282.362 48.0659 282.362 49.0687C281.399 64.9514 280.48 80.8341 279.438 96.7113C279.276 99.1402 278.574 101.536 278.123 103.948C275.404 103.129 272.541 102.633 269.989 101.435C263.505 98.3881 260.586 93.2907 259.912 85.7198C258.591 70.9012 256.14 56.1939 254.224 41.431C252.798 30.473 252.859 30.4173 263.026 33.8824C269.522 36.094 275.956 38.484 282.424 40.7959C282.401 42.5507 282.379 44.3056 282.357 46.0548H282.362Z" fill="#E24F53"/>
<path d="M275.895 126.828C275.895 126.995 275.895 127.162 275.895 127.329C275.844 138.476 275.794 138.577 266.335 133.318C264.903 132.521 263.549 130.454 263.288 128.783C262.563 124.176 262.407 119.474 262.079 114.806C261.873 111.87 263.249 111.123 265.677 112.421C268.725 114.042 271.778 115.675 274.647 117.597C275.471 118.148 275.961 119.686 276.051 120.817C276.206 122.8 275.928 124.822 275.833 126.828C275.856 126.828 275.878 126.828 275.9 126.828H275.895Z" fill="#E25256"/>
<path d="M160.309 288.997C138.477 281.933 117.903 271.895 97.6305 261.393C83.1795 253.906 69.397 245.076 55.6201 236.358C45.0967 229.695 34.9241 222.453 24.8519 215.11C18.93 210.793 13.2477 205.679 7.19765 200.654C6.92468 200.431 6.92468 200.007 7.19765 199.785C15.3813 193.211 25.0079 190.264 33.6261 184.765C25.5761 171.763 17.5596 158.81 9.55972 145.891C12.802 136.365 19.8882 129.83 24.8519 122.833C24.8519 113.457 24.7795 104.717 24.8631 95.9759C25.0915 72.1936 25.2363 48.4058 25.7767 24.6291C25.8825 19.9161 26.2948 14.8799 29.3699 10.6293C40.1218 13.5875 48.0103 20.7183 56.1661 27.4201C71.7201 40.2109 85.185 55.024 97.3798 70.3831C106.299 69.5029 109.034 69.2299 117.953 68.3497C130.048 44.5451 143.969 20.0609 165.434 1.89411C169.334 1.89411 170.632 7.30348 171.585 12.0443C173.701 22.5845 176.125 33.069 178.509 43.5591C178.832 44.9797 179.339 46.5729 180.286 47.598C189.222 57.2747 193.222 69.0071 194.737 82.1154C209.177 94.5219 223.723 107.023 238.675 119.87C215.227 159.468 192.654 199.233 163.997 235.26C164.353 250.402 164.799 265.56 164.994 280.719C165.028 283.488 165.434 290.463 160.298 288.992L160.309 288.997ZM186.303 138.137C192.197 145.44 194.587 153.429 191.84 162.353C188.877 171.991 183.646 178.114 176.442 180.342C176.002 180.476 175.696 179.907 176.052 179.618C178.281 177.835 180.264 176.353 181.969 174.593C187.395 168.983 191.267 162.515 190.737 154.37C189.696 138.404 173.406 128.282 161.262 130.092C155.93 130.889 150.521 131.429 145.306 132.722C134.66 135.351 126.154 140.744 123.134 152.187C122.677 153.919 122.416 156.666 121.992 159.005C119.831 158.76 117.87 157.891 116.059 157.306C113.201 156.381 110.488 155.005 107.708 153.836C91.6083 147.05 75.3913 140.571 58.3777 136.393C49.8487 134.298 41.2416 132.516 32.4172 134.861C25.643 136.666 19.398 139.323 15.0861 145.301C15.7156 146.655 16.1557 147.942 16.8576 149.056C28.7683 168.014 40.8628 186.854 55.0129 204.264C57.4251 207.227 59.5142 210.542 62.2997 213.099C69.6979 219.896 77.3969 226.375 85.5137 233.444C80.3049 235.266 70.1881 238.658 69.0739 239.216C69.0739 239.216 125.34 275.427 159.161 283.521C159.908 283.699 159.835 282.245 159.824 281.805C159.418 263.449 158.972 245.093 158.565 226.737C158.51 224.324 157.607 221.701 159.886 219.595C163.345 220.614 163.061 223.834 164.058 227.767C188.208 192.693 210.72 158.092 231.751 122.271C217.038 117.937 194.163 123.413 186.308 138.137H186.303ZM143.719 70.4165C142.047 73.7591 139.457 73.6811 137.034 73.7591C119.764 74.3161 96.3659 74.8732 93.0233 74.3161C82.9957 60.3888 59.8986 36.2333 42.6287 22.6625C39.3697 20.0999 35.7598 17.9941 31.7821 15.3256C30.629 19.7211 30.6512 22.4118 30.551 25.565C30.1109 39.2137 29.5593 52.8625 29.5538 66.5169C29.5482 82.1377 29.888 97.7642 30.4563 113.379C30.6958 120.048 30.1164 126.059 24.7628 130.805C23.3812 132.031 22.5177 133.836 21.3478 135.468C22.0275 135.747 22.2002 135.892 22.3227 135.858C22.9745 135.685 23.6375 135.529 24.2503 135.257C35.4534 130.198 46.8849 131.206 58.3332 134.103C74.6838 138.237 90.4328 144.109 105.92 150.738C110.449 152.677 115.045 154.459 120.137 156.526C121.268 146.025 126.56 139.056 135.073 134.348C143.245 129.825 152.226 128.711 161.306 127.936C167.005 127.452 172.381 128.583 177.389 131.245C179.863 132.56 182.13 134.259 184.581 135.841C190.008 129.084 196.124 123.251 204.342 121.218C212.124 119.29 220.28 118.856 228.414 117.747C220.726 111.006 213.049 103.992 205.066 97.3519C197.077 90.7058 188.776 84.4218 179.963 77.4749C175.963 55.0798 169.334 16.3897 165.434 8.59036C148.164 25.8602 134.666 46.6509 122.928 69.2633C130.449 69.2633 137.022 69.3135 143.708 70.4276L143.719 70.4165ZM14.6181 200.392C30.9131 214.904 49.2247 226.391 66.8901 237.689C71.9541 235.851 76.2604 234.285 81.0291 232.553C72.5725 225.093 64.5448 217.99 56.4948 210.921C54.2664 208.96 51.6258 207.361 49.754 205.116C45.3529 199.835 41.3084 194.258 37.1358 188.827C29.6039 192.693 22.1834 196.503 14.6181 200.392ZM181.038 57.0463C181.874 62.8623 182.971 68.9458 183.824 74.8732C185.478 75.5083 187.339 77.1963 189.211 77.915C188.821 70.3497 185.646 62.6841 181.038 57.0463Z" fill="black"/>
<path d="M283.933 38.8126C284.769 39.0745 285.315 39.86 285.287 40.729C285.237 42.144 284.942 43.7429 284.814 45.4198C283.794 59.0017 282.529 72.5669 281.382 86.1376C280.903 91.7754 280.257 97.7865 279.215 106.171C279.148 106.722 278.613 107.107 278.073 106.978C272.218 105.569 264.067 100.071 259.588 97.1569C259.588 97.1569 258.948 95.3408 258.781 94.1152C255.99 73.9373 253.544 55.9544 250.279 30.9688C250.14 29.9159 251.098 29.0412 252.14 29.2752C261.973 31.4869 268.524 33.9882 273.772 35.7096C276.479 36.601 280.245 37.6539 283.939 38.8182L283.933 38.8126ZM255.7 35.0077C258.519 55.609 261.204 75.2075 263.895 94.8617C267.655 96.9007 271.399 98.9341 275.17 100.984C276.819 81.2129 278.424 61.9988 280.006 43.0243C271.878 40.3446 264.257 37.8266 255.7 35.0021V35.0077Z" fill="black"/>
<path d="M275.538 139.635C271.076 137.429 266.73 135.284 262.056 132.972C261.538 132.716 261.187 132.209 261.132 131.635C260.441 124.488 259.767 117.547 259.087 110.527C259.02 109.814 259.455 109.151 260.134 108.923C262.302 108.204 264.123 108.522 265.939 109.569C269.131 111.407 272.418 113.107 275.488 115.129C276.769 115.97 278.491 117.485 278.491 118.694C278.479 124.883 277.995 131.073 277.577 137.256C277.544 137.775 277.41 140.047 275.532 139.63L275.538 139.635ZM274.151 120.159C270.897 118.271 268.034 116.605 264.307 114.438C264.836 120.115 265.276 124.856 265.694 129.362C268.352 130.594 270.53 131.608 273.265 132.878C273.599 128.064 273.878 124.087 274.151 120.159Z" fill="black"/>
<path d="M163.49 145.379C158.404 143.936 154.109 141.646 150.643 138.933C150.064 138.482 150.164 137.568 150.827 137.251C156.604 134.482 162.097 133.825 168.537 136.616C168.989 136.811 169.217 137.323 169.083 137.797C168.17 141.034 167.055 143.702 164.248 145.295C164.019 145.423 163.741 145.451 163.49 145.379Z" fill="black"/>
<path d="M126.159 170.838C126.003 170.576 126.326 170.286 126.571 170.465C131.524 174.075 136.008 178.169 141.273 180.47C146.404 182.71 152.326 183.139 157.707 184.13C158.147 184.214 158.231 184.81 157.835 185.016C150.276 188.888 132.237 181.2 126.159 170.838Z" fill="black"/>
<path d="M148.376 162.526C156.716 158.621 165.055 154.71 173.272 150.866C174.359 151.195 172.977 152.955 166.71 156.465C163.947 158.014 161.05 159.356 158.114 160.554C155.094 161.785 151.958 162.721 148.872 163.785C147.808 163.601 147.184 163.301 148.376 162.532V162.526Z" fill="black"/>
<path d="M39.7598 26.7906C41.7653 23.6207 68.5058 82.1154 65.1632 81.5583C59.7706 73.3969 56.2887 60.6785 51.2359 52.0324C50.144 53.7483 49.5646 55.9321 48.4504 58.7176C45.1079 57.0463 42.3224 55.9321 42.3224 55.9321C40.9297 56.8624 38.6567 60.7231 37.8657 64.2885C35.303 75.8704 37.0133 85.2574 43.4366 94.9286C43.5814 95.1458 44.2778 96.1876 44.3781 96.8728C44.4059 97.0734 44.2834 97.2684 44.0884 97.3185C43.197 97.5469 42.1163 96.7725 41.7208 96.2712C33.2641 85.575 30.7293 63.5253 41.7319 53.0352L46.9908 55.5366C48.0159 53.414 49.0075 51.3639 50.1217 49.052C46.7847 41.8767 43.4255 34.6623 39.7654 26.7906H39.7598Z" fill="black"/>
<path d="M118.783 113.708C125.886 114.984 127 127.24 121.346 128.778C117.53 128.911 115.201 125.68 114.616 121.931C113.992 117.953 114.744 114.432 118.783 113.708Z" fill="black"/>
<path d="M168.136 107.185C172.682 107.185 174.949 111.508 175.467 115.541C175.813 118.243 174.91 121.669 170.805 121.753C165.997 121.669 163.211 108.299 168.136 107.185Z" fill="black"/>
</svg>
