<svg width="216" height="185" viewBox="0 0 216 185" fill="none" xmlns="http://www.w3.org/2000/svg">
<g clip-path="url(#clip0_2978_5411)">
<path d="M89.8807 0.60321C90.3617 0.89641 90.8198 1.24148 91.3307 1.46699C91.7684 1.66015 92.0557 1.94545 92.2606 2.34885C92.4438 2.70951 92.5905 3.09051 93.0484 3.21726C93.1502 3.24544 93.2215 3.41544 93.2889 3.53064C94.5964 5.7687 95.7195 8.09886 96.7153 10.489C97.4549 12.2645 98.0251 14.1053 98.7986 15.8702C99.5694 17.629 99.9881 19.5176 100.687 21.3008C101.465 23.2852 102.045 25.3294 102.704 27.3499C102.826 27.7243 103.028 27.8958 103.425 27.9252C104.782 28.0258 106.125 28.2467 107.472 28.4241C108.254 28.5271 109.045 28.5678 109.816 28.7699C110.1 28.8442 110.226 28.7047 110.335 28.4382C111.27 26.1442 112.431 23.9644 113.787 21.8935C114.57 20.6989 115.084 19.3687 115.797 18.1371C116.931 16.1791 117.866 14.1045 119.029 12.1654C120.539 9.64828 121.927 7.0446 123.996 4.8901C124.639 4.22078 125.116 3.37563 125.775 2.69113C126.154 2.29832 126.577 1.96814 127.016 1.65287C127.419 1.36275 127.73 1.47961 128.075 1.82493C129.239 2.9886 130.039 4.38732 130.72 5.85558C131.545 7.63479 132.392 9.41108 133.073 11.2464C133.515 12.4345 133.894 13.666 134.094 15.0212C134.508 14.8284 134.854 14.7037 135.184 14.4449C136.474 13.4342 137.679 13.7113 138.56 15.1333C138.913 15.702 139.08 16.298 139.085 16.9582C139.099 18.7054 138.872 20.3911 137.913 21.9102C137.706 22.2382 137.853 22.3742 138.224 22.4237C139.326 22.5711 139.877 23.2773 140.135 24.3148C140.41 25.4198 140.272 26.5103 140.189 27.6184C140.097 28.845 139.54 29.9408 139.337 31.1279C139.277 31.4737 138.945 31.5841 138.827 31.8667C138.355 33.0011 137.596 34.0057 137.311 35.2277C137.278 35.3691 137.274 35.4554 137.333 35.5862C138.042 37.1663 138.499 38.8281 138.88 40.5105C139.121 41.5718 139.534 42.5658 139.92 43.5777C140.691 45.597 141.387 47.6456 142.088 49.691C142.504 50.9037 142.817 52.1534 143.277 53.348C143.591 54.1646 143.538 55.0819 144.072 55.8453C144.245 56.0921 143.937 56.5067 143.637 56.6416C143.279 56.8027 143.121 57.0429 143.037 57.3926C143.007 57.5189 142.94 57.6651 142.843 57.742C141.813 58.5539 141.079 59.658 140.056 60.4887C139.382 61.0361 138.825 61.741 138.135 62.2842C135.907 64.0368 134 66.1934 131.538 67.6421C129.932 68.5868 128.453 69.724 126.82 70.6208C126.499 70.7967 126.191 71.0121 125.915 71.3582C126.47 71.9778 127.017 72.5852 127.562 73.1954C127.804 73.4674 128.128 73.5479 128.468 73.604C130.261 73.9005 131.903 74.589 133.535 75.3765C134.724 75.9502 135.968 76.4157 137.079 77.1392C139.497 78.7133 140.968 80.9679 141.671 83.7313C141.835 84.3792 141.617 85.0809 141.785 85.784C142.848 85.7125 143.891 85.6552 144.932 85.5687C145.916 85.4869 146.228 85.7605 146.356 86.7159C146.677 89.1011 146.644 91.496 146.62 93.8922C146.617 94.1922 146.535 94.503 146.742 94.8511C150.51 95.004 154.046 96.2996 157.608 97.4869C159.956 98.2693 162.291 99.0865 164.475 100.273C164.734 100.414 164.916 100.478 165.17 100.207C165.528 99.8259 166.069 99.7655 166.553 99.6227C168.443 99.0649 170.395 98.7987 172.317 98.3888C175.471 97.7159 178.649 97.209 181.867 96.9604C186.17 96.628 190.404 96.9528 194.516 98.3169C196.826 99.0833 198.911 100.253 200.588 102.074C202.663 104.326 203.251 106.949 202.569 109.885C202.285 111.111 201.801 112.267 201.164 113.357C201.051 113.551 200.864 113.735 200.954 114.034C204.316 114.601 207.205 116.155 209.613 118.542C212.118 121.026 213.778 124.042 214.725 127.432C215.336 129.622 215.821 131.842 215.817 134.137C215.819 135.57 215.82 137.003 215.822 138.437C215.794 140.41 215.485 142.347 215.077 144.271C214.069 149.037 212.353 153.536 210.008 157.806C207.575 162.237 204.541 166.207 200.862 169.662C197.733 172.602 194.199 174.941 190.231 176.662C187.519 177.838 184.853 177.93 182.139 176.926C181.623 176.735 181.411 176.799 181.157 177.175C180.166 178.64 178.685 179.481 177.146 180.195C174.142 181.589 170.97 182.381 167.663 182.629C163.769 182.922 159.94 182.589 156.197 181.452C153.75 180.709 151.463 179.63 149.438 178.047C148.863 177.597 148.335 177.089 147.7 176.533C147.661 176.907 147.641 177.164 147.607 177.42C147.223 180.287 145.835 182.382 143.086 183.545C140.831 184.5 138.556 184.389 136.324 183.722C132.254 182.506 128.984 180.134 126.665 176.529C126.594 176.418 126.551 176.279 126.371 176.305C126.104 176.553 125.835 176.806 125.564 177.056C123.139 179.295 120.307 180.844 117.226 181.973C114.181 183.089 111.095 184.041 107.843 184.346C107.002 184.424 106.169 184.598 105.327 184.661C102.825 184.847 100.321 184.764 97.8184 184.634C95.7519 184.281 93.661 184.058 91.634 183.495C88.9452 182.748 86.351 181.773 84.0107 180.219C82.4116 179.157 81.03 177.875 80.0149 176.222C79.5855 175.522 79.3366 174.747 78.9742 173.964C77.9445 174.565 76.8937 175.102 75.7714 175.492C73.8693 176.154 71.9026 176.526 69.9126 176.739C67.0755 177.042 64.2285 177.078 61.3754 176.912C58.1496 176.724 54.9624 176.305 51.7991 175.642C47.8326 174.811 43.9774 173.661 40.3437 171.846C38.4827 170.917 36.7554 169.789 35.4132 168.162C35.0921 167.773 34.8176 167.345 34.4677 166.861C33.6886 167.977 32.4383 167.996 31.303 168.168C27.4654 168.749 23.7239 168.268 20.0947 166.917C15.7941 165.316 12.0787 162.813 8.90688 159.516C4.61659 155.058 1.79395 149.79 0.566499 143.731C-0.194551 139.974 -0.243781 136.18 0.757019 132.435C2.57493 125.631 7.73757 120.481 15.117 119.269C17.5027 118.876 19.8774 118.969 22.2477 119.392C22.4148 119.422 22.583 119.448 22.7519 119.464C22.8156 119.47 22.8824 119.443 23.0334 119.416C22.7449 118.394 22.4362 117.378 22.353 116.315C22.0515 112.46 23.0655 108.932 25.0228 105.647C27.0502 102.243 29.7422 99.4747 32.9988 97.2129C36.4815 94.7941 40.2729 93.1805 44.4571 92.4838C48.6111 91.7921 52.6352 92.1425 56.4706 93.9788C56.7778 94.1258 56.9748 94.1759 57.2616 93.9105C58.5757 92.6948 59.7788 91.3731 61.0132 90.0809C61.4099 89.6657 61.8319 89.2746 62.2387 88.8689C62.5318 88.5767 62.8411 88.3038 62.3816 87.8737C62.2218 87.724 62.2157 87.4221 62.0765 87.237C60.7918 85.5298 61.1359 83.6825 61.7311 81.8964C62.9011 78.3864 65.3302 75.9894 68.6539 74.4304C70.876 73.3882 73.2228 72.867 75.6509 72.8706C77.611 72.8735 79.599 72.9566 81.3915 73.9602C81.6862 74.1251 82.0076 74.2822 82.3514 74.2707C82.6408 74.2611 82.9332 74.7461 83.1213 74.4232C83.3683 73.999 84.1357 73.9608 83.9818 73.2916C83.8747 72.826 84.5559 72.5065 84.2384 72.101C84.0039 71.8015 83.562 71.6698 83.2273 71.4417C80.8131 69.7956 78.5837 67.9339 76.5016 65.8786C75.5402 64.9295 74.4561 64.0954 73.4247 63.2138C72.1251 62.103 71.142 60.7121 69.9456 59.513C69.0892 58.6546 68.3049 57.7243 67.485 56.8292C67.1605 56.475 66.8145 55.1423 66.9551 54.6734C67.4878 52.8974 68.1374 51.1614 68.7945 49.4292C69.6693 47.1229 70.6654 44.8579 71.4362 42.5182C72.1886 40.2341 73.2647 38.0987 74.1925 35.8965C74.6089 34.908 75.2121 33.9969 75.7455 33.0592C75.9174 32.7569 76.0686 32.4626 75.5633 32.4159C75.2592 32.3878 75.181 32.1948 75.0631 32.0048C73.9021 30.1341 73.4544 28.0863 73.6076 25.908C73.6378 25.4785 73.8106 25.0512 73.9625 24.6394C74.4475 23.3244 75.028 22.9718 76.4176 23.1295C76.5778 22.7994 76.2791 22.5766 76.1994 22.3142C75.6967 20.658 75.7664 18.9628 75.8416 17.2711C75.8913 16.1548 76.572 15.3225 77.2583 14.5241C77.6296 14.0921 78.2239 13.9942 78.6609 14.2594C79.5537 14.8012 80.5205 15.342 80.7003 16.5428C80.7613 16.951 80.9544 17.2841 81.2824 17.71C81.9277 16.1479 82.6197 14.7187 83.109 13.2234C83.67 11.5094 84.4488 9.89465 85.1157 8.2298C86.0132 5.98957 87.3423 3.98916 88.5731 1.93513C88.8659 1.44631 89.3048 1.04485 89.6766 0.60321C89.7446 0.60321 89.8127 0.60321 89.8807 0.60321ZM143.505 137.147C143.345 137.145 143.314 137.268 143.276 137.384C141.667 139.59 139.823 141.583 137.638 143.218C132.272 147.232 126.304 149.849 119.631 150.779C119.38 150.814 119.034 150.654 118.792 150.988C121.431 152.825 124.297 154.03 127.312 154.869C132.937 156.435 138.658 156.812 144.466 156.209C150.329 155.6 155.914 154.061 161.195 151.446C162.255 150.921 163.264 150.295 164.304 149.729C164.521 149.61 164.749 149.364 165.024 149.662C165.252 149.91 165.317 150.142 165.163 150.482C164.729 151.437 164.371 152.427 163.918 153.372C163.702 153.822 163.59 154.253 163.646 154.737C163.529 154.934 163.509 155.228 163.767 155.18C164.789 154.991 165.813 154.778 166.806 154.474C171.077 153.166 175.128 151.358 178.897 148.959C179.864 148.343 180.848 147.721 181.632 146.85C183.132 145.183 183.953 143.198 184.345 141.028C184.796 138.534 184.737 136.025 184.311 133.536C184.021 131.837 183.717 130.132 183.013 128.536C182.684 126.998 182.035 125.574 181.395 124.155C178.064 116.766 173.299 110.429 167.195 105.109C165.8 103.893 164.433 102.64 162.673 101.864C158.439 99.9968 154.122 98.4088 149.593 97.4275C149.03 97.3054 148.467 97.1654 147.897 97.0899C146.948 96.9642 146.612 97.2648 146.594 98.2018C146.536 101.12 146.475 104.038 146.431 106.956C146.351 112.217 146.316 117.479 146.196 122.739C146.124 125.918 146.398 129.128 145.536 132.255L145.543 132.265C145.418 132.315 145.423 132.411 145.454 132.516C145.179 133.674 144.712 134.755 144.163 135.806C143.98 136.155 143.667 136.448 143.661 136.88L143.645 136.934C143.507 136.947 143.452 137.019 143.489 137.156L143.505 137.147ZM101.634 66.6157C101.709 66.6255 101.784 66.6353 101.858 66.6451C102.903 66.9018 103.956 66.9127 105.018 66.7779C105.249 66.7486 105.58 66.5877 105.579 67.0553C104.474 67.2717 103.357 67.3412 102.233 67.285C98.8485 67.1159 95.9786 65.8303 93.7282 63.2794C91.3239 60.5539 90.5523 56.7016 92.5735 53.286C92.6438 53.1673 92.7196 53.0588 92.6088 52.9948C88.7338 51.0329 84.6501 50.3219 80.3553 50.8866C76.0984 51.4463 72.2701 53.0031 68.9042 55.7407C70.0379 56.5511 70.9625 57.4769 71.8622 58.4283C72.6766 59.2896 73.4389 60.2039 74.2949 61.0209C75.1512 61.8382 76.0735 62.5915 77.0058 63.3234C78.3124 64.3492 79.4405 65.5689 80.7053 66.6433C81.7171 67.5029 82.8001 68.2476 83.8528 69.0422C84.5262 69.5505 85.1891 70.07 85.9621 70.4211C86.4059 70.6226 86.4897 70.8928 86.3788 71.387C86.0575 72.8179 85.5423 74.1772 84.9671 75.5145C84.7503 76.0186 84.864 76.3385 85.2004 76.732C86.5497 78.3105 87.435 80.1253 87.7797 82.1801C87.8903 82.8395 87.9153 83.5132 87.9906 84.2955C89.3771 83.9856 90.6712 83.5828 91.9394 83.067C92.6951 82.7596 93.0472 82.2707 93.2178 81.45C93.5347 79.9253 94.0217 78.4359 94.4387 76.9319C94.6611 76.1298 95.1418 75.4782 95.9678 75.3815C96.7834 75.286 97.4655 75.7289 97.9089 76.458C98.0125 76.6282 98.0621 76.8227 98.2455 76.954C98.9606 77.4657 99.3499 78.2253 99.7368 78.9816C99.9996 79.4952 100.242 80.0192 100.511 80.5296C100.737 80.9594 101.025 81.3428 101.544 81.4371C102.178 81.5521 102.813 81.7175 103.451 81.7377C105.223 81.7937 106.959 82.081 108.693 82.4185C109.613 82.5977 109.985 83.1526 109.702 84.071C109.614 84.3575 109.43 84.6135 109.307 84.8909C109.206 85.1194 108.92 85.2785 109.028 85.6028C109.986 85.6028 110.937 85.6144 111.887 85.599C112.594 85.5875 112.622 85.5707 112.59 84.8552C112.476 82.3322 113.122 80.0218 114.48 77.9012C115.209 77.0527 115.941 76.2079 116.896 75.5941C119.271 74.0682 121.845 73.2828 124.688 73.4839C124.787 73.4909 124.883 73.4812 124.972 73.3252C124.516 72.6419 124.056 71.924 123.565 71.2276C123.32 70.8803 123.349 70.3977 123.705 70.3913C124.612 70.3748 124.931 69.6696 125.422 69.1453C125.605 68.9492 125.802 68.7537 126.025 68.6087C126.763 68.1299 127.519 67.6786 128.263 67.2087C129.805 66.2342 131.429 65.3672 132.782 64.1289C134.428 62.624 136.117 61.1781 137.863 59.7887C139.198 58.7258 140.41 57.5133 141.547 56.1408C140.966 55.9029 140.441 55.6735 139.906 55.4715C138.291 54.862 136.668 54.2766 134.985 53.8743C133.628 53.4291 132.228 53.154 130.828 52.8947C126.733 52.1365 122.618 51.8142 118.47 52.3992C116.745 52.6424 115.082 53.0918 113.563 53.9739C112.778 54.4293 112.788 54.4407 112.991 55.3251C113.332 56.8149 113.34 58.3029 112.736 59.7208C112.319 60.7017 111.941 61.7385 111.012 62.4052C110.989 62.4219 110.963 62.4792 110.964 62.48C111.076 62.5571 110.825 62.493 110.939 62.4186C112.027 60.5239 112.616 58.9303 112.519 57.4682C112.473 56.7687 112.207 56.1541 112.038 55.5044C111.647 53.9928 110.857 52.6949 109.7 51.6439C106.696 48.9166 103.149 47.9671 99.2225 48.7927C94.9349 49.6941 93.0873 52.4773 92.3829 56.2109C91.8567 59.0004 92.9064 61.4302 94.9514 63.3837C96.6083 64.9663 98.6096 65.9319 100.833 66.4504C101.089 66.5607 101.339 66.6949 101.634 66.6157ZM193.964 100.714L193.952 100.708C193.84 100.497 193.615 100.504 193.429 100.452C190.26 99.559 187.027 99.2017 183.741 99.2872C177.564 99.1026 169.841 100.441 166.042 102.328C166.15 102.4 166.238 102.452 166.319 102.514C170.593 105.771 174.221 109.654 177.322 114.021C180.982 119.176 183.859 124.714 185.298 130.922C186.078 134.289 186.401 137.679 185.781 141.109C185.173 144.477 183.66 147.313 180.816 149.34C179.741 150.105 178.539 150.657 177.436 151.389C175.714 152.531 173.842 153.433 171.934 154.244C169.716 155.186 167.458 155.998 165.092 156.503C164.345 156.662 163.679 156.487 163.005 156.259C162.561 156.11 162.276 155.666 162.425 155.303C162.781 154.442 162.428 153.477 162.907 152.657C162.974 152.542 162.984 152.398 162.886 152.275C162.664 152.22 162.51 152.372 162.336 152.459C153.423 156.929 143.998 158.607 134.093 157.578C129.008 157.049 124.177 155.662 119.754 153.027C118.937 152.54 118.139 152.025 117.406 151.413C117.126 151.179 117.041 150.976 117.269 150.65C117.795 149.899 118.465 149.352 119.388 149.243C121.48 148.996 123.542 148.618 125.554 147.992C125.783 147.92 126.071 147.899 126.188 147.589C126.055 147.568 125.955 147.538 125.855 147.538C121.304 147.514 116.753 147.487 112.202 147.472C109.63 147.463 107.059 147.475 104.488 147.471C100.483 147.464 96.4783 147.463 92.4738 147.439C78.5689 147.358 64.6634 147.491 50.7587 147.329C50.4182 147.325 50.0684 147.295 49.7616 147.473C49.2426 147.773 48.9062 147.547 48.7042 147.085C48.3608 146.299 48.0726 145.499 48.072 144.614C48.0654 135.104 48.0429 125.594 48.0383 116.084C48.0367 112.827 48.0724 109.569 48.0943 106.311C48.0958 106.08 48.0287 105.756 48.2713 105.668C48.6973 105.515 48.6762 105.159 48.7433 104.85C48.8557 104.331 49.1318 103.92 49.4824 103.541C49.9202 103.067 50.3425 102.579 50.7822 102.107C52.4013 100.369 54.0327 98.6427 55.6427 96.8964C56.2894 96.1949 56.2109 95.9733 55.3546 95.6143C51.7597 94.1074 48.0342 93.9415 44.2711 94.6757C39.876 95.5332 35.9135 97.3875 32.435 100.228C29.1401 102.919 26.5783 106.137 25.192 110.219C24.1773 113.207 24.0331 116.187 25.0831 119.191C25.2481 119.663 25.3331 120.152 25.8603 120.44C26.3004 120.68 26.136 121.199 26.0148 121.534C25.8985 121.854 25.4312 122.248 25.1573 122.078C24.4404 121.632 23.6465 121.769 22.9026 121.601C20.0583 120.962 17.196 120.789 14.3245 121.495C11.1702 122.271 8.51151 123.837 6.3846 126.309C4.0999 128.963 2.93134 132.081 2.43196 135.501C1.88734 139.231 2.32544 142.85 3.58487 146.385C3.58572 146.453 3.56818 146.527 3.58995 146.587C5.30318 151.316 7.96763 155.426 11.6376 158.875C15.0786 162.108 18.9897 164.486 23.6502 165.55C26.9296 166.299 30.1675 166.316 33.378 165.253C33.6539 165.162 33.9387 165.081 34.1924 164.869C34.8976 164.28 35.224 164.346 35.6916 165.142C36.7348 166.917 38.2333 168.21 39.9998 169.208C44.3995 171.692 49.2043 173.001 54.1299 173.864C58.9896 174.716 63.901 174.98 68.8312 174.622C71.306 174.443 73.7531 174.07 76.0553 173.091C77.3632 172.536 78.7178 171.976 79.0459 170.334C79.1091 170.018 79.3645 170.021 79.6028 170.018C79.8825 170.014 80.1588 170.044 80.2579 170.371C80.4545 171.018 80.7112 171.656 80.8208 172.319C81.1105 174.07 81.9864 175.476 83.2488 176.667C85.69 178.969 88.6975 180.22 91.8799 180.991C95.7171 181.92 99.6301 182.188 103.59 181.918C108.049 181.615 112.392 180.838 116.57 179.221C119.311 178.16 121.795 176.681 123.992 174.722C124.53 174.243 124.911 173.636 125.412 173.132C125.804 172.737 125.932 172.749 126.267 173.209C127.046 174.277 127.861 175.31 128.801 176.246C130.149 177.587 131.466 178.955 133.101 179.967C135.417 181.4 137.914 182.259 140.638 181.851C143.565 181.414 145.089 179.837 145.395 176.99C145.519 175.834 145.357 174.688 144.981 173.58C144.872 173.259 144.789 172.929 144.662 172.615C144.511 172.241 144.668 172.051 144.995 171.902C145.608 171.621 145.748 171.652 146.213 172.144C146.468 172.414 146.728 172.695 147.034 172.899C147.857 173.446 148.593 174.088 149.275 174.798C150.246 175.809 151.369 176.63 152.589 177.305C155.662 179.005 159.001 179.862 162.469 180.132C166.956 180.481 171.35 179.989 175.522 178.175C177.272 177.414 178.885 176.42 180.214 175.027C180.558 174.665 180.72 174.019 181.239 173.961C181.754 173.903 182.069 174.486 182.491 174.761C184.052 175.779 185.667 176.289 187.455 175.319C187.721 175.175 188.013 175.07 188.302 174.975C190.21 174.345 192.013 173.476 193.705 172.411C198.36 169.479 202.212 165.695 205.365 161.197C208.844 156.234 211.33 150.819 212.708 144.911C213.309 142.332 213.666 139.715 213.717 137.067C213.802 132.61 213.172 128.293 211.087 124.271C209.531 121.27 207.347 118.866 204.369 117.247C203.031 116.519 201.6 115.975 200.055 115.829C199.727 115.649 199.565 115.914 199.376 116.09C199.261 116.197 199.23 116.383 199.018 116.4C198.485 116.443 197.838 115.575 197.949 115.019C198.142 114.056 198.512 113.181 199.115 112.404C199.405 112.234 199.446 111.912 199.576 111.645L199.606 111.585C199.996 111.021 200.21 110.378 200.39 109.73C201.022 107.448 200.665 105.387 199.013 103.606C197.787 102.285 196.302 101.408 194.58 100.909L194.571 100.906C194.415 100.696 194.188 100.711 193.964 100.714ZM101.938 105.182C101.866 105.231 101.862 105.284 101.937 105.326C101.957 105.338 101.994 105.32 102.024 105.316C101.987 105.277 101.951 105.237 101.915 105.198C101.913 105.064 101.931 104.926 101.907 104.796C101.533 102.746 101.736 100.76 102.557 98.84C102.847 98.1606 102.855 98.0583 102.242 97.6935C101.457 97.2271 100.785 96.6189 100.056 96.0844C99.7745 95.8784 99.5616 95.8505 99.2322 95.984C98.4021 96.3202 97.7749 96.9119 97.0884 97.4584C97.3253 97.7366 97.5816 97.8966 97.748 98.1605C98.3089 99.0496 98.8536 99.9471 99.2519 100.922C99.8186 102.308 100.521 103.617 101.443 104.8C101.57 104.964 101.608 105.271 101.938 105.182ZM134.138 36.7075C134.098 36.4987 133.974 36.3446 133.815 36.2127C133.791 36.0457 133.781 35.8754 133.742 35.7119C132.9 32.1706 132.033 28.635 131.22 25.0869C130.898 23.6781 130.533 22.2684 130.509 20.8066C131.18 19.7507 131.645 18.5702 132.459 17.6006C132.648 17.3752 132.643 17.1504 132.558 16.8543C132.344 16.11 132.07 15.3979 131.786 14.677C131.23 13.2639 130.823 11.7894 130.243 10.3808C129.443 8.43982 128.788 6.43808 127.804 4.57484C127.479 3.96113 127.441 3.96401 127.011 4.63006C126.232 5.2612 125.866 6.21726 125.2 6.93568C124.02 8.20984 123.044 9.61623 122.199 11.1396C120.854 13.5655 119.368 15.9132 118.022 18.3386C116.594 20.9119 115.19 23.4978 113.733 26.0563C113.023 27.3032 112.148 28.512 111.905 29.9909C111.882 30.1295 111.838 30.2665 111.692 30.3068C110.698 30.5801 109.779 31.1372 108.668 30.939C107.085 30.657 105.491 30.4388 103.899 30.2093C102.072 29.9459 100.265 30.0756 98.4771 30.5227C97.8741 29.6111 98.5515 28.6997 99.391 28.4221C99.8303 28.2769 100.279 28.1586 100.83 27.9967C100.369 27.653 100.246 27.2135 100.116 26.7578C99.8013 25.6569 99.5193 24.5361 99.0794 23.4838C98.0124 20.9316 97.3823 18.2225 96.2128 15.7088C95.346 13.8457 94.9162 11.8108 93.9932 9.96734C93.1003 7.46829 92.0087 5.0786 90.2262 2.99361C89.9618 3.49661 89.7363 3.91271 89.5225 4.33476C88.6047 6.14666 87.5256 7.87099 86.6642 9.71566C85.8036 11.5584 85.132 13.4763 84.3139 15.3334C83.7553 16.6013 83.1832 17.8636 82.731 19.1719C82.5126 19.8041 82.1261 20.5329 82.3852 21.1309C82.7025 21.8631 82.5137 22.4511 82.3037 23.0784C81.9046 24.2705 81.3028 25.3766 80.7719 26.5126C79.7524 28.694 79.0945 31.017 78.1423 33.2248C77.9604 33.6467 77.8822 34.1039 77.2944 34.2587C76.9651 34.3453 76.7077 34.7177 76.6397 35.1112C76.5864 35.4194 76.4667 35.6912 76.3088 35.9571C75.4812 37.3505 74.977 38.8928 74.3941 40.3874C73.9708 41.4725 73.546 42.5691 73.1656 43.6779C72.3094 46.1735 71.2751 48.6077 70.3404 51.0772C69.9373 52.142 69.5231 53.2086 69.284 54.3513C69.5584 54.3264 69.7047 54.1813 69.8667 54.0676C71.2914 53.0671 72.8305 52.2792 74.4426 51.6326C78.2397 50.1095 82.1633 49.5708 86.2306 50.1178C88.4447 50.4155 90.5329 51.0801 92.4757 52.1809C92.8371 52.3857 93.0567 52.4175 93.2681 51.9868C93.6306 51.2486 94.17 50.6377 94.7847 50.091C95.3452 49.5926 95.9945 49.2221 96.5931 48.8293C95.9264 47.1601 96.2469 45.555 96.7708 43.9665C96.9327 43.4752 97.3597 43.3405 97.8444 43.4067C98.3423 43.4748 98.7449 44.0045 98.7861 44.694C98.8407 45.6081 98.9076 46.5267 98.7608 47.4376C98.6911 47.8705 98.861 47.9932 99.2548 47.9278C99.3889 47.9056 99.525 47.8954 99.6589 47.8725C102.465 47.3925 105.132 47.8244 107.676 49.0836C107.841 49.1653 107.996 49.3634 108.247 49.1941C108.265 48.8404 108.269 48.4671 108.306 48.097C108.396 47.1846 108.498 46.2712 108.891 45.4261C109.105 44.9652 109.469 44.6157 109.986 44.6391C110.535 44.664 110.716 45.1856 110.923 45.6015C111.044 45.8453 111.014 46.1311 110.976 46.4044C110.889 47.0435 110.799 47.6826 110.726 48.3235C110.637 49.1191 110.466 49.8636 109.491 50.2634C110.8 51.2449 111.703 52.4075 112.435 53.7335C114.95 52.0464 117.692 51.5288 120.538 51.3457C123.952 51.1261 127.325 51.4433 130.673 52.0822C132.172 52.3681 133.659 52.7085 135.152 53.0242C135.27 53.0834 135.383 53.1628 135.509 53.1989C137.464 53.7617 139.395 54.3947 141.274 55.1775C141.397 55.2289 141.533 55.2645 141.663 55.075C141.574 54.7215 141.5 54.3244 141.372 53.9456C140.962 52.7302 140.441 51.5443 140.129 50.3052C139.63 48.3274 138.832 46.4523 138.04 44.6051C136.951 42.0627 136.451 39.3783 135.656 36.768C135.592 36.5582 135.701 36.2845 135.367 36.1515C134.986 36.3579 134.79 37.0542 134.147 36.7199L134.138 36.7075ZM135.509 24.9947C135.362 24.9084 135.248 24.8354 135.284 24.609C135.373 24.037 135.526 23.486 135.713 22.9403C136.118 21.7565 136.663 20.613 136.876 19.3729C137.049 18.3612 137.39 17.3482 137.059 16.3022C136.967 16.0562 136.802 15.8625 136.53 15.9661C136.191 16.0954 135.814 16.1077 135.52 16.3982C134.773 17.1361 133.956 17.8049 133.229 18.5611C132.6 19.2148 131.992 19.8949 131.556 20.7127C131.213 21.3561 130.847 21.9439 131.446 22.6473C131.607 22.836 131.625 23.1529 131.689 23.416C132.41 26.4091 133.127 29.4032 133.846 32.397C134.093 33.3506 134.203 34.343 134.582 35.3517C135.195 34.38 135.519 33.4274 135.911 32.4986C136.429 31.2736 137.167 30.1576 137.525 28.8401C137.865 27.5906 138.103 26.3607 137.968 25.0701C137.847 24.244 137.459 23.9771 136.719 24.318C136.305 24.5085 135.851 24.6619 135.509 24.9947ZM126.423 93.7887L126.412 93.7942C128.79 93.8135 131.053 93.2601 133.236 92.3686C134.212 91.97 135.052 91.3759 135.825 90.6175C137.041 89.4235 138.035 88.0478 139.191 86.8078C140.049 85.8877 139.999 84.7413 139.814 83.5818C139.648 82.5433 138.967 81.7646 138.528 80.8638C138.201 80.1915 137.647 79.7556 137.064 79.3565C136.843 79.2054 136.619 79.0531 136.397 78.9005C134.971 77.9207 133.576 76.8824 131.808 76.5695C131.577 76.5285 131.344 76.4521 131.132 76.3501C130.023 75.8174 128.834 75.5619 127.643 75.3117C125.874 74.8609 124.075 74.8288 122.284 75.0528C119.968 75.3424 117.891 76.1771 116.3 77.9857C114.661 79.8485 114.065 82.0496 114.123 84.4768C114.149 85.5655 114.321 86.633 114.515 87.7022C114.709 88.7703 115.277 89.7555 115.211 90.8811C115.206 90.964 115.304 91.0585 115.365 91.1389C115.933 91.884 116.664 92.3873 117.661 92.7364C117.513 91.4736 117.636 90.3327 117.689 89.1912C117.754 87.7663 118.406 86.5212 119.043 85.2834C119.169 85.0374 119.369 84.8009 119.689 84.9934C119.932 85.1395 120.07 85.348 119.93 85.6774C119.718 86.1753 119.587 86.7084 119.361 87.199C118.699 88.6354 118.85 90.1869 118.697 91.6935C118.663 92.0194 118.796 92.3607 118.84 92.6964C118.884 93.0308 119.029 93.2502 119.382 93.3414C120.737 93.6913 122.12 93.8359 123.509 93.941C123.873 93.9686 124.03 93.7671 123.899 93.4386C123.727 93.0093 123.722 92.5717 123.786 92.1396C123.919 91.2347 124.073 90.3314 124.26 89.4363C124.42 88.6742 124.6 87.9126 124.985 87.2194C125.109 86.995 125.246 86.8227 125.534 86.868C125.85 86.9176 125.835 87.194 125.905 87.4093C125.961 87.581 125.871 87.7343 125.837 87.898C125.553 89.2582 125.26 90.6173 125.026 91.9863C124.925 92.5732 124.789 93.1813 124.998 93.7826C125.472 94.1378 125.947 94.0017 126.423 93.7887ZM80.0825 89.081C80.1297 88.0957 79.9594 87.1343 79.7663 86.1748C79.6999 85.8449 79.6189 85.5133 79.6019 85.1796C79.5912 84.9674 79.5594 84.6684 79.8882 84.6201C80.1302 84.5846 80.2297 84.7808 80.328 84.9641C80.7473 85.7457 80.9801 86.5858 81.1237 87.4547C81.291 88.9828 81.375 90.5103 80.8913 92.228C83.5891 90.7552 85.3724 88.8579 85.9853 86.0607C86.7556 82.5459 85.6596 79.509 83.3764 76.8466C82.8886 76.2779 82.213 75.8931 81.4542 75.7728C80.5902 75.6359 79.7151 75.5691 78.8449 75.4718C78.5842 75.4008 78.3274 75.2921 78.0623 75.2647C75.4015 74.9903 72.7877 75.1369 70.2944 76.218C66.582 77.8277 63.9738 80.3672 63.4364 84.5638C63.2597 85.9437 63.3456 87.2427 64.4495 88.3926C65.8085 89.8081 67.2691 91.0416 69.0321 91.8815C70.0558 92.3691 71.1045 92.8489 72.2861 92.9687C72.2628 92.0916 72.2597 91.2807 72.0757 90.4896C71.8054 89.3267 71.7885 88.1395 71.6918 86.9593C71.6675 86.6633 71.684 86.3714 72.0058 86.3054C72.3519 86.2345 72.5859 86.4836 72.6907 86.7882C72.7774 87.0401 72.8277 87.3188 72.825 87.585C72.8077 89.2865 73.4101 90.9261 73.3199 92.6347C73.3099 92.8245 73.295 93.0488 73.504 93.1801C75.5524 93.647 77.5392 93.2841 79.5127 92.7366C79.7335 92.6753 79.86 92.5462 79.8727 92.3093C79.9304 91.2325 80.2965 90.1756 80.0825 89.081ZM132.742 144.718C135.907 142.922 138.614 140.58 140.943 137.798C143.228 135.066 144.579 132.045 144.389 128.347C144.259 125.821 144.391 123.271 144.482 120.731C144.618 116.973 144.553 113.209 144.693 109.449C144.773 107.28 144.753 105.107 144.79 102.936C144.86 98.7649 144.94 94.5937 145.012 90.4224C145.018 90.0863 145.074 89.7362 144.912 89.3502C144.299 90.2503 143.743 91.0602 143.193 91.8747C140.178 96.3463 137.165 100.82 134.147 105.29C133.974 105.546 133.768 105.793 133.803 106.115C133.854 106.599 133.584 106.772 133.182 106.887C132.995 106.94 132.831 107.075 132.656 107.173L132.374 107.207C132.054 106.933 131.666 107.032 131.305 107.032C125.277 107.022 119.25 107.018 113.222 107.017C112.038 107.017 110.854 107.034 109.67 107.043C108.856 107.022 108.042 106.986 107.228 106.98C100.877 106.934 94.5259 106.873 88.1747 106.857C76.1465 106.825 64.1185 106.761 52.0912 106.605C51.2489 106.594 50.4063 106.604 49.5376 106.604C49.5671 107.26 49.6122 107.832 49.6158 108.405C49.6529 114.377 49.6893 120.349 49.7139 126.321C49.7376 132.081 49.7444 137.841 49.7655 143.601C49.7687 144.463 49.6677 145.338 49.9845 146.227C50.7158 145.972 51.4614 145.975 52.2068 145.973C61.0921 145.943 69.977 145.832 78.8629 145.885C84.182 145.916 89.5015 145.87 94.8209 145.852C101.846 145.829 108.871 145.796 115.896 145.774C120.584 145.759 125.272 145.731 129.96 145.76C131.057 145.767 131.901 145.294 132.742 144.718ZM92.8379 98.3163C92.9112 98.34 92.9845 98.3636 93.0578 98.3873C93.5197 98.0589 93.9488 97.6632 94.4514 97.4182C95.1493 97.0781 95.5113 96.3609 96.1726 96.0117C96.8734 95.6415 97.4747 95.147 97.9972 94.572C98.5006 94.0181 98.4273 93.9109 99.2472 94.4264C100.887 95.4574 102.593 96.3644 104.302 97.2709C104.695 97.4792 105.059 97.5976 105.44 97.3343C105.829 97.066 105.805 96.6797 105.753 96.2424C105.572 94.7229 105.027 93.2879 104.766 91.7883C104.691 91.3557 104.641 90.8781 104.419 90.5211C104.091 89.9947 104.208 89.5761 104.462 89.1041C104.672 88.7141 104.909 88.355 105.2 88.0153C106.083 86.9853 106.936 85.9298 107.793 84.8776C107.942 84.6948 108.067 84.4882 108.174 84.2776C108.336 83.9584 108.336 83.6951 107.895 83.5992C107.233 83.4553 106.578 83.2826 105.916 83.1364C104.547 82.8338 103.143 82.9395 101.758 82.8192C100.999 82.7533 100.483 82.4476 100.116 81.8118C99.709 81.1066 99.2999 80.4023 98.8747 79.7081C98.256 78.6981 97.5754 77.7305 96.805 76.8291C96.3782 76.3297 96.0154 76.3309 95.6618 76.8283C95.5646 76.9648 95.4631 77.1174 95.4291 77.2766C95.0401 79.0961 94.3413 80.8406 94.1101 82.6974C94.0606 83.0955 93.8753 83.3178 93.5114 83.5399C92.1313 84.382 90.5837 84.7741 89.0686 85.222C88.2609 85.4608 87.8854 85.8794 87.7167 86.6471C87.5563 87.3767 87.5264 87.3643 88.2054 87.7104C88.4154 87.8175 88.6078 87.9595 88.8056 88.0894C90.0892 88.9322 91.0207 90.1902 92.2961 91.0449C92.4884 91.1738 92.6821 91.363 92.6379 91.6327C92.5095 92.4166 92.733 93.1809 92.7572 93.957C92.8025 95.4085 92.9849 96.8553 92.8379 98.3163ZM96.1704 98.2378C95.747 98.3449 95.4921 98.631 95.1924 98.8419C94.5233 99.3127 93.8192 99.717 93.0444 99.985C92.4063 100.206 92.2143 100.07 91.8293 99.4926C91.2647 98.6458 91.2568 97.7118 91.2608 96.764C91.2666 95.3388 91.2693 93.9134 91.3008 92.4887C91.3084 92.145 91.1802 91.9257 90.8696 91.944C90.1738 91.9849 89.4836 91.8917 88.795 92.2495C86.3005 93.5458 83.7398 94.704 81.1212 95.735C79.0142 96.5646 76.9268 97.4436 74.7818 98.3207C75.3039 99.4397 75.7953 100.511 76.3035 101.575C76.6091 102.215 76.902 102.857 77.2806 103.465C77.6602 104.075 78.4354 104.318 78.6601 105.059C78.7199 105.257 78.9745 105.295 79.1852 105.306C79.5237 105.323 79.8621 105.355 80.2007 105.357C86.6128 105.397 93.0249 105.436 99.437 105.467C99.6877 105.469 99.9645 105.545 100.265 105.313C99.1567 103.987 98.4605 102.456 97.7728 100.915C97.3466 99.9602 96.7884 99.0742 96.1704 98.2378ZM114.642 105.51C114.579 105.01 114.484 104.493 114.484 103.946C114.485 102.898 114.467 101.829 114.266 100.806C114.031 99.6173 114.126 98.45 114.169 97.2699C114.176 97.062 114.188 96.7701 114.399 96.7559C115.005 96.7151 115.393 96.1611 116.059 96.2037C117.757 96.3125 119.342 96.6246 120.566 97.9374C120.748 98.1322 120.97 98.3178 121.211 98.4235C122.571 99.021 123.712 99.9063 124.695 101.005C124.821 101.146 124.937 101.243 125.113 101.102C125.244 100.997 125.394 100.885 125.32 100.686C124.75 99.1506 124.497 97.4637 123.164 96.2951C122.499 95.712 121.88 95.2009 120.886 95.1283C119.752 95.0453 118.599 94.7726 117.56 94.2485C116.405 93.6662 115.237 93.1969 113.918 93.1398C113.53 93.123 113.148 92.933 112.73 92.9458C110.809 93.0048 109.094 93.6306 107.53 94.7332C107.064 95.062 106.895 95.402 106.979 96.0022C107.094 96.8321 107.128 97.6865 106.989 98.529C106.916 98.9707 106.77 99.2362 106.206 99.2321C105.386 99.2262 104.588 99.2518 103.906 98.705C102.995 100.546 102.959 102.43 103.15 104.204C103.261 105.239 103.602 105.501 104.69 105.505C107.984 105.517 111.279 105.51 114.642 105.51ZM50.0558 105.191C50.9739 105.191 51.6774 105.19 52.3809 105.191C54.3866 105.194 56.3923 105.202 58.3979 105.191C58.5955 105.19 58.9118 105.363 58.984 105.011C59.1126 104.384 59.5589 103.948 59.898 103.457C61.2059 101.563 62.4413 99.6111 64.0958 97.9806C64.2874 97.7919 64.4564 97.5742 64.6055 97.3497C65.3248 96.2665 66.2482 95.5092 67.5963 95.3611C68.2336 95.291 68.8659 95.1702 69.4972 95.0547C69.8292 94.994 70.1531 94.891 70.4826 94.815C70.8167 94.7379 71.161 94.6903 71.6442 94.4147C68.7527 93.6428 66.3873 92.3097 64.3123 90.2756C59.742 95.3751 54.9914 100.206 50.0558 105.191ZM60.361 105.23H76.9335C75.3167 103.256 74.5836 100.939 73.4323 98.8436C73.3083 98.618 73.2356 98.3718 73.397 98.1751C73.8362 97.6397 74.1738 96.9993 74.9804 96.8613C75.5318 96.7669 76.0528 96.5185 76.645 96.1164C75.5065 95.7678 74.4544 95.7904 73.4422 95.5917C73.2346 95.5509 73.0579 95.7077 72.8673 95.7544C71.7192 96.0354 70.6096 96.4912 69.4296 96.6143C68.6147 96.6993 67.8239 96.8833 67.0254 97.0356C66.3272 97.1689 65.7271 97.4536 65.4212 98.1802C65.3071 98.4513 65.0836 98.6899 64.8699 98.9035C63.4961 100.277 62.42 101.882 61.2767 103.437C60.9084 103.938 60.6842 104.485 60.361 105.23ZM115.392 97.2899C115.611 98.2664 115.401 99.1128 115.576 99.9384C115.892 101.439 115.967 102.956 115.96 104.484C115.956 105.557 116.035 105.602 117.131 105.615C121.027 105.662 124.924 105.713 128.82 105.763C129.702 105.774 130.584 105.796 131.466 105.801C131.694 105.802 131.988 105.849 132.083 105.566C132.408 104.609 133.203 103.971 133.71 103.136C134.111 102.475 134.532 101.897 134 101.116C133.9 100.97 133.953 100.72 133.932 100.518C133.864 99.8466 133.795 99.1759 133.716 98.405C132.453 98.7968 131.195 99.0748 130.034 99.5769C128.64 100.179 127.277 100.885 126.112 101.902C125.807 102.168 125.485 102.411 125.192 102.696C124.777 103.102 124.515 103.001 124.267 102.458C124.045 101.971 123.723 101.548 123.263 101.259C122.348 100.685 121.51 99.981 120.482 99.5974C120.022 99.4256 119.654 99.1231 119.355 98.755C118.946 98.2522 118.432 98.0084 117.802 97.9169C117.037 97.8057 116.279 97.6502 115.392 97.2899ZM144.371 87.2789C143.532 87.2789 142.865 87.2885 142.199 87.2768C141.083 87.2572 140.231 87.8918 139.44 88.5191C138.788 89.0364 138.35 89.8134 137.753 90.411C136.757 91.4069 136.023 92.6321 134.802 93.4505C134.282 93.7995 133.76 93.7137 133.263 93.9382C131.711 94.6399 130.053 95.0007 128.367 95.2477C126.968 95.4527 125.558 95.4371 123.915 95.4774C125.494 96.732 125.954 98.3738 126.357 100.17C127.314 99.341 128.376 98.9659 129.362 98.4536C130.567 97.8279 131.929 97.6396 133.221 97.2581C133.531 97.1664 133.894 97.2597 134.233 97.2533C134.565 97.2469 134.684 97.4041 134.761 97.7257C134.977 98.632 135.144 99.5464 135.319 100.505C138.378 96.1679 141.237 91.7262 144.371 87.2789ZM114.313 91.8003C114.027 91.1982 114.233 90.6399 113.981 90.2831C113.31 89.3331 113.107 88.2526 112.91 87.1626C112.826 86.7008 112.601 86.5469 112.151 86.5612C110.899 86.6011 109.645 86.6268 108.392 86.6302C108.043 86.6312 107.848 86.7861 107.637 87.0343C106.89 87.9174 106.446 89 105.721 89.8965C105.556 90.1009 105.603 90.3419 105.677 90.571C106.014 91.6063 106.354 92.6407 106.709 93.7257C107.875 93.0864 108.935 92.3334 110.205 92.0558C111.489 91.7752 112.789 91.624 114.313 91.8003ZM78.4246 16.1742C77.9749 16.7449 77.6496 17.2125 77.6761 17.8316C77.7391 19.3078 77.6592 20.7961 78.0702 22.2423C78.2827 22.9899 78.4233 23.7629 78.6962 24.4868C78.9079 25.0483 78.8078 25.3938 78.3648 25.7832C77.8923 26.1984 77.8403 26.2433 77.2932 25.8718C76.7783 25.5221 76.245 25.1995 75.6997 24.8522C74.8966 28.3367 76.2957 31.2855 77.5165 32.279C78.0076 30.9501 78.4995 29.619 78.9913 28.2879C79.6844 26.4116 80.637 24.6503 81.4222 22.8152C81.8714 21.7653 81.7848 21.8106 80.991 20.9224C80.2679 20.1133 79.4655 19.3227 79.2278 18.1725C79.0925 17.518 78.7858 16.9161 78.4246 16.1742ZM86.8297 88.5043C84.6785 92.3401 81.2493 94.111 76.9684 94.865C77.8944 95.128 78.5682 95.4015 79.3958 95.0728C82.1401 93.9832 84.8439 92.8061 87.5117 91.5443C88.0671 91.2815 88.5762 90.9466 88.928 90.404C88.3805 89.6577 87.6691 89.0865 86.8297 88.5043Z" fill="#090707"/>
<path d="M3.58494 146.385C2.32555 142.85 1.88746 139.231 2.43208 135.501C2.93146 132.081 4.10002 128.963 6.38472 126.309C8.51163 123.837 11.1703 122.271 14.3246 121.495C17.1961 120.789 20.0584 120.962 22.9027 121.601C23.6466 121.769 24.4406 121.632 25.1575 122.078C25.4313 122.248 25.8986 121.854 26.0149 121.534C26.1361 121.199 26.3006 120.68 25.8604 120.44C25.3332 120.152 25.2482 119.663 25.0832 119.191C24.0332 116.187 24.1774 113.207 25.1921 110.219C26.5784 106.137 29.1402 102.919 32.4352 100.228C35.9136 97.3875 39.8761 95.5332 44.2712 94.6757C48.0343 93.9415 51.7599 94.1073 55.3547 95.6143C56.211 95.9733 56.2896 96.1949 55.6428 96.8963C54.0328 98.6426 52.4014 100.369 50.7823 102.107C50.3426 102.579 49.9203 103.067 49.4825 103.541C49.1319 103.92 48.8558 104.331 48.7434 104.85C48.6763 105.159 48.6974 105.515 48.2714 105.668C48.0288 105.756 48.096 106.08 48.0944 106.311C48.0725 109.569 48.0369 112.826 48.0385 116.084C48.043 125.594 48.0656 135.104 48.0721 144.614C48.0727 145.499 48.3609 146.299 48.7043 147.085C48.9063 147.547 49.2427 147.773 49.7617 147.473C50.0685 147.295 50.4183 147.325 50.7588 147.329C64.6635 147.491 78.569 147.358 92.4739 147.439C96.4784 147.463 100.483 147.464 104.488 147.471C107.059 147.475 109.631 147.463 112.202 147.472C116.753 147.487 121.304 147.514 125.855 147.538C125.955 147.538 126.055 147.568 126.188 147.589C126.071 147.899 125.783 147.92 125.554 147.992C123.542 148.618 121.48 148.996 119.388 149.243C118.465 149.352 117.795 149.899 117.269 150.65C117.041 150.976 117.126 151.179 117.406 151.413C118.14 152.025 118.937 152.54 119.754 153.027C124.178 155.662 129.008 157.049 134.093 157.578C143.998 158.607 153.423 156.929 162.336 152.459C162.51 152.372 162.664 152.22 162.887 152.276C162.984 152.398 162.974 152.542 162.907 152.657C162.428 153.477 162.781 154.442 162.426 155.303C162.276 155.666 162.561 156.11 163.005 156.259C163.679 156.487 164.346 156.662 165.092 156.503C167.458 155.998 169.716 155.186 171.934 154.244C173.842 153.433 175.715 152.531 177.436 151.389C178.539 150.657 179.741 150.105 180.816 149.34C183.661 147.313 185.173 144.477 185.781 141.109C186.401 137.679 186.078 134.289 185.298 130.922C183.859 124.714 180.982 119.176 177.322 114.021C174.221 109.654 170.593 105.771 166.319 102.514C166.238 102.452 166.15 102.4 166.042 102.328C169.841 100.441 177.564 99.1026 183.741 99.2871C183.916 99.4932 184.156 99.477 184.393 99.485C185.598 99.5258 186.83 99.3193 187.981 99.8737C188.064 99.9141 188.181 99.8886 188.282 99.8909C189.836 99.9248 191.36 100.166 192.854 100.585C193.221 100.688 193.579 100.73 193.952 100.708C193.952 100.708 193.964 100.714 193.964 100.714C194.108 100.961 194.338 100.939 194.571 100.906C194.571 100.906 194.58 100.909 194.58 100.909C194.549 101.264 194.827 101.435 195.018 101.666C195.724 102.522 196.735 102.953 197.622 103.556C198.7 104.29 199.511 105.268 199.634 106.571C199.761 107.908 199.669 109.267 199.644 110.615C199.638 110.937 199.381 111.25 199.607 111.585C199.607 111.585 199.576 111.645 199.576 111.645C199.103 111.704 199.103 112.051 199.115 112.404C198.512 113.181 198.143 114.056 197.949 115.019C197.838 115.575 198.485 116.443 199.018 116.4C199.23 116.383 199.261 116.197 199.377 116.09C199.565 115.915 199.727 115.649 200.055 115.829C200.885 116.918 201.978 117.759 203.113 118.432C204.384 119.185 205.108 120.402 206.136 121.347C206.782 121.941 207.081 122.826 207.437 123.614C208.48 125.92 209.702 128.155 210.373 130.618C210.417 130.778 210.49 130.962 210.61 131.064C211.299 131.65 211.206 132.441 211.039 133.143C210.768 134.278 210.662 135.408 210.693 136.564C210.718 137.503 210.485 138.371 209.9 139.124C209.771 139.291 209.691 139.464 209.676 139.678C209.55 141.554 209.042 143.328 208.263 145.037C208.125 145.34 207.912 145.597 207.83 145.945C207.499 147.355 207.076 148.724 206.475 150.065C205.688 151.825 204.604 153.356 203.37 154.782C202.322 155.992 201.377 157.252 200.574 158.634C199.436 160.59 198.341 162.59 196.452 163.967C195.389 164.742 194.563 165.792 193.346 166.406C192.697 166.733 192.035 167.119 191.451 167.572C190.028 168.674 188.508 169.608 186.853 170.299C184.991 171.076 183.132 171.372 181.176 170.42C180.3 169.994 179.274 170.021 178.41 170.768C177.405 171.636 176.269 172.316 175.05 172.85C173.373 173.583 171.715 174.366 170.01 175.029C168.853 175.479 167.66 175.778 166.363 175.773C164.698 175.766 163.054 175.508 161.39 175.505C160.773 175.503 160.141 175.291 159.526 175.075C158.181 174.604 156.895 173.984 155.549 173.531C153.507 172.844 151.728 171.822 150.487 170.012C150.265 169.688 150.021 169.478 149.609 169.399C148.274 169.144 147.185 168.429 146.259 167.458C146.101 167.292 146.033 166.985 145.741 167.056C145.422 167.134 145.21 167.388 145.204 167.721C145.197 168.148 145.034 168.509 144.847 168.873C144.583 169.385 144.377 169.894 144.331 170.5C144.28 171.165 144.094 171.849 143.673 172.401C142.677 173.703 141.596 174.898 139.917 175.357C139.302 175.526 138.739 176.015 138.091 175.918C136.963 175.75 135.802 175.776 134.713 175.317C133.561 174.831 132.344 174.529 131.11 174.32C130.003 174.133 129.11 173.656 128.443 172.701C127.885 171.902 127.368 170.986 126.494 170.527C125.828 170.178 125.219 169.771 124.64 169.32C124.208 168.983 123.873 168.971 123.483 169.338C123.312 169.498 123.094 169.607 122.911 169.756C121.83 170.635 120.713 171.456 119.414 171.995C118.944 172.189 118.482 172.401 118.011 172.592C116.257 173.303 114.567 174.147 112.697 174.6C111.451 174.902 110.191 175.15 108.945 175.454C107.172 175.886 105.373 176.221 103.528 176.148C103.326 176.14 103.107 176.128 102.921 176.192C101.901 176.54 100.818 176.178 99.7969 176.482C98.0189 176.087 96.1615 176.167 94.4137 175.581C94.063 175.463 93.6923 175.38 93.3245 175.343C92.2419 175.233 91.2149 174.979 90.2057 174.539C88.8254 173.938 87.5915 173.131 86.4375 172.19C84.8906 170.93 84.502 169.062 83.9749 167.289C83.5814 165.965 83.3822 164.595 83.1946 163.223C83.0854 162.425 82.8059 162.305 82.1025 162.616C80.3448 163.392 78.6293 164.233 76.7686 164.799C75.0296 165.328 73.4154 166.257 71.7237 166.955C70.4774 167.469 69.2461 168.007 67.888 168.251C66.691 168.465 65.4638 168.489 64.292 168.823C63.7593 168.975 63.2293 169.009 62.6846 169.014C60.3799 169.034 58.0909 168.749 55.7969 168.663C54.3155 168.607 53.01 168.246 51.7324 167.608C50.4128 166.949 48.8995 166.824 47.637 165.923C46.9912 165.461 46.2489 165.121 45.6928 164.517C45.4162 164.216 45.0744 164.028 44.7082 163.832C43.664 163.275 42.7011 162.578 41.7777 161.833C41.2772 161.429 40.7041 161.095 40.3277 160.566C39.5066 159.41 38.4205 158.47 37.6713 157.19C37.1493 157.508 36.6689 157.815 36.1751 158.099C35.4374 158.523 34.7013 158.91 33.7869 158.828C33.045 158.761 32.245 158.658 31.5542 158.858C30.374 159.2 29.251 158.869 28.1328 158.756C26.1234 158.553 24.1282 158.169 22.1434 157.777C20.3557 157.424 18.5555 157.069 16.8227 156.52C14.3415 155.734 12.1828 154.332 10.2688 152.567C10.0204 152.338 9.76292 152.111 9.63239 151.782C9.46528 151.36 9.15683 151.047 8.84124 150.734C7.90282 149.802 6.88762 148.959 5.85971 148.131C5.57915 147.905 5.37991 147.659 5.38928 147.28C5.39755 146.943 5.21101 146.736 4.88766 146.804C4.35619 146.915 4.00699 146.557 3.58494 146.385Z" fill="#FEFFFF"/>
<path d="M132.374 107.207C132.468 107.196 132.562 107.184 132.656 107.173C133.018 107.399 132.901 107.766 132.933 108.093C133.052 109.317 132.743 110.517 132.745 111.736C132.754 117.572 132.75 123.409 132.748 129.245C132.747 134.403 132.744 139.56 132.742 144.718C131.901 145.294 131.057 145.767 129.96 145.76C125.272 145.731 120.584 145.759 115.896 145.774C108.871 145.796 101.846 145.829 94.8209 145.852C89.5016 145.87 84.182 145.916 78.8629 145.885C69.977 145.832 61.0921 145.943 52.2068 145.973C51.4614 145.975 50.7158 145.972 49.9846 146.227C49.6677 145.338 49.7687 144.463 49.7655 143.601C49.7445 137.841 49.7376 132.081 49.7139 126.321C49.6894 120.349 49.6529 114.377 49.6158 108.405C49.6122 107.832 49.5671 107.26 49.5376 106.604C50.4063 106.604 51.2489 106.594 52.0912 106.605C64.1186 106.761 76.1465 106.825 88.1747 106.857C94.5259 106.873 100.877 106.934 107.228 106.98C108.042 106.986 108.856 107.022 109.67 107.043C110.001 107.301 110.39 107.197 110.754 107.198C113.509 107.208 116.263 107.206 119.018 107.207C123.47 107.208 127.922 107.207 132.374 107.207Z" fill="#DED9FE"/>
<path d="M98.4773 30.5227C100.265 30.0756 102.072 29.9459 103.899 30.2093C105.491 30.4388 107.085 30.657 108.668 30.939C109.78 31.1372 110.698 30.5801 111.692 30.3068C111.839 30.2665 111.882 30.1295 111.905 29.9909C112.148 28.512 113.024 27.3032 113.733 26.0563C115.19 23.4978 116.594 20.9119 118.022 18.3385C119.368 15.9132 120.854 13.5655 122.199 11.1396C123.044 9.61621 124.02 8.20983 125.201 6.93567C125.866 6.21724 126.232 5.26119 127.012 4.63012C127.126 4.87477 127.274 5.10952 127.35 5.36542C128.171 8.10291 129.177 10.7774 129.744 13.6009C130.224 15.9929 130.387 18.391 130.509 20.8066C130.533 22.2684 130.898 23.6781 131.221 25.0869C132.033 28.635 132.9 32.1706 133.742 35.7119C133.781 35.8754 133.792 36.0456 133.815 36.2126C133.745 36.4934 133.841 36.666 134.138 36.7075C134.138 36.7075 134.147 36.7199 134.147 36.7199C134.319 37.8719 134.943 38.9391 134.792 40.1523C134.784 40.2178 134.8 40.2879 134.813 40.3543C135.21 42.371 135.805 44.3388 135.883 46.4317C135.921 47.4718 136.036 48.528 135.982 49.5665C135.927 50.6154 135.909 51.7146 135.214 52.626C135.142 52.72 135.17 52.8896 135.152 53.0241C133.659 52.7085 132.172 52.3681 130.674 52.0822C127.325 51.4433 123.953 51.1261 120.538 51.3457C117.692 51.5288 114.95 52.0463 112.435 53.7334C111.704 52.4075 110.8 51.2449 109.491 50.2634C110.466 49.8636 110.637 49.119 110.727 48.3235C110.799 47.6825 110.889 47.0435 110.977 46.4044C111.014 46.1311 111.044 45.8453 110.923 45.6015C110.716 45.1856 110.536 44.664 109.986 44.6391C109.469 44.6157 109.105 44.9652 108.891 45.4261C108.499 46.2712 108.397 47.1846 108.306 48.097C108.27 48.4671 108.265 48.8404 108.247 49.1941C107.996 49.3633 107.841 49.1653 107.676 49.0836C105.132 47.8244 102.465 47.3924 99.6591 47.8725C99.5252 47.8954 99.3891 47.9056 99.2551 47.9278C98.8613 47.9932 98.6914 47.8704 98.7611 47.4376C98.9079 46.5267 98.8409 45.6081 98.7863 44.694C98.7451 44.0045 98.3425 43.4748 97.8447 43.4067C97.3599 43.3405 96.933 43.4752 96.771 43.9664C96.2471 45.555 95.9267 47.1601 96.5933 48.8293C95.9947 49.222 95.3454 49.5926 94.785 50.091C94.1702 50.6377 93.6308 51.2486 93.2683 51.9867C93.0569 52.4174 92.8373 52.3856 92.476 52.1809C90.5331 51.0801 88.445 50.4155 86.2309 50.1178C82.1636 49.5708 78.2399 50.1095 74.4428 51.6325C72.8307 52.2792 71.2916 53.0671 69.8669 54.0676C69.7049 54.1813 69.5586 54.3263 69.2842 54.3512C69.5233 53.2086 69.9376 52.142 70.3406 51.0771C71.2753 48.6077 72.3096 46.1735 73.1659 43.6779C73.5463 42.5691 73.9711 41.4725 74.3943 40.3874C74.9772 38.8928 75.4814 37.3505 76.309 35.957C76.4669 35.6912 76.5866 35.4194 76.6399 35.1112C76.7079 34.7176 76.9653 34.3453 77.2946 34.2586C77.8824 34.1039 77.9606 33.6467 78.1426 33.2248C79.0947 31.017 79.7527 28.694 80.7721 26.5126C81.303 25.3766 81.9049 24.2705 82.304 23.0784C82.514 22.4511 82.7027 21.8631 82.3855 21.1309C82.1263 20.5328 82.5128 19.8041 82.7312 19.1719C83.1834 17.8635 83.7556 16.6013 84.3141 15.3334C85.1322 13.4762 85.8038 11.5584 86.6644 9.71564C87.5258 7.87097 88.605 6.14664 89.5228 4.33474C89.7365 3.91269 89.9621 3.49659 90.2264 2.99359C92.009 5.07858 93.1005 7.46827 93.9933 9.96705C93.7164 12.3264 94.4218 14.5915 94.6918 16.8963C94.8721 18.435 95.0401 19.9756 95.1619 21.5175C95.2577 22.7314 95.2458 23.9632 95.1633 25.1791C95.077 26.4498 94.9713 27.7304 94.4934 28.943C94.3303 29.3568 93.8869 29.9193 94.8165 30.0481C94.8637 30.0547 94.931 30.1437 94.9351 30.1983C94.9855 30.8684 95.4805 30.7657 95.914 30.7672C96.5253 30.7693 97.1366 30.7698 97.7479 30.7664C98.016 30.765 98.3012 30.8036 98.4773 30.5227Z" fill="#FEA849"/>
<path d="M3.58497 146.385C4.00697 146.557 4.35614 146.915 4.8876 146.804C5.21095 146.736 5.39749 146.943 5.38922 147.28C5.37985 147.659 5.5791 147.905 5.85965 148.131C6.88756 148.959 7.90276 149.802 8.84118 150.734C9.15676 151.047 9.46522 151.36 9.63233 151.782C9.76287 152.111 10.0203 152.338 10.2687 152.567C12.1828 154.332 14.3415 155.734 16.8226 156.52C18.5554 157.069 20.3556 157.424 22.1433 157.777C24.1281 158.169 26.1234 158.553 28.1327 158.756C29.2509 158.869 30.3739 159.2 31.5542 158.858C32.245 158.658 33.0449 158.761 33.7868 158.828C34.7013 158.91 35.4373 158.523 36.175 158.099C36.6688 157.815 37.1493 157.508 37.6712 157.19C38.4205 158.47 39.5065 159.41 40.3277 160.566C40.704 161.095 41.2772 161.429 41.7776 161.833C42.701 162.578 43.664 163.275 44.7082 163.832C45.0743 164.028 45.4161 164.216 45.6928 164.517C46.2488 165.121 46.9912 165.461 47.6369 165.923C48.8994 166.824 50.4128 166.949 51.7323 167.608C53.0099 168.246 54.3155 168.607 55.7968 168.663C58.0908 168.749 60.3799 169.034 62.6845 169.014C63.2292 169.009 63.7593 168.975 64.2919 168.823C65.4637 168.489 66.6909 168.465 67.8879 168.251C69.246 168.007 70.4773 167.469 71.7236 166.955C73.4153 166.257 75.0295 165.328 76.7686 164.799C78.6292 164.233 80.3447 163.392 82.1024 162.616C82.8059 162.305 83.0853 162.425 83.1945 163.223C83.3822 164.595 83.5814 165.965 83.9749 167.289C84.5019 169.062 84.8906 170.93 86.4375 172.19C87.5915 173.131 88.8253 173.938 90.2057 174.539C91.2149 174.979 92.2418 175.233 93.3245 175.343C93.6923 175.38 94.0629 175.463 94.4136 175.581C96.1614 176.167 98.0188 176.087 99.7969 176.482C100.818 176.178 101.901 176.54 102.921 176.192C103.107 176.128 103.326 176.14 103.528 176.148C105.373 176.221 107.172 175.886 108.945 175.454C110.191 175.15 111.451 174.902 112.697 174.6C114.567 174.147 116.257 173.303 118.011 172.592C118.482 172.401 118.944 172.189 119.413 171.995C120.713 171.456 121.83 170.635 122.911 169.756C123.094 169.607 123.312 169.498 123.483 169.338C123.873 168.971 124.208 168.983 124.64 169.32C125.219 169.771 125.828 170.178 126.494 170.527C127.368 170.986 127.885 171.902 128.443 172.701C129.11 173.656 130.003 174.133 131.11 174.32C132.344 174.529 133.561 174.831 134.713 175.317C135.802 175.776 136.963 175.75 138.091 175.918C138.739 176.015 139.302 175.526 139.917 175.357C141.595 174.898 142.677 173.703 143.673 172.401C144.094 171.849 144.28 171.165 144.331 170.5C144.377 169.894 144.583 169.385 144.846 168.873C145.034 168.509 145.197 168.148 145.204 167.721C145.21 167.388 145.422 167.134 145.741 167.056C146.033 166.985 146.101 167.292 146.259 167.458C147.185 168.429 148.274 169.144 149.609 169.399C150.021 169.478 150.265 169.688 150.487 170.012C151.728 171.822 153.507 172.844 155.549 173.531C156.895 173.985 158.181 174.604 159.526 175.075C160.141 175.291 160.773 175.503 161.39 175.505C163.054 175.508 164.697 175.766 166.363 175.773C167.66 175.778 168.853 175.479 170.01 175.029C171.715 174.366 173.373 173.583 175.05 172.85C176.269 172.316 177.404 171.636 178.41 170.768C179.274 170.021 180.3 169.994 181.176 170.42C183.132 171.372 184.991 171.076 186.852 170.299C188.508 169.608 190.028 168.674 191.451 167.572C192.035 167.119 192.697 166.733 193.346 166.406C194.563 165.792 195.389 164.742 196.452 163.967C198.341 162.59 199.436 160.59 200.574 158.634C201.377 157.252 202.322 155.992 203.37 154.782C204.604 153.356 205.688 151.825 206.475 150.065C207.076 148.724 207.499 147.355 207.83 145.945C207.912 145.597 208.125 145.34 208.263 145.037C209.042 143.328 209.549 141.554 209.676 139.678C209.691 139.464 209.771 139.291 209.9 139.124C210.485 138.371 210.718 137.503 210.693 136.564C210.662 135.408 210.768 134.278 211.039 133.143C211.206 132.441 211.299 131.65 210.61 131.064C210.49 130.962 210.417 130.778 210.373 130.618C209.702 128.155 208.48 125.92 207.437 123.614C207.081 122.826 206.782 121.941 206.136 121.347C205.108 120.402 204.384 119.186 203.113 118.432C201.978 117.759 200.885 116.918 200.055 115.829C201.6 115.975 203.031 116.519 204.369 117.247C207.347 118.866 209.531 121.27 211.087 124.272C213.172 128.293 213.802 132.61 213.717 137.067C213.667 139.715 213.309 142.332 212.708 144.911C211.33 150.819 208.844 156.234 205.365 161.197C202.212 165.695 198.36 169.479 193.705 172.411C192.013 173.477 190.21 174.345 188.302 174.975C188.013 175.07 187.721 175.175 187.455 175.319C185.667 176.289 184.052 175.779 182.491 174.761C182.069 174.486 181.754 173.903 181.239 173.961C180.72 174.019 180.559 174.665 180.214 175.027C178.885 176.42 177.272 177.414 175.522 178.175C171.351 179.989 166.956 180.481 162.469 180.132C159.001 179.862 155.662 179.005 152.589 177.305C151.369 176.63 150.246 175.809 149.275 174.799C148.593 174.088 147.857 173.446 147.034 172.899C146.728 172.695 146.468 172.414 146.213 172.144C145.748 171.652 145.608 171.621 144.995 171.902C144.669 172.051 144.511 172.241 144.662 172.615C144.789 172.929 144.872 173.259 144.981 173.58C145.357 174.688 145.519 175.834 145.395 176.99C145.089 179.837 143.565 181.414 140.638 181.851C137.915 182.259 135.417 181.4 133.101 179.967C131.466 178.955 130.149 177.587 128.802 176.247C127.861 175.311 127.046 174.277 126.268 173.209C125.932 172.749 125.804 172.737 125.412 173.132C124.911 173.636 124.53 174.243 123.992 174.722C121.795 176.681 119.311 178.16 116.57 179.221C112.392 180.838 108.049 181.615 103.59 181.918C99.6302 182.188 95.7172 181.92 91.88 180.991C88.6976 180.22 85.6901 178.969 83.249 176.667C81.9865 175.476 81.1106 174.07 80.8209 172.319C80.7113 171.657 80.4546 171.018 80.258 170.371C80.1589 170.044 79.8826 170.014 79.6029 170.018C79.3646 170.021 79.1092 170.018 79.046 170.334C78.7179 171.976 77.3633 172.536 76.0555 173.091C73.7532 174.07 71.3061 174.443 68.8313 174.622C63.9011 174.98 58.9898 174.716 54.13 173.864C49.2044 173.001 44.3996 171.692 39.9999 169.208C38.2334 168.21 36.735 166.917 35.6917 165.142C35.2242 164.346 34.8978 164.28 34.1926 164.869C33.9389 165.081 33.654 165.162 33.3781 165.254C30.1676 166.316 26.9298 166.299 23.6503 165.55C18.9898 164.486 15.0787 162.108 11.6377 158.875C7.96774 155.426 5.30329 151.316 3.59006 146.587C3.56829 146.527 3.58582 146.453 3.58497 146.385Z" fill="#D9F5FC"/>
<path d="M114.48 77.9012C113.122 80.0217 112.476 82.3322 112.59 84.8551C112.623 85.5706 112.594 85.5875 111.887 85.599C110.937 85.6144 109.986 85.6028 109.028 85.6028C108.92 85.2785 109.206 85.1194 109.307 84.8909C109.43 84.6134 109.614 84.3574 109.702 84.0709C109.985 83.1525 109.613 82.5976 108.693 82.4185C106.959 82.081 105.223 81.7936 103.451 81.7376C102.813 81.7175 102.178 81.5521 101.544 81.4371C101.025 81.3427 100.737 80.9593 100.511 80.5296C100.242 80.0191 99.9996 79.4952 99.7369 78.9816C99.3499 78.2253 98.9606 77.4657 98.2456 76.9539C98.0622 76.8227 98.0125 76.6282 97.9089 76.458C97.4655 75.7289 96.7835 75.286 95.9678 75.3815C95.1419 75.4781 94.6611 76.1297 94.4387 76.9319C94.0218 78.4358 93.5347 79.9253 93.2178 81.45C93.0473 82.2707 92.6952 82.7595 91.9394 83.0669C90.6712 83.5827 89.3772 83.9855 87.9907 84.2955C87.9154 83.5131 87.8903 82.8395 87.7798 82.1801C87.4351 80.1253 86.5497 78.3104 85.2005 76.732C84.864 76.3385 84.7504 76.0186 84.9672 75.5145C85.5423 74.1772 86.0576 72.8179 86.3788 71.387C86.4897 70.8928 86.4059 70.6225 85.9622 70.421C85.1892 70.07 84.5262 69.5505 83.8528 69.0422C82.8001 68.2475 81.7172 67.5028 80.7053 66.6433C79.4406 65.5689 78.3125 64.3491 77.0059 63.3233C76.0736 62.5914 75.1513 61.8382 74.2949 61.0208C73.4389 60.2038 72.6766 59.2895 71.8622 58.4282C70.9626 57.4769 70.0379 56.5511 68.9043 55.7406C72.2701 53.003 76.0985 51.4462 80.3554 50.8865C84.6502 50.3218 88.7338 51.0328 92.6089 52.9948C92.7196 53.0588 92.6438 53.1673 92.5736 53.286C90.5524 56.7016 91.324 60.5539 93.7283 63.2794C95.9787 65.8303 98.8486 67.1159 102.233 67.285C103.358 67.3412 104.474 67.2716 105.579 67.0553C106.901 66.8634 107.249 66.7043 107.731 66.0204C106.412 66.4907 105.119 66.7131 103.789 66.6852C103.145 66.6717 102.502 66.6584 101.858 66.645C101.784 66.6353 101.709 66.6255 101.635 66.6159C101.402 66.4008 101.119 66.4191 100.834 66.4503C98.6097 65.9318 96.6084 64.9662 94.9515 63.3836C92.9065 61.4302 91.8567 59.0003 92.383 56.2108C93.0874 52.4773 94.935 49.694 99.2225 48.7926C103.149 47.967 106.696 48.9165 109.7 51.6439C110.857 52.6948 111.647 53.9927 112.038 55.5043C112.207 56.154 112.473 56.7686 112.52 57.4682C112.616 58.9302 112.027 60.5239 110.939 62.4185C110.825 62.4929 111.076 62.557 110.964 62.4799C110.963 62.4791 110.989 62.4218 111.012 62.4051C111.941 61.7384 112.319 60.7016 112.736 59.7207C113.34 58.3028 113.333 56.8148 112.991 55.325C112.788 54.4407 112.778 54.4292 113.563 53.9738C115.082 53.0918 116.745 52.6423 118.47 52.3991C122.618 51.8142 126.733 52.1364 130.828 52.8946C132.228 53.154 133.628 53.429 134.985 53.8742C134.69 54.1021 134.215 53.9239 133.991 54.3083C133.617 54.9504 132.955 55.3846 132.708 56.1244C132.59 56.4786 132.345 56.7682 132.074 57.0358C131.146 57.9522 130.295 58.9249 129.251 59.7489C128.176 60.5967 127.074 61.4683 126.166 62.5296C125.749 63.0166 125.276 63.4561 124.819 63.9084C123.669 65.0476 122.256 65.8589 121.06 66.9484C119.343 68.5116 117.39 69.7207 115.202 70.5429C114.765 70.7073 114.37 70.9975 113.976 71.2609C113.525 71.5631 113.338 71.978 113.329 72.5537C113.303 74.1856 113.518 75.7882 113.748 77.3953C113.819 77.8937 114.151 77.8573 114.48 77.9012ZM95.9395 54.3328C95.9339 55.3686 96.4244 55.9515 97.0676 56.4318C97.7855 56.9679 98.6059 57.283 99.4854 57.4334C102.449 57.9402 105.352 57.6407 108.206 56.751C108.884 56.5398 109.557 56.3187 110.143 55.895C110.341 55.7523 110.558 55.638 110.515 55.3502C110.476 55.0926 110.386 54.862 110.058 55.0507C108.503 55.9458 106.804 56.3747 105.038 56.4632C103.553 56.5376 102.06 56.5895 100.571 56.4817C98.8243 56.3553 97.2648 55.8009 95.9395 54.3328ZM101.933 49.0702C101.476 49.1169 101.036 49.1463 100.601 49.2105C100.032 49.2944 99.4326 50.2714 99.723 50.7441C100.127 51.4017 100.545 52.0758 101.19 52.5433C101.433 52.7195 101.699 52.8878 102.032 52.8369C103.412 52.6259 104.489 51.9165 105.316 50.8159C105.565 50.4842 105.468 50.2132 105.104 49.9811C104.128 49.3577 103.023 49.2231 101.933 49.0702Z" fill="#FEEEE1"/>
<path d="M163.645 154.737C163.59 154.253 163.702 153.822 163.918 153.373C164.371 152.427 164.729 151.437 165.163 150.482C165.317 150.142 165.252 149.91 165.023 149.662C164.749 149.364 164.521 149.61 164.304 149.729C163.264 150.295 162.255 150.921 161.195 151.446C155.914 154.061 150.329 155.6 144.466 156.209C138.658 156.812 132.937 156.435 127.312 154.869C124.296 154.03 121.431 152.825 118.792 150.988C119.034 150.654 119.38 150.814 119.63 150.779C126.304 149.849 132.271 147.232 137.637 143.218C139.823 141.583 141.667 139.59 143.276 137.384C143.444 137.393 143.533 137.327 143.505 137.147L143.489 137.156C143.661 137.165 143.768 137.13 143.645 136.934L143.661 136.88C143.915 137.109 144.089 136.904 144.275 136.767C144.933 136.278 145.644 135.883 146.413 135.601C148.732 134.751 151.039 133.867 153.494 133.445C154.287 133.308 155.097 133.131 155.815 132.722C157.709 131.644 159.291 130.148 161.005 128.828C161.163 128.706 161.27 128.521 161.412 128.376C162.801 126.958 163.802 125.259 164.846 123.597C165.324 122.837 165.797 122.034 165.705 121.063C165.875 120.777 166.029 120.479 166.219 120.207C166.48 119.834 166.784 119.758 167.131 120.128C167.567 120.594 168.114 120.957 168.429 121.533C168.497 122.147 168.11 122.731 168.268 123.338C168.591 124.577 168.396 125.833 168.458 127.08C168.546 128.877 168.385 130.669 168.212 132.446C168.011 134.526 167.489 136.565 166.661 138.5C166.371 139.177 166.073 139.849 165.635 140.469C165.355 140.867 164.921 141.244 164.831 141.953C167.452 141.07 169.672 139.768 171.705 138.05C171.23 139.485 171.374 140.935 171.315 142.368C171.251 143.902 170.942 145.404 170.351 146.8C169.413 149.015 168.306 151.166 166.628 152.934C165.817 153.789 164.792 154.388 163.645 154.737Z" fill="#FEEEE1"/>
<path d="M168.43 121.533C168.114 120.957 167.567 120.594 167.131 120.128C166.784 119.758 166.481 119.834 166.219 120.207C166.029 120.479 165.875 120.777 165.705 121.063C165.045 121.524 164.393 121.999 163.721 122.443C162.287 123.389 160.814 124.267 159.511 125.414C158.708 126.119 157.816 126.738 156.889 127.301C154.886 128.516 152.684 129.281 150.565 130.237C148.944 130.968 147.149 131.265 145.636 132.252C145.612 132.267 145.57 132.254 145.536 132.255C146.398 129.128 146.124 125.918 146.196 122.739C146.316 117.479 146.351 112.217 146.431 106.956C146.475 104.038 146.536 101.12 146.594 98.2018C146.612 97.2648 146.948 96.9642 147.897 97.0899C148.467 97.1654 149.03 97.3054 149.593 97.4275C154.122 98.4088 158.439 99.9968 162.673 101.864C164.433 102.64 165.8 103.893 167.195 105.109C173.299 110.429 178.064 116.766 181.395 124.155C182.035 125.574 182.684 126.998 183.012 128.534C182.718 128.401 182.521 128.164 182.381 127.892C181.893 126.948 181.202 126.156 180.509 125.368C179.949 124.732 179.443 124.055 178.915 123.395C178.195 122.494 177.663 121.458 176.858 120.624C176.722 120.483 176.598 120.274 176.36 120.361C176.112 120.451 176.164 120.702 176.178 120.886C176.294 122.345 175.813 123.691 175.392 125.043C174.839 126.821 174 128.485 173.29 130.201C173.2 130.42 173.161 130.741 172.779 130.782C172.214 129.67 171.656 128.532 171.354 127.327C170.986 125.861 170.359 124.522 169.691 123.194C169.378 122.572 169.049 121.935 168.43 121.533Z" fill="#ED751E"/>
<path d="M132.742 144.718C132.744 139.56 132.747 134.403 132.748 129.245C132.749 123.409 132.754 117.572 132.744 111.736C132.743 110.517 133.052 109.317 132.933 108.093C132.901 107.766 133.018 107.399 132.656 107.173C132.831 107.075 132.995 106.94 133.182 106.887C133.584 106.772 133.854 106.599 133.803 106.115C133.768 105.793 133.974 105.546 134.147 105.29C137.165 100.82 140.178 96.3462 143.193 91.8747C143.742 91.0602 144.298 90.2503 144.911 89.3502C145.073 89.7362 145.018 90.0862 145.012 90.4224C144.94 94.5937 144.86 98.7649 144.79 102.936C144.753 105.107 144.773 107.28 144.692 109.449C144.553 113.209 144.618 116.973 144.482 120.731C144.391 123.271 144.259 125.821 144.389 128.347C144.579 132.045 143.228 135.066 140.943 137.798C138.614 140.58 135.907 142.922 132.742 144.718Z" fill="#949EE3"/>
<path d="M168.43 121.533C169.049 121.935 169.378 122.572 169.69 123.194C170.359 124.522 170.986 125.861 171.354 127.327C171.656 128.532 172.214 129.67 172.778 130.782C173.161 130.741 173.2 130.42 173.29 130.201C174 128.485 174.839 126.821 175.392 125.043C175.813 123.691 176.293 122.345 176.178 120.886C176.164 120.702 176.112 120.451 176.36 120.361C176.598 120.274 176.722 120.483 176.858 120.624C177.663 121.458 178.195 122.494 178.915 123.395C179.443 124.055 179.949 124.732 180.509 125.368C181.202 126.156 181.893 126.948 182.381 127.892C182.521 128.164 182.718 128.401 183.012 128.534C183.717 130.132 184.021 131.837 184.311 133.536C184.737 136.025 184.796 138.534 184.345 141.028C183.953 143.198 183.132 145.183 181.632 146.85C180.848 147.721 179.864 148.343 178.897 148.959C175.128 151.358 171.077 153.166 166.806 154.474C165.813 154.778 164.789 154.991 163.767 155.18C163.509 155.228 163.528 154.934 163.645 154.737C164.792 154.388 165.817 153.789 166.628 152.934C168.306 151.166 169.413 149.015 170.351 146.8C170.942 145.404 171.251 143.902 171.315 142.368C171.374 140.935 171.23 139.485 171.705 138.05C169.672 139.768 167.452 141.07 164.831 141.953C164.921 141.244 165.355 140.867 165.636 140.469C166.073 139.849 166.371 139.177 166.661 138.5C167.489 136.565 168.011 134.526 168.213 132.446C168.385 130.669 168.546 128.877 168.458 127.08C168.396 125.833 168.591 124.577 168.268 123.338C168.11 122.731 168.497 122.147 168.43 121.533Z" fill="#ECCAA1"/>
<path d="M124.998 93.7825C124.789 93.1813 124.925 92.5731 125.026 91.9863C125.26 90.6173 125.553 89.2581 125.837 87.898C125.871 87.7342 125.961 87.5809 125.905 87.4092C125.835 87.194 125.85 86.9175 125.534 86.868C125.245 86.8227 125.109 86.995 124.985 87.2194C124.6 87.9126 124.42 88.6742 124.26 89.4363C124.073 90.3314 123.919 91.2347 123.786 92.1396C123.722 92.5716 123.727 93.0092 123.899 93.4386C124.03 93.7671 123.873 93.9685 123.509 93.941C122.12 93.8359 120.737 93.6912 119.382 93.3414C119.029 93.2502 118.884 93.0307 118.84 92.6964C118.796 92.3607 118.663 92.0194 118.697 91.6935C118.85 90.1869 118.699 88.6354 119.361 87.1989C119.587 86.7084 119.718 86.1753 119.93 85.6773C120.07 85.348 119.932 85.1394 119.689 84.9933C119.369 84.8009 119.169 85.0373 119.042 85.2834C118.406 86.5212 117.754 87.7662 117.689 89.1912C117.636 90.3327 117.513 91.4736 117.661 92.7363C116.664 92.3872 115.933 91.8839 115.365 91.1388C115.304 91.0584 115.206 90.964 115.211 90.881C115.277 89.7555 114.709 88.7702 114.515 87.7021C114.321 86.633 114.149 85.5655 114.123 84.4768C114.065 82.0495 114.661 79.8484 116.3 77.9857C117.891 76.1771 119.968 75.3424 122.284 75.0528C124.075 74.8287 125.874 74.8609 127.643 75.3116C128.397 76.0004 129.177 76.6637 129.9 77.3838C131 78.4787 131.757 79.7664 131.937 81.344C131.956 81.5083 132.013 81.6715 132.074 81.8271C132.496 82.9169 132.339 84.0833 132.525 85.2042C132.536 85.2684 132.531 85.3475 132.502 85.4041C131.983 86.4333 131.81 87.5849 131.341 88.6357C130.633 90.2229 129.635 91.5931 128.484 92.8856C128.089 93.3284 127.756 93.6366 127.145 93.5749C126.887 93.5488 126.593 93.5118 126.412 93.7942L126.423 93.7886C125.948 93.7866 125.473 93.7846 124.998 93.7825Z" fill="#FEA849"/>
<path d="M73.5038 93.1801C73.2949 93.0488 73.3097 92.8245 73.3198 92.6347C73.4099 90.9261 72.8076 89.2864 72.8248 87.585C72.8275 87.3188 72.7773 87.0401 72.6906 86.7881C72.5857 86.4836 72.3517 86.2345 72.0057 86.3054C71.6839 86.3714 71.6674 86.6632 71.6916 86.9592C71.7884 88.1395 71.8052 89.3267 72.0756 90.4896C72.2596 91.2806 72.2627 92.0916 72.286 92.9687C71.1043 92.8489 70.0556 92.3691 69.032 91.8814C67.269 91.0416 65.8083 89.808 64.4494 88.3925C63.3455 87.2427 63.2595 85.9437 63.4362 84.5638C63.9736 80.3671 66.5819 77.8277 70.2942 76.218C72.7875 75.1369 75.4013 74.9902 78.0622 75.2647C78.3273 75.2921 78.5841 75.4008 78.8448 75.4718C79.6133 76.7659 80.4922 77.9744 81.0247 79.4295C81.4849 80.6864 81.6619 81.9651 81.9061 83.247C81.9551 83.5046 81.9143 83.7906 81.8639 84.0536C81.7054 84.8803 81.5088 85.7003 81.5074 86.5492C81.5068 86.904 81.3901 87.2115 81.1236 87.4547C80.9799 86.5858 80.7471 85.7457 80.3279 84.9641C80.2295 84.7807 80.1301 84.5846 79.888 84.6201C79.5593 84.6684 79.591 84.9673 79.6018 85.1796C79.6187 85.5133 79.6998 85.8448 79.7662 86.1748C79.9593 87.1343 80.1295 88.0957 80.0823 89.0811C79.5428 89.7723 78.9278 90.3978 78.2742 90.9742C76.9093 92.1779 75.539 93.4077 73.5038 93.1801Z" fill="#FEA849"/>
<path d="M92.838 98.3163C92.985 96.8553 92.8026 95.4085 92.7572 93.957C92.733 93.1808 92.5095 92.4166 92.6379 91.6327C92.6821 91.363 92.4884 91.1738 92.2962 91.0449C91.0208 90.1902 90.0893 88.9321 88.8057 88.0894C88.6078 87.9594 88.4154 87.8174 88.2055 87.7104C87.5265 87.3643 87.5564 87.3767 87.7167 86.6471C87.8854 85.8794 88.2609 85.4608 89.0687 85.222C90.5837 84.7741 92.1313 84.382 93.5115 83.5399C93.8754 83.3178 94.0606 83.0955 94.1102 82.6974C94.3414 80.8406 95.0401 79.0961 95.4292 77.2766C95.4632 77.1174 95.5647 76.9648 95.6618 76.8283C96.0154 76.3309 96.3782 76.3297 96.8051 76.8291C97.5755 77.7305 98.2561 78.6981 98.8748 79.7081C99.3 80.4023 99.7091 81.1066 100.116 81.8117C100.483 82.4476 100.999 82.7533 101.758 82.8192C103.143 82.9395 104.547 82.8337 105.916 83.1364C106.578 83.2826 107.233 83.4553 107.895 83.5992C108.336 83.695 108.336 83.9583 108.174 84.2776C108.067 84.4882 107.942 84.6948 107.793 84.8776C106.936 85.9298 106.083 86.9853 105.2 88.0153C104.909 88.355 104.672 88.7141 104.462 89.1041C104.208 89.5761 104.091 89.9947 104.419 90.5211C104.641 90.8781 104.691 91.3556 104.766 91.7883C105.027 93.2879 105.572 94.7229 105.753 96.2424C105.805 96.6797 105.829 97.0659 105.44 97.3343C105.059 97.5976 104.695 97.4791 104.302 97.2709C102.593 96.3644 100.887 95.4574 99.2472 94.4264C98.4273 93.9109 98.5007 94.0181 97.9973 94.572C97.4748 95.147 96.8734 95.6415 96.1726 96.0117C95.5114 96.3609 95.1493 97.0781 94.4515 97.4182C93.9488 97.6632 93.5197 98.0589 93.0578 98.3873C92.9845 98.3636 92.9112 98.34 92.838 98.3163Z" fill="#FCE680"/>
<path d="M96.1704 98.2378C96.7883 99.0742 97.3466 99.9602 97.7728 100.915C98.4605 102.456 99.1566 103.987 100.265 105.313C99.9644 105.545 99.6877 105.469 99.437 105.467C93.0249 105.436 86.6127 105.397 80.2006 105.357C79.862 105.355 79.5237 105.323 79.1852 105.306C78.9745 105.295 78.7198 105.257 78.66 105.059C78.4353 104.318 77.6601 104.075 77.2805 103.465C76.902 102.858 76.609 102.215 76.3034 101.575C75.7952 100.511 75.3039 99.4397 74.7817 98.3208C76.9267 97.4437 79.0142 96.5646 81.1212 95.735C83.7398 94.7041 86.3004 93.5458 88.7949 92.2495C89.4836 91.8917 90.1737 91.985 90.8695 91.944C91.1801 91.9257 91.3084 92.145 91.3007 92.4887C91.2693 93.9134 91.2666 95.3389 91.2607 96.7641C91.2568 97.7118 91.2647 98.6458 91.8293 99.4926C92.2142 100.07 92.4063 100.206 93.0443 99.9851C93.8191 99.717 94.5233 99.3127 95.1924 98.8419C95.4921 98.6311 95.747 98.3449 96.1704 98.2378Z" fill="#DED9FE"/>
<path d="M114.48 77.9012C114.151 77.8573 113.819 77.8937 113.748 77.3954C113.518 75.7883 113.303 74.1856 113.329 72.5537C113.339 71.978 113.525 71.5632 113.976 71.261C114.37 70.9975 114.765 70.7074 115.203 70.543C117.39 69.7207 119.343 68.5117 121.06 66.9484C122.256 65.8589 123.67 65.0476 124.819 63.9084C125.276 63.4561 125.749 63.0166 126.166 62.5296C127.074 61.4684 128.176 60.5968 129.251 59.749C130.295 58.925 131.146 57.9522 132.074 57.0358C132.345 56.7682 132.59 56.4787 132.708 56.1244C132.955 55.3847 133.617 54.9505 133.991 54.3083C134.215 53.9239 134.69 54.1021 134.985 53.8742C136.668 54.2765 138.291 54.862 139.906 55.4715C140.441 55.6735 140.966 55.9028 141.547 56.1407C140.411 57.5132 139.198 58.7257 137.863 59.7887C136.117 61.1781 134.428 62.624 132.783 64.1289C131.429 65.3671 129.805 66.2342 128.263 67.2086C127.519 67.6785 126.763 68.1298 126.025 68.6087C125.802 68.7537 125.605 68.9492 125.422 69.1452C124.931 69.6695 124.612 70.3748 123.705 70.3912C123.349 70.3977 123.32 70.8803 123.565 71.2275C124.056 71.924 124.516 72.6418 124.972 73.3251C124.883 73.4812 124.787 73.4909 124.688 73.4839C121.845 73.2828 119.271 74.0682 116.896 75.594C115.941 76.2079 115.209 77.0527 114.48 77.9012Z" fill="#ECCAA1"/>
<path d="M114.642 105.51C111.279 105.51 107.984 105.517 104.69 105.505C103.601 105.501 103.261 105.239 103.15 104.204C102.959 102.43 102.995 100.546 103.906 98.705C104.588 99.2518 105.386 99.2262 106.206 99.2321C106.77 99.2362 106.916 98.9707 106.989 98.529C107.128 97.6864 107.094 96.8321 106.979 96.0021C106.895 95.402 107.064 95.062 107.53 94.7332C109.094 93.6306 110.809 93.0048 112.73 92.9458C113.147 92.933 113.53 93.123 113.918 93.1398C115.237 93.1969 116.405 93.6662 117.559 94.2485C118.599 94.7726 119.752 95.0453 120.886 95.1283C121.879 95.2009 122.498 95.7119 123.164 96.2951C124.497 97.4637 124.75 99.1506 125.32 100.686C125.394 100.885 125.244 100.997 125.113 101.102C124.937 101.243 124.821 101.146 124.695 101.005C123.712 99.9063 122.571 99.021 121.211 98.4235C120.97 98.3178 120.747 98.1322 120.566 97.9374C119.342 96.6246 117.757 96.3125 116.059 96.2037C115.393 96.161 115.005 96.7151 114.399 96.7559C114.188 96.7701 114.176 97.062 114.169 97.2699C114.125 98.45 114.031 99.6173 114.266 100.806C114.467 101.829 114.485 102.898 114.484 103.946C114.484 104.493 114.579 105.01 114.642 105.51Z" fill="#84C1FB"/>
<path d="M126.412 93.7943C126.593 93.5119 126.887 93.5488 127.145 93.575C127.755 93.6366 128.089 93.3284 128.484 92.8856C129.635 91.5931 130.633 90.2229 131.341 88.6357C131.81 87.5849 131.983 86.4334 132.502 85.4041C132.531 85.3475 132.536 85.2684 132.525 85.2042C132.339 84.0834 132.496 82.917 132.074 81.8271C132.013 81.6715 131.956 81.5083 131.937 81.344C131.757 79.7665 130.999 78.4788 129.9 77.3839C129.177 76.6638 128.397 76.0004 127.642 75.3116C128.834 75.5619 130.023 75.8174 131.132 76.3501C131.344 76.4521 131.577 76.5285 131.808 76.5695C133.576 76.8824 134.971 77.9207 136.397 78.9005C136.619 79.0531 136.843 79.2054 137.064 79.3565C137.647 79.7556 138.201 80.1915 138.528 80.8638C138.967 81.7646 139.648 82.5433 139.814 83.5818C139.999 84.7413 140.049 85.8877 139.191 86.8078C138.035 88.0479 137.041 89.4235 135.825 90.6175C135.052 91.3759 134.212 91.97 133.235 92.3686C131.053 93.26 128.79 93.8135 126.412 93.7943Z" fill="#ED751E"/>
<path d="M50.0557 105.191C54.9913 100.206 59.7419 95.3751 64.3122 90.2756C66.3872 92.3097 68.7526 93.6428 71.6441 94.4147C71.1608 94.6903 70.8166 94.7379 70.4825 94.815C70.153 94.891 69.8291 94.994 69.4971 95.0547C68.8658 95.1701 68.2335 95.291 67.5962 95.3611C66.2481 95.5092 65.3247 96.2665 64.6054 97.3497C64.4563 97.5742 64.2873 97.7919 64.0957 97.9806C62.4412 99.6111 61.2058 101.563 59.8979 103.457C59.5588 103.948 59.1125 104.384 58.9839 105.011C58.9117 105.363 58.5953 105.19 58.3978 105.191C56.3922 105.202 54.3865 105.194 52.3808 105.191C51.6773 105.19 50.9738 105.191 50.0557 105.191Z" fill="#949EE3"/>
<path d="M60.3613 105.23C60.6845 104.485 60.9086 103.938 61.277 103.437C62.4203 101.882 63.4964 100.277 64.8702 98.9035C65.0838 98.6899 65.3073 98.4513 65.4215 98.1802C65.7274 97.4536 66.3275 97.1689 67.0257 97.0356C67.8242 96.8833 68.615 96.6993 69.4298 96.6143C70.6099 96.4912 71.7195 96.0354 72.8675 95.7544C73.0582 95.7078 73.2349 95.5509 73.4425 95.5917C74.4547 95.7904 75.5067 95.7678 76.6453 96.1164C76.0531 96.5185 75.532 96.7669 74.9807 96.8613C74.1741 96.9993 73.8365 97.6397 73.3973 98.1751C73.2359 98.3718 73.3086 98.618 73.4325 98.8436C74.5839 100.939 75.317 103.256 76.9338 105.23H60.3613Z" fill="#D9F5FC"/>
<path d="M115.392 97.2899C116.279 97.6502 117.037 97.8057 117.802 97.9169C118.432 98.0084 118.946 98.2523 119.355 98.755C119.654 99.1231 120.022 99.4256 120.483 99.5974C121.51 99.981 122.349 100.685 123.263 101.259C123.723 101.548 124.045 101.971 124.267 102.458C124.516 103.001 124.777 103.102 125.192 102.696C125.485 102.411 125.807 102.168 126.112 101.902C127.277 100.885 128.64 100.179 130.034 99.5769C131.195 99.0748 132.453 98.7968 133.716 98.405C133.795 99.1759 133.864 99.8466 133.932 100.518C133.953 100.72 133.9 100.97 134 101.116C134.532 101.897 134.111 102.475 133.71 103.136C133.203 103.971 132.408 104.609 132.084 105.566C131.988 105.849 131.694 105.802 131.466 105.801C130.584 105.796 129.702 105.774 128.82 105.763C124.924 105.713 121.027 105.662 117.131 105.615C116.036 105.602 115.956 105.557 115.96 104.484C115.967 102.956 115.892 101.439 115.576 99.9384C115.401 99.1128 115.611 98.2664 115.392 97.2899Z" fill="#B7B7BA"/>
<path d="M145.536 132.255C145.57 132.254 145.612 132.267 145.636 132.252C147.149 131.265 148.945 130.968 150.565 130.237C152.684 129.281 154.887 128.516 156.889 127.301C157.816 126.738 158.708 126.119 159.511 125.414C160.814 124.267 162.288 123.389 163.722 122.443C164.394 121.999 165.045 121.524 165.705 121.063C165.797 122.034 165.324 122.837 164.847 123.597C163.802 125.259 162.801 126.958 161.413 128.376C161.271 128.521 161.163 128.707 161.005 128.828C159.292 130.148 157.709 131.644 155.815 132.722C155.098 133.131 154.288 133.308 153.494 133.445C151.039 133.867 148.733 134.751 146.413 135.601C145.645 135.883 144.933 136.278 144.275 136.767C144.09 136.904 143.916 137.109 143.661 136.88C143.667 136.448 143.98 136.155 144.163 135.806C144.712 134.755 145.179 133.674 145.454 132.516C145.553 132.457 145.592 132.377 145.543 132.265C145.543 132.265 145.536 132.255 145.536 132.255Z" fill="#FEA849"/>
<path d="M144.371 87.2789C141.237 91.7262 138.378 96.1679 135.319 100.505C135.144 99.5465 134.977 98.632 134.761 97.7257C134.684 97.4041 134.565 97.247 134.233 97.2533C133.894 97.2597 133.531 97.1665 133.221 97.2581C131.929 97.6396 130.567 97.8279 129.362 98.4536C128.376 98.9659 127.314 99.341 126.357 100.17C125.954 98.3739 125.494 96.7321 123.916 95.4774C125.558 95.4372 126.968 95.4527 128.367 95.2477C130.053 95.0007 131.711 94.64 133.263 93.9383C133.76 93.7137 134.282 93.7995 134.802 93.4505C136.023 92.6322 136.757 91.407 137.753 90.411C138.35 89.8135 138.788 89.0364 139.44 88.5192C140.231 87.8919 141.083 87.2572 142.199 87.2768C142.865 87.2885 143.532 87.2789 144.371 87.2789Z" fill="#949EE3"/>
<path d="M81.1235 87.4547C81.39 87.2116 81.5067 86.904 81.5073 86.5492C81.5087 85.7003 81.7053 84.8804 81.8638 84.0537C81.9142 83.7906 81.9551 83.5046 81.906 83.247C81.6618 81.9651 81.4848 80.6865 81.0246 79.4295C80.4921 77.9744 79.6132 76.7659 78.8447 75.4718C79.7149 75.5691 80.59 75.6359 81.454 75.7728C82.2127 75.8931 82.8883 76.2779 83.3762 76.8466C85.6594 79.509 86.7554 82.5459 85.9851 86.0607C85.3721 88.8579 83.5888 90.7552 80.891 92.228C81.3748 90.5103 81.2907 88.9828 81.1235 87.4547Z" fill="#ED751E"/>
<path d="M98.4769 30.5226C98.3009 30.8036 98.0156 30.765 97.7476 30.7664C97.1362 30.7698 96.525 30.7692 95.9136 30.7672C95.4802 30.7657 94.9852 30.8684 94.9348 30.1983C94.9307 30.1437 94.8633 30.0547 94.8162 30.0481C93.8866 29.9193 94.33 29.3568 94.4931 28.9429C94.971 27.7304 95.0766 26.4498 95.1629 25.1791C95.2455 23.9632 95.2574 22.7314 95.1615 21.5175C95.0398 19.9756 94.8717 18.435 94.6915 16.8963C94.4215 14.5915 93.716 12.3264 93.993 9.96704C94.9161 11.8108 95.3458 13.8457 96.2127 15.7088C97.3822 18.2225 98.0123 20.9316 99.0793 23.4838C99.5192 24.5361 99.8012 25.6569 100.116 26.7578C100.246 27.2135 100.369 27.653 100.829 27.9967C100.278 28.1586 99.8302 28.2769 99.3909 28.4221C98.5514 28.6997 97.8739 29.6111 98.4769 30.5226Z" fill="#ED751E"/>
<path d="M133.846 32.397C133.127 29.4032 132.41 26.4091 131.688 23.4159C131.625 23.1529 131.606 22.836 131.446 22.6473C130.847 21.9438 131.213 21.356 131.556 20.7127C131.992 19.8949 132.6 19.2148 133.229 18.5611C133.956 17.8049 134.773 17.136 135.52 16.3982C135.814 16.1076 136.19 16.0954 136.53 15.9661C136.802 15.8625 136.967 16.0562 137.059 16.3019C136.643 16.8145 136.905 17.4904 136.62 18.0488C135.677 19.8922 135.411 21.9835 134.498 23.8464C134.061 24.7384 134.334 25.0688 135.334 25.0796C135.392 25.0802 135.45 25.0243 135.509 24.9947C135.851 24.6619 136.305 24.5084 136.718 24.318C137.459 23.977 137.847 24.2439 137.967 25.0701C137.381 26.4702 136.785 27.8631 136.118 29.2304C135.63 30.2298 134.867 31.0735 134.537 32.153C134.424 32.5254 134.098 32.3761 133.846 32.397Z" fill="#FEEEE1"/>
<path d="M135.151 53.0242C135.17 52.8897 135.142 52.72 135.214 52.6261C135.909 51.7146 135.927 50.6154 135.981 49.5665C136.035 48.528 135.92 47.4719 135.882 46.4317C135.805 44.3389 135.21 42.3711 134.813 40.3543C134.8 40.2879 134.783 40.2178 134.791 40.1523C134.942 38.9391 134.318 37.8719 134.146 36.7199C134.79 37.0542 134.986 36.3579 135.367 36.1516C135.701 36.2845 135.592 36.5582 135.656 36.768C136.451 39.3783 136.951 42.0627 138.04 44.6051C138.831 46.4523 139.63 48.3274 140.128 50.3053C140.44 51.5443 140.962 52.7302 141.372 53.9456C141.5 54.3244 141.574 54.7215 141.663 55.075C141.533 55.2645 141.397 55.2289 141.274 55.1775C139.394 54.3947 137.464 53.7617 135.509 53.1989C135.383 53.1628 135.27 53.0834 135.151 53.0242Z" fill="#ED751E"/>
<path d="M114.313 91.8003C112.789 91.624 111.489 91.7752 110.205 92.0558C108.935 92.3334 107.875 93.0864 106.709 93.7257C106.354 92.6407 106.014 91.6063 105.677 90.571C105.603 90.3419 105.556 90.101 105.721 89.8965C106.446 89 106.89 87.9174 107.637 87.0343C107.848 86.7861 108.043 86.6312 108.392 86.6302C109.645 86.6268 110.899 86.6011 112.151 86.5612C112.6 86.5469 112.826 86.7008 112.91 87.1626C113.107 88.2526 113.31 89.3331 113.981 90.2831C114.233 90.6399 114.027 91.1982 114.313 91.8003Z" fill="#949EE3"/>
<path d="M78.4246 16.1742C78.7858 16.9161 79.0925 17.518 79.2278 18.1725C79.4655 19.3226 80.2679 20.1133 80.991 20.9224C81.7848 21.8106 81.8714 21.7653 81.4222 22.8151C80.637 24.6502 79.6844 26.4116 78.9913 28.2879C78.4995 29.619 78.0076 30.9501 77.5165 32.279C76.2957 31.2855 74.8966 28.3367 75.6997 24.8522C76.245 25.1995 76.7783 25.5221 77.2932 25.8717C77.8403 26.2433 77.8923 26.1984 78.3648 25.7832C78.8078 25.3938 78.9079 25.0483 78.6962 24.4868C78.4233 23.7628 78.2827 22.9899 78.0702 22.2423C77.6592 20.7961 77.7391 19.3077 77.6761 17.8316C77.6496 17.2125 77.9749 16.7449 78.4246 16.1742Z" fill="#FEEEE1"/>
<path d="M101.939 105.182C101.608 105.271 101.57 104.964 101.443 104.8C100.521 103.617 99.8186 102.308 99.2519 100.922C98.8536 99.947 98.3089 99.0496 97.748 98.1604C97.5816 97.8966 97.3252 97.7365 97.0884 97.4584C97.7749 96.9119 98.4021 96.3202 99.2322 95.9839C99.5616 95.8505 99.7745 95.8783 100.056 96.0844C100.785 96.6188 101.457 97.227 102.242 97.6935C102.855 98.0583 102.847 98.1606 102.557 98.8399C101.736 100.76 101.533 102.745 101.907 104.796C101.931 104.926 101.913 105.064 101.915 105.198L101.939 105.182Z" fill="#949EE3"/>
<path d="M130.509 20.8066C130.387 18.3911 130.224 15.9929 129.744 13.6009C129.178 10.7774 128.171 8.10294 127.35 5.36545C127.274 5.10955 127.126 4.8748 127.012 4.63015C127.441 3.96402 127.48 3.96115 127.804 4.57486C128.789 6.4381 129.444 8.43984 130.243 10.3808C130.823 11.7894 131.23 13.2639 131.786 14.677C132.07 15.3979 132.344 16.11 132.558 16.8543C132.643 17.1504 132.648 17.3752 132.459 17.6006C131.646 18.5702 131.18 19.7507 130.509 20.8066Z" fill="#ED751E"/>
<path d="M86.83 88.5043C87.6695 89.0865 88.3808 89.6577 88.9284 90.4039C88.5765 90.9466 88.0675 91.2815 87.5121 91.5442C84.8443 92.8061 82.1405 93.9831 79.3961 95.0728C78.5686 95.4015 77.8948 95.128 76.9688 94.865C81.2497 94.1109 84.6789 92.3401 86.83 88.5043Z" fill="#949EE3"/>
<path d="M133.846 32.397C134.098 32.3761 134.424 32.5254 134.537 32.153C134.867 31.0735 135.63 30.2298 136.118 29.2304C136.785 27.8631 137.381 26.4702 137.967 25.0701C138.103 26.3607 137.865 27.5906 137.525 28.8401C137.167 30.1576 136.429 31.2735 135.911 32.4986C135.519 33.4273 135.195 34.38 134.582 35.3517C134.203 34.343 134.093 33.3506 133.846 32.397Z" fill="#ECCAA1"/>
<path d="M199.606 111.585C199.38 111.25 199.637 110.937 199.643 110.615C199.668 109.267 199.761 107.908 199.634 106.571C199.51 105.268 198.7 104.29 197.622 103.556C196.735 102.953 195.724 102.522 195.017 101.666C194.827 101.436 194.549 101.264 194.579 100.909C196.301 101.408 197.787 102.285 199.013 103.606C200.664 105.387 201.021 107.448 200.39 109.73C200.21 110.378 199.996 111.021 199.606 111.585Z" fill="#D9F5FC"/>
<path d="M73.5039 93.1801C75.5391 93.4077 76.9094 92.178 78.2743 90.9742C78.9278 90.3979 79.5429 89.7724 80.0824 89.0811C80.2964 90.1756 79.9303 91.2324 79.8726 92.3093C79.8599 92.5462 79.7334 92.6753 79.5127 92.7365C77.5392 93.2841 75.5523 93.647 73.5039 93.1801Z" fill="#ED751E"/>
<path d="M135.509 24.9947C135.451 25.0243 135.392 25.0802 135.334 25.0796C134.334 25.0688 134.061 24.7384 134.498 23.8464C135.411 21.9835 135.678 19.8922 136.62 18.0489C136.905 17.4904 136.644 16.8145 137.059 16.3019C137.39 17.3482 137.049 18.3612 136.876 19.3729C136.663 20.613 136.119 21.7565 135.713 22.9402C135.526 23.4859 135.373 24.037 135.284 24.6089C135.248 24.8354 135.363 24.9084 135.509 24.9947Z" fill="#ECCAA1"/>
<path d="M132.374 107.207C127.922 107.207 123.47 107.208 119.018 107.207C116.264 107.206 113.509 107.208 110.754 107.198C110.39 107.197 110.001 107.301 109.67 107.043C110.854 107.034 112.038 107.017 113.222 107.017C119.25 107.018 125.277 107.022 131.305 107.032C131.666 107.032 132.054 106.933 132.374 107.207Z" fill="#949EE3"/>
<path d="M193.952 100.708C193.579 100.73 193.221 100.688 192.854 100.585C191.36 100.166 189.836 99.9248 188.282 99.8909C188.181 99.8887 188.064 99.9141 187.981 99.8737C186.83 99.3193 185.598 99.5258 184.393 99.485C184.156 99.477 183.916 99.4932 183.741 99.2871C187.027 99.2016 190.26 99.559 193.429 100.452C193.615 100.504 193.84 100.497 193.952 100.708Z" fill="#D9F5FC"/>
<path d="M101.858 66.6451C102.502 66.6584 103.145 66.6717 103.789 66.6852C105.119 66.7131 106.412 66.4907 107.731 66.0204C107.249 66.7043 106.901 66.8634 105.579 67.0553C105.58 66.5876 105.249 66.7486 105.018 66.7779C103.956 66.9127 102.903 66.9018 101.858 66.6451Z" fill="#758DB4"/>
<path d="M124.998 93.7825C125.473 93.7846 125.948 93.7866 126.423 93.7886C125.947 94.0017 125.471 94.1378 124.998 93.7825Z" fill="#ED751E"/>
<path d="M199.114 112.404C199.102 112.051 199.103 111.704 199.576 111.645C199.446 111.912 199.405 112.234 199.114 112.404Z" fill="#D9F5FC"/>
<path d="M100.833 66.4503C101.119 66.4191 101.402 66.4008 101.635 66.6159C101.339 66.6949 101.089 66.5606 100.833 66.4503Z" fill="#758DB4"/>
<path d="M134.138 36.7075C133.841 36.666 133.745 36.4934 133.815 36.2126C133.973 36.3446 134.098 36.4987 134.138 36.7075Z" fill="#ED751E"/>
<path d="M194.571 100.906C194.338 100.939 194.108 100.961 193.964 100.714C194.188 100.711 194.415 100.696 194.571 100.906Z" fill="#D9F5FC"/>
<path d="M101.915 105.198C101.951 105.237 101.987 105.277 102.024 105.316C101.994 105.32 101.957 105.338 101.937 105.326C101.862 105.284 101.866 105.231 101.939 105.182C101.939 105.182 101.915 105.198 101.915 105.198Z" fill="#949EE3"/>
<path d="M145.543 132.265C145.592 132.377 145.553 132.457 145.454 132.516C145.423 132.411 145.419 132.315 145.543 132.265Z" fill="#ED751E"/>
<path d="M143.645 136.934C143.769 137.13 143.661 137.165 143.49 137.156C143.452 137.019 143.507 136.947 143.645 136.934Z" fill="#FEA849"/>
<path d="M143.505 137.147C143.533 137.327 143.444 137.393 143.276 137.384C143.314 137.268 143.345 137.145 143.505 137.147Z" fill="#FEA849"/>
<path d="M95.9395 54.3328C97.2649 55.8009 98.8243 56.3553 100.571 56.4817C102.06 56.5895 103.553 56.5376 105.038 56.4632C106.804 56.3747 108.503 55.9458 110.058 55.0507C110.386 54.862 110.476 55.0926 110.515 55.3502C110.558 55.638 110.341 55.7523 110.143 55.895C109.557 56.3187 108.884 56.5398 108.206 56.7509C105.352 57.6407 102.449 57.9402 99.4854 57.4334C98.6059 57.283 97.7856 56.9679 97.0676 56.4318C96.4244 55.9515 95.9339 55.3686 95.9395 54.3328Z" fill="#090707"/>
<path d="M101.933 49.0702C103.023 49.2231 104.128 49.3577 105.104 49.9812C105.468 50.2132 105.565 50.4843 105.316 50.8159C104.49 51.9166 103.412 52.6259 102.032 52.8369C101.699 52.8879 101.433 52.7195 101.19 52.5434C100.545 52.0759 100.127 51.4018 99.7232 50.7441C99.4327 50.2715 100.032 49.2944 100.601 49.2105C101.036 49.1464 101.476 49.117 101.933 49.0702Z" fill="#080606"/>
</g>
<rect x="0.5" y="0.5" width="215" height="184" stroke="black"/>
<defs>
<clipPath id="clip0_2978_5411">
<rect width="216" height="185" fill="white"/>
</clipPath>
</defs>
</svg>
