<?xml version="1.0" encoding="UTF-8"?>
<svg id="Layer_2" data-name="Layer 2" xmlns="http://www.w3.org/2000/svg" xmlns:xlink="http://www.w3.org/1999/xlink" viewBox="0 0 222.13 222.33">
  <defs>
    <style>
      .cls-1 {
        fill: url(#test-3);
        stroke: url(#test-4);
      }

      .cls-1, .cls-2, .cls-3, .cls-4, .cls-5, .cls-6 {
        stroke-miterlimit: 10;
      }

      .cls-2 {
        fill: url(#test-5);
        stroke: url(#test-6);
      }

      .cls-7 {
        fill: #252e4e;
      }

      .cls-3 {
        fill: url(#test-9);
        stroke: url(#test-10);
      }

      .cls-4 {
        fill: url(#test-11);
        stroke: url(#test-12);
      }

      .cls-5 {
        fill: url(#test);
        stroke: url(#test-2);
      }

      .cls-6 {
        fill: url(#test-7);
        stroke: url(#test-8);
        stroke-width: 16px;
      }
    </style>
    <linearGradient id="test" x1="84.59" y1="26.49" x2="98.85" y2="26.49" gradientUnits="userSpaceOnUse">
      <stop offset="0" stop-color="#45438f"/>
      <stop offset=".5" stop-color="#7665a6"/>
      <stop offset="1" stop-color="#ab8ac0"/>
    </linearGradient>
    <linearGradient id="test-2" data-name="test" x1="84.09" x2="99.35" xlink:href="#test"/>
    <linearGradient id="test-3" data-name="test" x1="101.12" y1="7.7" x2="115.5" y2="7.7" xlink:href="#test"/>
    <linearGradient id="test-4" data-name="test" x1="100.62" y1="7.7" x2="116" y2="7.7" xlink:href="#test"/>
    <linearGradient id="test-5" data-name="test" x1="66.11" y1="14.97" x2="80.36" y2="14.97" xlink:href="#test"/>
    <linearGradient id="test-6" data-name="test" x1="65.61" y1="14.97" x2="80.86" y2="14.97" xlink:href="#test"/>
    <linearGradient id="test-7" data-name="test" x1="8" y1="128.64" x2="175.25" y2="128.64" xlink:href="#test"/>
    <linearGradient id="test-8" data-name="test" x1="0" y1="128.66" x2="183.25" y2="128.66" xlink:href="#test"/>
    <linearGradient id="test-9" data-name="test" x1="21.59" y1="153.39" x2="161.85" y2="153.39" xlink:href="#test"/>
    <linearGradient id="test-10" data-name="test" x1="20.79" y1="153.39" x2="162.65" y2="153.39" xlink:href="#test"/>
    <linearGradient id="test-11" data-name="test" x1="151.53" y1="128.63" x2="221.63" y2="128.63" xlink:href="#test"/>
    <linearGradient id="test-12" data-name="test" x1="151.03" y1="128.63" x2="222.13" y2="128.63" xlink:href="#test"/>
  </defs>
  <g id="Layer_1-2" data-name="Layer 1">
    <path class="cls-5" d="M97,31.65c-2.52,2.81-6.93,2.72-9.67,.32-2.03-1.78-3.43-5.08-2.4-8.11,1.21-3.58,4.62-5.09,7.54-4.52,.49,.09,4.27,.67,5.66,4.13,.28,.68,.61,1.78,.68,2.49,0,.05,0,.09,.01,.14,.15,2.08-.55,4.14-1.82,5.56Z"/>
    <path class="cls-1" d="M114.38,11.93c-2.03,3.18-6.4,3.8-9.49,1.87-2.29-1.43-4.2-4.46-3.68-7.62,.62-3.73,3.73-5.77,6.71-5.68,.5,.02,4.32-.03,6.26,3.16,.38,.63,.89,1.66,1.07,2.35,.01,.04,.02,.09,.03,.13,.48,2.02,.12,4.18-.9,5.78Z"/>
    <path class="cls-2" d="M78.52,20.13c-2.52,2.81-6.93,2.72-9.67,.32-2.03-1.78-3.43-5.08-2.4-8.11,1.21-3.58,4.62-5.09,7.54-4.52,.49,.09,4.27,.67,5.66,4.13,.28,.68,.61,1.78,.68,2.49,0,.05,0,.09,.01,.14,.15,2.08-.55,4.14-1.82,5.56Z"/>
    <path class="cls-6" d="M47.38,77.91c-4.47-3.41-6.68-7.88-6.67-13.5h0c.01-5.98,2.38-11.71,6.58-15.95h0c3.48-3.52,8.23-5.49,13.18-5.48l31.16,.09V214.29l-65.63-.33c-13.5-.07-22.16-14.39-15.95-26.38L52.69,105.33c1.68-3.24,2.55-6.83,2.54-10.47l-.02-9.27c0-2.4-1.49-4.55-3.73-5.41l-4.1-2.26Zm88.5,0c4.47-3.41,6.68-7.88,6.67-13.5h0c-.01-5.98-2.38-11.71-6.58-15.95h0c-3.48-3.52-8.23-5.49-13.18-5.48l-31.16,.09V214.29s65.63-.33,65.63-.33c13.5-.07,22.16-14.39,15.95-26.38l-42.64-82.26c-1.68-3.24-2.55-6.83-2.54-10.47l.02-9.27c0-2.4,1.49-4.55,3.73-5.41l4.1-2.26Z"/>
    <path id="COLOR_FILL_LEFT" data-name="COLOR FILL LEFT" class="cls-7" d="M51.48,80.17c2.24,.86,3.72,3.01,3.73,5.41l.02,9.27c0,3.65-.86,7.24-2.54,10.47L10.05,187.59c-6.21,11.99,2.44,26.31,15.95,26.38l65.63,.33V43.06l-31.16-.09c-4.95-.01-9.69,1.96-13.18,5.48h0c-4.2,4.25-6.57,9.98-6.58,15.95h0c-.01,5.63,2.19,10.09,6.67,13.5l4.1,2.26Z"/>
    <path id="COLOR_FILL_RIGHT" data-name="COLOR FILL RIGHT" class="cls-7" d="M131.77,80.17c-2.24,.86-3.72,3.01-3.73,5.41l-.02,9.27c0,3.65,.86,7.24,2.54,10.47l42.64,82.26c6.21,11.99-2.44,26.31-15.95,26.38l-66.99,.32V42.98h32.52c4.95-.01,9.69,1.96,13.18,5.48h0c4.2,4.25,6.57,9.98,6.58,15.95h0c.01,5.63-2.19,10.09-6.67,13.5l-4.1,2.26Z"/>
    <path class="cls-3" d="M64.36,110.38L21.59,198.02H161.85l-40.95-83.8c-.65-1.33-2.06-1.94-3.35-1.45l-24.82,9.45c-3.63,1.38-7.63,.7-10.73-1.81l-13.56-11.04c-1.36-1.11-3.29-.63-4.09,1.02Z"/>
    <path class="cls-7" d="M119.36,159.66l3.14-2.95-3.64-2.53v-2.89c0-1.85-.26-3.6-.67-5.6-.1-.48-.22-.95-.39-1.48l-.12-.37c-.21-.67-.49-1.31-.83-1.92-.36-.66-.74-1.31-1.23-2.01-1.42-2.07-3.15-4.15-7.57-6.73-.83-.49-4.35-2.28-4.35-2.28,0,0,1.14,10.48,1.18,14.85,.01,1.34-.1,2.68-.35,3.99l-.19,1.02-5.35-2.1c-1.09-.5-2.23-.89-3.42-1.13l-1.87-.26c-.59-.05-1.19-.05-1.73-.06,0,.04,0,.09,0,.14,0,.26,0,.56,0,.56,0,.03,0,.13-.01,.22,0,.05,0,.11,0,.15v.39s0,.02-.01,.04c0,.01,0,.03,0,.04,0,.03,0,.07,0,.1,0,.04,0,.08,0,.13l-.58,36.73h2.14c.27,0,.55-.22,.67-.46l.25-.47c.48-.94,.64-1.21,.98-1.8,.13-.22,.28-.43,.45-.62l.26-.28c.42-.46,.88-.88,1.39-1.24l9.99-7.11c1.07-.76,2.26-1.36,3.51-1.77l9.53-3.12c.65-.21,1.17-.69,1.43-1.31l.53-1.27-3.43-1.05,3.43-4.01-3.14-1.55Z"/>
    <path class="cls-7" d="M93.68,148.99v-.04s0-.06,0-.09c0-.02,0-.04,0-.06,0-.02,0-.05,0-.09,0-.01,0-.03,0-.04v-.39s.01-.1,.01-.15c0-.08,0-.15,.01-.22,0-.09,0-.36,0-.56,0-.05,0-.1,0-.14-.61,0-1.31,.01-1.89,.06l-2.02,.26c-1.29,.24-2.52,.64-3.69,1.13l-5.77,2.1-.21-1.02c-.26-1.32-.39-2.65-.38-3.99,.04-4.37,1.27-14.85,1.27-14.85,0,0-3.8,1.8-4.69,2.28-4.76,2.58-6.63,4.66-8.16,6.73-.52,.7-.93,1.36-1.32,2.01-.37,.61-.67,1.26-.9,1.92l-.13,.37c-.18,.53-.32,1-.42,1.48-.44,2-.72,3.74-.72,5.6v2.89l-3.93,2.53,3.39,2.95-3.39,1.55,3.69,4.01-3.69,1.05,.57,1.27c.28,.62,.85,1.1,1.54,1.31l10.28,3.12c1.35,.41,2.63,1.01,3.79,1.77l10.77,7.11c.55,.36,1.05,.78,1.5,1.24l.28,.28c.19,.19,.35,.4,.49,.62,.37,.59,.54,.86,1.06,1.8l.27,.47c.13,.24,.43,.46,.72,.46h1.07s.58-36.73,.58-36.73h0Z"/>
    <path class="cls-4" d="M151.85,118.65l4.05-6.37c.32-.51,.41-1.13,.23-1.7l-1.96-6.38c-.22-.73-.02-1.52,.52-2.05l3.81-3.78c.59-.58,1.47-.76,2.23-.44l6.38,2.65c.48,.2,1.01,.21,1.5,.03l6.37-2.37c.43-.16,.79-.45,1.03-.84l4.01-6.47c.37-.6,1.03-.97,1.74-.97h5.91c.83,0,1.58,.5,1.9,1.28l2.79,6.85c.21,.52,.62,.92,1.14,1.13l6.24,2.49c.51,.2,1.09,.19,1.59-.03l5.98-2.66c.83-.37,1.81-.15,2.4,.55l4.34,5.13c.52,.61,.63,1.47,.29,2.19l-2.89,6.15c-.25,.53-.26,1.15-.02,1.69l2.85,6.56c.2,.45,.55,.82,.99,1.03l5.2,2.49c.71,.34,1.16,1.06,1.16,1.85v6.3c0,.73-.39,1.4-1.01,1.77l-6.34,3.71c-.62,.36-1.45,.61-1.46,1.33l-2.8,7.52c0,.22,.31,.75,.38,.96l1.96,4.73c.26,.8,0,1.68-.64,2.22l-6.01,4.96c-.59,.48-1.39,.6-2.1,.31l-4.77-2c-.44-.19-.93-.21-1.39-.07l-7.25,2.22c-.52,.16-.95,.51-1.2,.99l-2.51,4.65c-.36,.66-1.05,1.08-1.8,1.08h-5.68c-.99,0-3.08-.47-3.25-1.45l-1.26-5.02c-.08-.44-.3-.84-.62-1.14l-2.69-2.49c-.17-.16-.31-.34-.42-.55l-18.98-35.96c-.34-.65-.31-1.43,.08-2.06Z"/>
    <circle class="cls-7" cx="183.01" cy="130.9" r="18.1"/>
  </g>
</svg>
