<svg width="289" height="315" viewBox="0 0 289 315" fill="none" xmlns="http://www.w3.org/2000/svg">
<path d="M200.087 67.1679C198.261 68.3987 196.439 69.5336 199.862 71.1907C200.489 71.4944 200.473 71.4518 200.891 71.1054C204.909 67.7806 208.831 64.3066 213.052 61.2535C216.047 59.0902 219.411 58.0299 223.102 60.337C225.599 61.8982 227.243 63.7844 227.415 66.7736C227.436 67.1199 227.468 67.4716 227.42 67.8073C226.911 71.7821 226.922 71.862 230.918 71.244C234.877 70.6366 238.767 71.3985 242.667 71.7342C245.013 71.9366 245.351 74.02 245.067 75.9168C244.681 78.5117 244.028 81.0693 243.486 83.6375C245.319 84.5593 247.135 83.5948 248.962 83.6002C249.101 83.5309 249.229 83.5469 249.342 83.6588C250.162 84.085 251.769 83.2219 251.71 85.0868C251.555 85.481 251.222 85.6622 250.831 85.7634C250.574 85.8114 250.269 85.8913 250.054 85.7741C249.272 85.3532 248.779 85.6515 248.388 86.3336C245.651 87.4205 242.656 87.2074 239.844 88.0386C238.354 88.4808 236.704 88.4009 235.177 88.9391C234.074 89.328 232.504 88.6727 231.893 88.9924C230.586 89.6797 229.381 90.106 227.951 90.074C227.238 89.8129 226.542 89.6584 226.033 90.4683C220.349 91.9815 214.477 92.5356 208.756 93.8784C203.43 95.1252 197.907 95.301 192.55 96.1695C188.553 96.8196 184.439 97.6135 180.48 98.7537C179.36 99.0734 178.246 99.4677 177.094 99.4997C173.435 99.5902 170.842 101.173 169.294 104.524C168.474 106.293 167.183 107.801 166.198 109.49C165.544 110.614 164.585 111.632 163.058 111.627C162.855 111.52 162.635 111.419 162.474 111.227C162.753 111.003 162.276 111.185 162.592 111.344C162.603 111.35 162.667 111.403 162.796 111.52C163.969 113.177 162.549 114.238 161.73 115.143C157.771 119.523 154.417 124.383 150.517 128.805C149.22 130.276 147.854 131.799 147.415 133.835C147.528 134.453 147.41 135.044 147.185 135.62C146.831 136.568 146.086 136.867 145.138 136.877C144.147 136.888 143.236 137.096 142.765 138.108C141.924 139.909 143.879 141.113 143.767 142.76C144.286 144.854 144.029 146.932 143.853 149.058C143.494 153.432 144.233 157.828 144.024 162.197C143.579 171.442 144.774 180.691 143.729 189.925C143.542 191.572 144.849 193.447 142.936 194.822C141.972 195.174 141.061 195.051 140.183 194.556C138.592 192.685 138.774 190.346 139.052 188.274C139.669 183.681 139.031 179.125 139.095 174.559C139.127 172.268 138.983 169.976 139.347 167.696C139.529 166.566 139.727 165.362 139.358 164.275C138.549 161.893 139.042 159.57 139.406 157.237C140.129 156.949 139.679 156.762 139.326 156.56C138.554 154.572 139.31 152.553 139.251 150.555C139.16 147.56 139.01 144.566 138.961 141.572C138.918 138.977 137.413 137.341 135.013 136.494C134.343 136.259 133.647 136.094 133.106 135.593C131.858 134.623 133.808 133.18 132.586 132.204C126.945 126.525 121.593 120.594 116.402 114.52C114.747 112.586 112.866 111.2 110.209 110.716C103.561 109.506 96.9927 107.822 90.5105 105.973C86.3586 104.785 81.8853 104.524 78.0709 102.222C77.8459 102.084 77.5727 102.02 77.3049 101.993C71.0369 101.444 65.0689 99.441 58.9456 98.2209C53.2562 97.086 47.8293 95.1518 42.2631 93.6652C41.8292 93.548 41.4328 93.3509 41.0578 93.1004C40.4256 92.3438 39.2095 91.9495 39.4934 90.6175C43.6025 90.3671 47.3257 92.1413 51.2472 92.8607C51.9865 93.2763 52.7473 92.6102 53.4866 92.9139C58.1581 93.9796 62.8939 94.7522 67.5654 95.8445C71.0369 96.6544 74.4495 97.6135 77.8192 98.743C78.3281 98.9136 78.821 99.116 79.362 99.132C79.7103 99.1427 80.1496 99.2546 80.3585 98.9562C80.6156 98.5992 80.2299 98.3221 80.0156 98.0557C75.8852 92.9193 72.044 87.5964 69.1779 81.634C68.4815 80.1901 67.244 80.0622 65.8029 80.0889C60.826 80.1688 55.8384 80.7442 50.8669 79.9237C49.8061 79.3429 48.3008 80.2647 47.465 78.9326L47.4757 78.9646C46.7579 77.6272 47.1704 77.0411 48.6811 76.9505C50.6151 76.8333 52.5598 76.748 54.4241 76.13C58.0777 76.1513 61.726 76.13 65.3796 76.2099C66.5314 76.2365 66.9493 76.2898 66.435 74.8459C64.6511 69.8 64.9403 65.0579 68.7922 60.8379C69.7511 59.7882 70.7637 58.8025 72.028 58.8025C76.5548 58.8025 81.0817 58.7066 84.0282 63.3901C84.7193 64.4877 86.8997 64.9513 88.1533 66.0702C90.0551 67.77 91.3783 70.0025 93.6712 71.3825C96.0016 72.7785 95.5516 70.0771 96.6445 69.6295C97.7213 69.1873 97.282 68.2815 96.4195 67.6314C95.2355 66.7416 93.9391 66.0383 92.7551 65.1112C90.7676 63.55 90.9015 62.0741 92.1337 60.4436C94.6034 57.1614 97.3249 54.0604 99.7303 50.7355C102.189 47.3308 103.202 43.7609 103.084 39.2105C102.902 32.2519 101.343 25.144 103.25 18.2386C104.305 14.4022 106.089 10.7684 107.546 7.04392C107.809 6.31928 107.921 5.52537 108.564 4.98722C110.23 3.31947 112.427 3.26619 114.152 4.20929C121.127 8.02964 127.036 13.1075 130.893 20.1621C132.056 22.288 133.631 22.629 135.677 22.4266C140.569 21.9417 145.454 21.4568 150.378 21.4195C152.451 21.4035 154.556 21.5954 156.533 21.8245C159.453 22.1602 160.91 20.8494 162.062 18.8087C165.876 12.0471 171.126 6.58569 177.367 2.06734C182.253 -1.47595 184.664 -0.516863 186.775 5.34954C188.516 10.1823 188.703 15.2175 188.794 20.2473C188.88 25.112 189.207 30.0033 188.339 34.8414C188.002 36.7009 189.619 37.708 190.418 38.8322C193.525 43.2014 195.903 47.9649 198.357 52.6644C199.841 55.5097 201.673 58.0246 203.623 60.4809C204.888 62.0741 205.091 63.2995 203.393 64.5783C202.482 65.6866 201.17 66.2887 200.077 67.1679H200.087Z" fill="#000001"/>
<path d="M189.914 314.691C184.97 314.335 180.47 312.278 175.809 310.903C157.128 305.388 138.367 300.076 119.954 293.778C112.577 291.258 106.593 293.235 100.175 295.627C99.4467 295.899 98.6431 295.979 97.877 296.144C96.5163 296.65 95.7448 298.217 94.0948 298.201C91.1965 298.238 88.534 297.567 85.9893 296.091C84.9607 295.494 83.5571 295.462 82.3088 295.313C74.6158 294.375 67.5764 291.253 60.3174 288.855C59.1281 288.461 57.8584 288.311 56.6262 288.045C55.0994 286.825 54.5637 285.599 56.6048 284.352C57.7405 283.718 58.8709 284.07 59.9691 284.443C64.5228 285.978 69.2318 286.958 73.7855 288.54C78.9766 290.341 84.4357 291.285 89.7233 292.824C91.8769 293.453 92.4555 292.894 92.4126 290.656C92.0912 272.497 92.2626 254.333 92.3055 236.174C92.3215 230.17 92.6483 224.159 92.359 218.154C92.3269 217.435 92.434 216.737 92.8144 216.108C94.1162 215.08 93.5323 213.817 93.2323 212.592C93.0019 211.11 91.7054 210.988 90.6447 210.652C81.5803 207.77 72.4569 205.079 63.4031 202.164C60.1138 201.104 56.9477 199.649 53.4494 199.308C51.3172 199.122 50.9743 197.699 51.1029 195.952C52.8494 194.071 55.3458 195.371 57.328 194.492C58.0084 194.209 59.0263 194.593 59.2941 193.501C59.2406 192.025 59.5031 190.554 59.1441 189.089C58.9673 187.144 59.0531 185.199 58.9995 183.26C58.9459 181.416 58.1798 180.803 56.3155 181.059C49.9832 181.917 43.6242 182.615 37.2652 183.27C36.2901 183.372 35.3205 183.521 34.3776 183.116C33.3812 182.343 32.9954 181.512 34.1151 180.526C36.333 179.215 38.7062 179.818 41.042 179.983C41.6581 179.407 42.4777 179.263 43.2224 178.965C44.8403 178.507 46.785 180.143 48.1671 178.192C50.0154 179.652 51.6118 177.372 53.3958 177.846C55.7691 178.278 57.8905 177.692 59.8084 176.274C59.1923 173.013 59.2084 169.715 59.262 166.417C59.2834 165.106 59.2673 163.796 59.2727 162.485C59.4656 161.744 59.0102 161.014 59.2459 160.274C59.2459 153.672 59.4334 147.06 59.1923 140.468C59.0316 136.067 58.9995 131.672 58.9727 127.27C58.9727 126.961 59.1709 126.652 59.2727 126.343C58.528 124.116 59.7763 122.693 61.2924 121.372C62.7013 121.345 62.771 122.464 62.8781 123.386C63.4567 128.277 63.7674 133.195 64.0728 138.108C64.121 138.913 63.9871 139.696 63.5799 140.405C63.0067 141.012 63.1513 141.571 63.7246 142.099C64.4639 144.225 64.4532 146.388 64.4585 148.626C64.4692 153.661 64.6246 158.718 64.4424 163.737C64.2496 169.044 64.571 174.335 64.5603 179.626C64.5496 185.258 64.0781 190.932 64.6674 196.575C64.8014 197.88 65.6853 197.843 66.4782 198.099C72.5051 200.022 78.6552 201.504 84.7571 203.177C85.1 203.273 85.4375 203.384 85.7696 203.518C86.4393 203.811 86.9964 204.418 87.8322 204.258C89.1983 204.13 90.4786 204.402 91.7162 204.978C98.7449 208.27 106.433 209.65 113.638 212.389C121.02 215.192 128.949 216.247 136.112 219.684C138.399 220.781 139.337 220.286 139.905 217.92C140.156 216.886 140.644 216.14 141.79 215.991C142.562 216.146 142.765 216.758 142.931 217.398C143.537 218.708 142.39 221.479 145.631 220.595C147.887 221.191 149.446 219.337 151.465 218.948C160.08 217.286 168.207 213.737 177.009 212.613C181.096 212.091 185.136 210.727 189.18 209.666C197.522 207.477 205.981 205.756 214.365 203.741C219.99 202.393 225.695 201.402 231.288 199.953C234.696 199.074 234.921 198.45 234.797 195.035C234.744 193.618 234.674 192.2 234.851 190.783C235.151 189.84 235.156 188.897 234.856 187.948C234.835 182.428 234.133 176.93 234.16 171.41C234.181 166.822 234.101 162.234 234.256 157.647C234.358 154.572 234.01 151.493 233.913 148.413C233.667 140.58 233.962 132.759 234.101 124.931C234.112 124.207 233.79 123.274 234.813 122.853C236.303 123.269 236.897 124.564 237.653 125.704C239.056 130.888 238.451 136.195 238.601 141.454C238.746 146.5 238.965 151.551 238.917 156.597C238.853 162.98 239.046 169.364 239.035 175.741C239.024 180.91 238.697 186.105 239.078 191.279C239.121 191.859 239.421 192.531 238.687 192.941C238.472 192.898 238.403 192.973 238.483 193.175C238.505 193.223 238.58 193.239 238.687 193.239C239.512 194.268 239.126 195.371 238.917 196.474C238.569 198.307 240.165 199.772 241.906 199.495C242.903 199.335 243.985 199.607 245.019 199.767C251.63 200.774 258.235 201.834 264.83 202.889C267.991 203.395 271.211 204.338 274.387 204.919C277.532 205.489 280.773 205.425 283.623 207.146C285.066 208.13 284.989 209.02 283.393 209.816C279.905 210.503 276.455 211.355 272.989 212.149C271.832 212.416 270.723 212.059 269.855 211.174C269.566 210.727 269.378 210.263 269.609 209.73C270.38 208.798 271.489 208.611 271.966 208.526C268.13 208.063 263.614 208.185 259.242 206.992C257.689 206.571 256.028 206.763 254.512 206.299C250.719 205.137 246.728 205.217 242.903 204.317C241.226 203.923 239.597 203.933 237.937 204.541C233.555 206.134 229.178 207.796 224.453 208.137C223.21 208.004 222.101 208.494 220.976 208.894C219.17 209.757 217.21 209.858 215.265 210.029C215.002 210.05 214.606 210.066 214.558 210.285C214.456 210.764 214.965 210.78 215.238 210.817C218.822 211.286 222.042 213.076 225.728 213.391C229.017 213.673 232.146 215.133 235.435 215.741C236.555 216.433 235.638 217.414 235.788 218.245C235.772 218.922 235.467 219.438 234.931 219.833C227.179 220.355 219.77 222.747 212.152 223.999C210.025 224.346 207.845 224.239 205.783 225.278C204.743 225.8 203.216 226.061 201.947 225.241C201.411 224.564 200.345 224.202 200.624 223.046C201.449 222.38 202.413 222.209 203.436 222.273C204.159 222.801 204.202 221.836 204.636 221.714C210.609 220.936 216.368 218.906 222.454 218.783C224.136 218.751 225.637 217.653 227.34 217.574C227.485 217.552 227.64 217.574 227.785 217.643C227.753 217.472 227.592 217.606 227.506 217.531C226.922 217.627 226.954 216.753 226.537 216.844C222.76 217.627 219.529 215.49 216.015 214.909C212.559 214.339 209.088 213.796 205.815 212.458C205.793 212.453 205.691 212.405 205.552 212.442C200.415 213.78 194.929 213.577 189.973 215.559C185.307 217.424 180.454 218.181 175.573 218.911C173.655 219.199 171.727 219.332 169.921 220.078C169.648 220.904 169.841 221.937 168.86 222.449C168.271 222.683 167.687 222.673 167.125 222.417C166.782 221.346 166.412 222.326 166.037 222.417C160.139 221.5 154.712 224.117 149.007 224.639C143.322 225.161 137.724 225.268 132.195 223.349C126.651 221.426 120.961 219.929 115.363 218.154C112.974 217.398 113.108 217.488 113.295 219.966C113.568 223.547 114.179 227.143 113.477 230.74C113.038 231.32 113.017 231.896 113.509 232.471C114.163 234.587 114.254 236.713 114.254 238.94C114.254 244.636 113.879 250.337 114.308 256.033C114.19 258.004 114.024 259.976 114.142 261.953C114.431 268.986 114.495 276.014 114.163 283.058C113.922 288.141 114.426 288.588 119.29 289.675C124.931 290.933 130.278 293.256 135.871 294.497C141.169 295.675 146.221 297.604 151.53 298.717C156.544 299.767 161.355 301.765 166.31 303.182C173.323 305.186 180.293 307.317 187.15 309.811C188.43 310.274 189.432 310.131 189.679 308.5C189.834 307.461 190.38 306.694 191.506 306.481C192.314 306.577 192.534 307.184 192.711 307.834C193.016 309.15 193.027 310.514 193.289 311.841C193.788 314.681 191.313 314.025 189.936 314.665L189.914 314.691Z" fill="#000001"/>
<path d="M45.917 284.353C45.7402 284.337 45.5634 284.315 45.392 284.299C44.7491 283.164 43.5545 283.665 42.6277 283.383C40.1258 282.999 37.8115 282.189 35.449 281.198C32.3578 279.903 28.8113 279.696 25.6559 278.513C21.9701 277.133 17.9683 276.888 14.3843 275.039C13.3396 274.501 13.645 273.435 12.7503 273.185C12.6164 275.284 11.6628 273.696 10.8967 273.749C8.22346 273.936 6.13949 271.783 3.29479 272.284C2.09477 272.497 -0.2892 272.012 0.192951 268.965C0.723318 265.624 0.225095 262.123 0.192951 258.697C0.123307 249.154 -0.0963398 239.606 0.0483058 230.068C0.246524 217.009 0.723318 203.949 1.09833 190.895C1.10904 190.469 1.3019 190.048 1.40905 189.627C2.05727 189.062 1.61798 188.306 1.76262 187.65C2.04656 186.387 2.7805 185.466 4.13052 185.716C5.52341 185.972 4.73589 187.064 4.66089 187.858C4.6341 188.114 4.70375 188.38 4.73589 188.647C5.49126 197.896 5.48591 207.168 5.19126 216.423C4.86982 226.461 5.07876 236.505 4.84839 246.543C4.82161 247.7 4.8859 248.856 4.09302 249.82C2.92514 250.88 3.92159 252.079 3.88409 253.209C4.47874 256.816 4.31803 260.445 4.27517 264.068C4.23231 267.739 4.52696 267.888 7.91809 269.013C16.7843 271.954 25.7684 274.49 34.7097 277.175C38.6258 278.353 42.558 279.504 46.4795 280.655C47.4063 280.926 48.4028 281.113 49.0939 281.907C49.4581 282.429 49.2921 282.898 48.9492 283.351C48.676 283.628 48.3438 283.793 47.9742 283.894C47.2831 284.012 46.592 284.155 45.917 284.347V284.353Z" fill="#050405"/>
<path d="M288.37 290.783C289.548 292.734 289.066 293.991 286.848 294.678C281.753 296.261 276.584 297.369 271.334 298.36C268.28 298.936 264.814 299.133 261.846 300.966C260.153 302.01 257.689 301.578 255.637 301.712C254.389 301.797 253.312 302.276 252.433 302.644C249.851 303.726 247.146 303.657 244.504 304.12C242.758 304.424 241.038 304.504 239.42 305.553C238.167 306.369 236.554 306.816 234.931 306.715C234.674 306.353 234.519 306.417 234.454 306.832C233.892 306.987 233.329 307.147 232.767 307.301C231.872 307.583 230.956 306.971 230.061 307.365C228.058 308.974 225.534 308.495 223.263 309.022C217.081 310.455 210.915 311.979 204.695 313.21C202.68 313.61 200.736 314.665 198.571 314.254C197.725 314.697 196.836 314.366 195.963 314.388C195.137 314.409 193.991 315.054 193.648 313.935C193.37 313.034 194.361 312.427 195.105 311.931C195.4 311.734 195.7 311.542 196.032 311.425C196.375 311.388 196.745 311.287 196.9 311.75C198.641 309.198 201.695 309.097 204.143 308.708C208.959 307.94 213.341 305.996 217.954 304.712C219.77 304.205 221.618 304.083 223.434 303.736C235.558 301.403 247.403 297.913 259.462 295.307C267.444 293.581 275.4 291.721 283.403 290.107C285.675 290.235 285.102 288.551 285.193 287.299C285.214 287.064 285.268 286.835 285.337 286.606C285.975 285.652 285.75 284.24 286.945 283.569C287.314 283.468 287.662 283.5 287.995 283.692C288.589 284.288 289.082 285.226 288.525 285.77C286.768 287.475 288.112 289.11 288.37 290.773V290.783Z" fill="#010102"/>
<path d="M287.411 211.462C288.268 218.352 288.37 225.273 288.402 232.2C288.429 237.166 288.718 242.131 288.691 247.092C288.654 253.475 288.836 259.859 288.825 266.242C288.82 271.416 288.504 276.605 288.852 281.784C288.889 282.312 289.35 283.042 288.429 283.345C288.279 283.548 288.086 283.596 287.85 283.527C287.421 283.356 286.955 283.313 286.521 283.138C285.97 282.919 285.386 282.754 284.984 282.274C284.796 281.949 284.727 281.598 284.732 281.23C284.957 280.282 284.909 279.339 284.636 278.406C284.727 272.987 283.902 267.611 283.955 262.192C284.004 257.514 283.907 252.836 284.046 248.158C284.137 245.089 283.795 242.009 283.709 238.924C283.479 230.308 283.714 221.692 283.805 213.077C283.816 212.016 283.971 210.956 284.47 209.975C286.548 208.393 286.655 208.452 287.421 211.467L287.411 211.462Z" fill="#020203"/>
<path d="M61.4317 121.542C60.8746 123.221 58.8442 124.238 59.2728 126.354C58.4531 123.988 58.871 121.537 58.8817 119.129C58.8817 118.084 59.0424 117.663 57.6174 117.344C55.4798 116.864 54.8959 114.296 53.2405 112.959C51.6119 111.643 50.203 110.06 48.6976 108.595C48.4297 108.142 48.644 107.449 47.9851 107.188C46.6297 106.138 45.4404 104.95 44.7493 103.346C44.4279 102.766 43.5921 102.851 43.2921 102.243C41.3689 99.5794 38.5456 97.5973 37.3027 94.4216C36.917 93.4306 36.8634 92.5461 38.0313 92.0239C40.351 92.1038 41.1117 94.2831 42.4135 95.5512C44.9422 98.0075 47.4386 100.501 50.0958 102.83C50.6958 103.357 51.1566 104.012 51.4298 104.78C50.8405 106.133 52.1155 105.472 52.5119 105.765C55.1316 107.471 57.5852 109.346 58.3728 112.586C58.5442 113.284 58.8388 113.118 59.2781 112.985C60.0281 112.756 60.5478 113.23 60.7621 113.79C61.6407 116.118 63.7568 116.294 65.7283 116.747C67.9194 118.42 70.7855 117.248 73.0837 118.463C79.491 119.177 85.55 121.468 91.8716 122.624C95.2895 123.247 98.9003 123.535 102.061 125.283C102.822 125.746 103.299 126.705 104.386 126.599C107.242 125.517 109.781 126.753 112.363 127.67C113.156 128.89 114.265 127.419 115.143 127.979C115.674 128.155 116.092 128.469 116.392 128.938C116.815 130.025 117.249 131.112 115.631 131.623C113.343 131.975 111.393 130.489 109.175 130.451C105.291 129.705 101.445 128.783 97.5985 127.883C86.7769 125.357 75.832 123.295 65.2193 119.939C63.2746 119.326 61.9996 119.347 61.4317 121.526V121.542Z" fill="#030202"/>
<path d="M221.672 39.4663C221.827 38.9441 222.165 38.6138 222.706 38.4965C223.933 38.4859 223.188 37.6707 223.252 37.1805C222.283 35.7738 221.993 34.2073 222.149 32.5396C224.768 30.0832 225.567 30.2431 227.238 33.5946C227.64 34.3991 228.234 35.0225 228.802 35.6939C231.224 38.5711 231.106 39.4023 228.026 41.8267C225.963 43.9633 223.445 45.3966 220.659 46.3184C219.047 46.8512 217.349 46.8672 215.731 46.1586C215.468 46.1373 215.249 46.036 215.056 45.8655L215.109 45.9188C214.504 45.1302 214.697 44.0379 214.054 43.26C213.186 42.205 212.698 41.0914 214.081 40.1057C215.474 39.1146 216.556 39.7327 217.424 40.9689C217.525 41.1127 217.665 41.2246 217.766 41.3685C218.404 42.2476 218.125 41.0701 218.383 41.0967C219.068 41.1234 219.749 41.1447 220.434 41.1713C221.029 40.7291 222.106 40.6332 221.677 39.4556L221.672 39.4663Z" fill="#EC75FD"/>
<path d="M70.3889 41.3684L70.4157 41.5336L70.2657 41.6082C68.8781 42.2635 70.271 44.4961 68.396 44.8691H68.4388C65.1602 45.7376 64.7209 45.4445 64.0941 42.0877C63.9655 41.411 63.987 40.6917 63.6548 40.0577C63.5477 39.0773 62.5352 38.976 62.0262 38.3899C62.3637 36.7861 61.1209 36.9833 60.2583 36.9726C59.3047 36.9619 58.3565 37.3349 57.419 37.3989C55.9458 37.4948 54.7189 37.0419 55.3029 35.1077C55.9993 32.4969 57.2529 31.623 60.3173 31.8042C61.8066 31.8895 63.2798 32.1345 64.7048 31.5005L65.2084 32.0067C66.5799 35.3208 68.1817 38.5071 70.3889 41.3631V41.3684Z" fill="#6971FC"/>
<path d="M47.1762 54.4761C46.8922 54.151 46.6137 53.8207 46.3297 53.4957C46.4583 52.3181 45.7029 52.2009 44.8672 52.414C43.9565 52.6432 42.9975 52.6698 42.1189 53.0321C40.0189 54.1351 39.4832 56.341 38.4224 58.1792L38.4653 58.1472C36.7028 58.1312 36.6545 56.5701 36.0438 55.5044C35.5617 54.6626 35.3045 53.7354 34.9295 52.8563C34.7688 51.716 35.4599 51.423 36.4188 51.1619C38.7439 50.5385 40.6832 49.2704 42.1939 47.3842C43.3993 46.4198 44.7118 46.4411 46.0726 46.9899C47.6422 47.9383 49.2012 48.9027 50.7709 49.8405C51.1512 50.5491 52.1798 50.2135 52.5655 50.9221C53.5352 54.0605 52.8923 54.9023 49.753 54.881C48.8476 54.8757 48.0547 54.4921 47.1815 54.4707L47.1762 54.4761Z" fill="#EC75FC"/>
<path d="M5.13745 185.231C6.53033 184.251 8.20715 184.038 9.79825 183.793C16.1198 182.823 22.4681 182.002 28.8057 181.123C29.3468 180.67 29.9897 180.921 30.5897 180.862C32.7969 180.638 33.2094 181.656 32.4165 183.5C27.82 184.901 23.0146 184.938 18.3002 185.498C16.0984 185.759 13.9555 186.249 11.7965 186.659C11.1268 186.787 12.1983 186.952 12.1501 187.272C12.6322 187.949 12.3162 188.529 11.9411 189.1C9.55717 189.776 6.07497 188.844 4.85352 187.208C5.07852 186.569 4.77851 185.849 5.13745 185.231Z" fill="#0C0C0D"/>
<path d="M237.294 47.0324C238.242 46.5315 239.19 46.036 240.139 45.5352C240.76 46.2758 241.414 46.5901 242.405 46.0627C243.492 45.4872 244.612 45.5778 245.592 46.4143C245.989 46.6594 246.401 46.8832 246.846 47.0484C248.378 47.5013 249.321 49.0518 250.992 49.2489C253.489 50.5277 252.455 53.2558 253.457 55.1526C251.705 57.0175 250.167 56.895 248.903 54.6731C248.175 53.389 247.746 51.9291 246.53 50.9593C243.01 49.0625 240.315 51.0712 237.626 52.8881C237.048 53.2771 236.662 53.682 236.115 52.9627C235.381 51.6946 235.408 50.1175 234.465 48.9293C234.846 48.6362 235.231 48.3431 235.612 48.0448C236.324 47.9489 236.753 47.3947 237.299 47.0271L237.294 47.0324Z" fill="#85CCFC"/>
<path d="M261.321 82.5239C262.055 81.762 262.687 80.366 263.989 81.4369C265.65 82.8063 264.01 84.6392 263.464 85.252C260.994 88.0333 259.301 91.4487 256.371 93.8358C253.606 95.2531 252.235 94.8108 251.919 92.4184C253.285 89.3334 255.894 87.1914 257.962 84.6392C258.974 83.7707 258.985 81.325 261.316 82.5239H261.321Z" fill="#060606"/>
<path d="M237.647 125.725C236.27 125.277 235.574 124.116 234.781 123.05C234.074 122.283 234.219 121.367 234.304 120.466C234.433 119.768 234.513 119.123 233.426 119.539C230.184 120.072 227.029 120.956 223.836 121.654C222.513 121.942 221.168 121.958 220.113 120.844C219.791 120.386 219.604 119.896 219.765 119.326C223.365 116.678 227.447 115.452 231.888 115.314C232.708 115.287 233.49 115.42 234.042 116.118C234.492 117.12 236.126 116.486 236.372 117.781C238.253 120.2 238.381 122.89 237.652 125.725H237.647Z" fill="#080706"/>
<path d="M252.573 92.317C252.423 93.1003 252.15 93.9315 253.494 93.8622C254.448 93.8143 255.412 93.8462 256.366 93.8409C254.046 96.9206 251.694 99.9791 249.433 103.101C248.903 103.831 248.469 103.448 247.885 103.405C247.124 103.347 245.989 102.974 246.058 104.465C245.303 105.211 244.414 105.414 243.407 105.089C243.048 104.583 243.198 104.103 243.482 103.629C245.812 99.702 248.769 96.2226 251.448 92.5462C251.7 92.1998 252.107 91.9494 252.567 92.3277L252.573 92.317Z" fill="#0C0C0C"/>
<path d="M243.519 104.993C244.29 104.46 245.169 104.412 246.064 104.46C246.203 105.068 248.035 104.892 246.894 106.043C243.562 109.41 241.135 113.555 237.535 116.688C236.281 116.838 236.099 115.82 235.713 115.026C237.326 110.923 239.437 107.204 243.514 104.993H243.519Z" fill="#09090A"/>
<path d="M47.4706 78.9275C48.4778 79.6255 49.8225 78.123 50.7332 79.4337C51.9118 82.652 52.6672 86.0194 54.1672 89.1311C54.4779 89.7812 54.5208 90.4898 54.2529 91.1931C53.7761 91.9231 53.2832 92.6318 52.2172 92.2961C50.4332 88.4438 48.6974 84.5701 46.8331 80.7551C46.3456 79.7587 46.7688 79.3698 47.4653 78.9275H47.4706Z" fill="#121212"/>
<path d="M45.917 284.353C46.4848 284.028 47.0474 283.708 47.6152 283.383C47.867 283.617 48.1777 283.601 48.4885 283.617C49.3188 283.66 48.3813 283.308 48.5795 283.218C48.7563 282.93 48.9385 282.637 49.1152 282.349C51.9492 282.264 54.7886 282.163 56.6422 284.923C54.9225 285.962 56.5457 287.011 56.6261 288.061C53.0528 286.825 49.4849 285.594 45.9116 284.358L45.917 284.353Z" fill="#141415"/>
<path d="M227.919 41.651C230.554 39.3173 230.415 37.2339 227.437 35.2785C226.954 34.9641 226.628 34.2341 226.478 33.6374C225.851 31.1171 224.753 30.6482 222.894 32.6516C222.797 32.7529 222.406 32.5824 222.149 32.5397C222.786 31.3302 223.295 29.4973 225.036 30.2752C226.231 30.8134 228.465 30.7548 228.085 33.4242C227.94 34.4526 229.387 35.71 230.121 36.8503C232.001 39.7648 231.465 41.1235 228.031 42.1306C227.86 42.056 227.785 41.9601 227.812 41.8429C227.838 41.7097 227.87 41.6457 227.919 41.6457V41.651Z" fill="#37273E"/>
<path d="M261.321 82.5238C258.755 81.8099 260.041 84.9908 258.482 85.2998C257.614 84.3887 256.676 85.1507 255.771 85.1986C254.335 85.2732 252.9 86.1204 251.464 85.2093C251.437 83.7813 249.739 84.5965 249.348 83.6534C252.932 82.9661 256.516 82.2787 260.1 81.5967C260.828 81.4582 261.3 81.7139 261.321 82.5238Z" fill="#2A2928"/>
<path d="M218.383 41.1072C218.731 42.029 220.006 41.0699 220.274 42.0183C220.317 42.1728 219.899 42.5618 219.626 42.6897C218.485 43.2225 218.131 42.1462 217.536 41.5974C217.086 41.1871 216.76 40.6223 216.277 40.2653C215.318 39.562 214.772 40.3239 214.07 40.8941C213.192 41.6027 213.497 41.8318 214.209 42.386C215.367 43.2811 215.688 44.5226 215.104 45.9239C211.606 43.2545 211.375 41.9171 213.926 39.3222C216.877 36.3224 216.813 40.7182 218.383 41.1019V41.1072Z" fill="#2D1F33"/>
<path d="M64.7047 31.5006C63.7726 33.6319 61.9243 32.5822 60.5261 32.513C58.1635 32.3957 56.2564 32.7048 55.4045 35.225L55.2224 35.4062L55.0242 35.241C52.9938 31.4207 56.0367 31.3034 58.3242 31.0743C60.4243 30.8665 62.6368 30.4989 64.6994 31.4953L64.7047 31.5006Z" fill="#0D0E17"/>
<path d="M70.389 41.3686C67.18 39.0615 65.546 35.8912 65.2085 32.0122C67.4157 32.3106 67.196 34.3407 67.8228 35.726C68.4764 37.17 68.4228 39.2053 70.9943 38.6246C71.8193 38.4381 71.7015 39.1574 71.4765 39.6103C71.1711 40.223 70.7532 40.7878 70.389 41.3686Z" fill="#181922"/>
<path d="M55.0295 35.2465C55.1527 35.2146 55.2813 35.2092 55.4045 35.2306C55.4902 37.0795 56.4438 37.0582 57.9064 36.5573C59.5189 36.0032 61.1903 36.0032 62.6957 37.0475C63.1082 37.3299 63.8208 37.5697 63.4618 38.1558C63.2957 38.4275 62.5189 38.3316 62.0207 38.4009C59.5993 37.1647 57.1831 37.7455 54.8045 38.5181C54.2367 38.6993 53.6741 39.3067 53.2081 38.6673C52.8384 38.1611 53.4116 37.6336 53.8402 37.4258C54.7938 36.9569 54.1241 35.6941 55.0242 35.2572L55.0295 35.2465Z" fill="#191B2D"/>
<path d="M227.919 41.6508C227.876 41.832 227.919 41.9972 228.031 42.1357C226.735 44.8425 224.142 45.6364 221.565 46.4569C220.89 46.9045 220.129 47.1602 219.369 47.416C218.651 47.5279 217.938 47.8423 217.215 47.4426C216.336 47.2348 215.747 46.7393 215.56 45.8282C216.61 44.2883 217.29 46.3237 218.436 46.1159C221.688 45.5245 224.495 44.3416 226.767 41.9652C227.142 41.5709 227.469 41.523 227.913 41.6455L227.919 41.6508Z" fill="#1B0B27"/>
<path d="M236.399 52.8083C237.492 52.2222 238.713 51.7906 239.651 51.018C242.008 49.0892 244.296 48.9346 246.696 50.8421C246.856 51.0979 246.781 51.2684 246.498 51.359C242.908 50.1548 240.01 51.311 237.631 54.0231C235.371 56.602 235.853 53.5223 235.151 52.8775C235.547 52.4939 235.96 52.4779 236.394 52.8083H236.399Z" fill="#1A3044"/>
<path d="M42.6435 47.4799C41.0256 49.7017 39.081 51.4387 36.1934 51.7211C35.5398 51.7851 35.2291 51.9982 35.3255 52.6642C35.5238 53.2823 35.2398 53.4422 34.6773 53.3356C33.5309 51.9396 32.9148 50.8526 35.5934 50.5596C37.9131 50.3092 39.7131 48.8172 41.5078 47.4372C41.8989 47.1815 42.2792 47.1602 42.6435 47.4799Z" fill="#1F1028"/>
<path d="M253.232 55.4402C252.358 54.4278 251.914 53.2556 252.064 51.9289C252.214 50.6128 251.646 49.8562 250.403 49.5258C250.092 49.2221 250.098 48.9237 250.403 48.6254C250.489 48.6147 250.585 48.6147 250.665 48.5881C253.74 47.4851 254.008 49.3234 253.462 51.4653C253.06 53.0531 255.149 54.4545 253.607 55.989C253.365 55.8824 253.237 55.6959 253.221 55.4349L253.232 55.4402Z" fill="#0F171D"/>
<path d="M47.1758 54.4758C47.8776 53.895 48.708 54.1135 49.4312 54.2733C52.4527 54.9553 52.6562 53.2343 52.3562 51.0178C52.8598 50.6768 53.433 50.0214 53.5616 51.2948C53.8777 52.7068 54.4134 54.8168 53.0848 55.2218C51.2848 55.7706 48.9222 56.362 47.1811 54.4758H47.1758Z" fill="#321F3D"/>
<path d="M253.232 55.4402C253.36 55.6267 253.489 55.8078 253.617 55.9943C250.355 57.5395 248.56 56.9267 247.789 53.7458C247.548 52.7547 246.23 52.5096 246.498 51.3694C246.562 51.1935 246.626 51.023 246.696 50.8525C248.067 51.2095 248.603 52.4404 249.144 53.474C250.387 55.8398 250.296 55.8877 253.232 55.4455V55.4402Z" fill="#374550"/>
<path d="M196.365 311.665C195.609 312.374 194.109 313.519 194.227 313.711C194.913 314.862 196.241 313.541 197.259 314.159C197.591 314.361 198.122 314.239 198.567 314.265C195.749 315.731 192.797 314.521 189.92 314.697C190.413 313.397 193.547 314.777 192.641 312.054C193.777 310.914 194.983 310.424 196.37 311.671L196.365 311.665Z" fill="#262525"/>
<path d="M38.4222 92.2104C37.324 92.594 37.4847 93.5957 37.3025 94.4376C37.174 94.2138 37.0186 94.0007 36.9168 93.7662C36.4079 92.5834 34.8489 91.3525 35.9257 90.175C36.7829 89.2372 38.2615 90.4894 39.4883 90.6172C39.6865 91.5603 41.1062 91.555 41.1008 92.6633C40.0615 93.3613 39.3383 92.2104 38.4168 92.2157L38.4222 92.2104Z" fill="#272624"/>
<path d="M63.6547 40.0631C64.6136 39.9032 64.3565 40.3615 64.4475 41.0754C64.7154 43.3027 65.2993 45.5086 68.4387 44.8692C67.5387 46.4303 65.9744 46.2279 64.7368 45.8389C63.7297 45.5192 63.6707 44.2031 63.7243 43.1322C63.7779 42.1091 63.1832 41.1021 63.6547 40.0684V40.0631Z" fill="#1C213C"/>
<path d="M34.6777 53.3359C34.892 53.1121 35.1117 52.8883 35.3259 52.6646C36.4242 54.4655 36.676 56.7407 38.4599 58.1473C38.7385 58.6748 39.6171 59.1224 38.7974 59.8204C38.0849 60.4331 37.6831 59.7778 37.3831 59.2876C36.2313 57.4173 34.8759 55.6324 34.6724 53.3306L34.6777 53.3359Z" fill="#3E1F4D"/>
<path d="M288.065 283.324C288.188 283.276 288.311 283.281 288.424 283.351C289.35 285.839 288.766 288.311 288.365 290.789C287.674 289.094 284.604 287.533 288.166 285.604C288.729 285.301 288.129 284.486 287.888 283.942C287.663 283.66 287.722 283.452 288.059 283.329L288.065 283.324Z" fill="#1B1B1B"/>
<path d="M54.4349 76.1245C52.9509 77.6057 50.7223 77.7496 49.1258 77.5897C47.4169 77.4192 47.6847 78.1066 47.4812 78.9591C46.4847 79.1829 46.2169 78.6021 46.3026 77.8029C46.4258 76.6786 47.4919 76.4921 48.2473 76.4122C50.2937 76.1884 52.367 76.1991 54.4295 76.1191L54.4349 76.1245Z" fill="#121212"/>
<path d="M287.411 211.462C286.532 211.1 286.853 207.733 284.764 210.423C284.073 210.258 283.468 209.949 283.061 209.342C284.18 208.676 284.228 208.478 283.618 207.168C286.912 206.795 287.32 207.248 287.411 211.462Z" fill="#262627"/>
<path d="M245.603 46.5529C244.221 46.5316 242.876 46.3132 241.488 46.9152C240.342 47.4161 239.962 46.6169 240.138 45.5352C241.955 45.5619 243.755 43.8781 245.592 45.4873C245.908 45.8389 245.876 46.1959 245.597 46.5529H245.603Z" fill="#11151C"/>
<path d="M94.1001 298.206C95.1662 297.167 95.6751 295.116 97.8823 296.149C97.802 298.297 96.1466 299.197 94.1001 298.206Z" fill="#535354"/>
<path d="M5.13785 185.231C5.18071 185.982 5.22892 186.728 5.27178 187.479C4.89142 187.874 4.74141 188.508 4.09854 188.63C3.96461 188.412 3.87354 188.135 3.69139 187.975C2.82352 187.234 5.49678 186.611 3.85747 186.201C3.03245 185.993 1.94493 186.931 2.05208 188.284C2.09493 188.801 1.97172 189.334 1.41992 189.616C1.57528 185.183 1.95565 184.735 5.13785 185.226V185.231Z" fill="#464647"/>
<path d="M32.5187 183.158C32.1919 180.83 30.3651 181.208 28.7954 181.128C30.5044 180.393 32.3151 180.5 34.1098 180.532C33.6598 181.256 34.0884 181.96 34.1527 182.674C33.7884 183.436 33.3062 183.824 32.5133 183.158H32.5187Z" fill="#262626"/>
<path d="M59.8081 176.285C58.576 178.203 55.142 179.045 53.3955 177.857C55.4098 176.829 57.917 177.809 59.8081 176.285Z" fill="#373637"/>
<path d="M50.7814 50.3251C48.976 49.6857 47.4546 48.5721 45.9438 47.4425C45.9813 46.526 46.4742 46.6326 47.0582 46.9469C48.2635 47.6929 49.4743 48.4389 50.6796 49.1901C51.06 49.5365 51.0225 49.9254 50.7814 50.3251Z" fill="#584860"/>
<path d="M38.4224 58.1793C38.9474 55.8935 39.4617 53.6023 42.1778 52.8457C42.2956 52.931 42.3385 53.0269 42.3064 53.1228C42.2742 53.224 42.2421 53.272 42.2099 53.272C40.9456 54.9077 39.6813 56.5435 38.4224 58.1793Z" fill="#4A2558"/>
<path d="M42.2099 53.272C42.2367 53.1281 42.2259 52.9842 42.1777 52.8404C43.2224 51.6788 44.6206 51.7108 46.0028 51.7481C46.7582 51.7694 47.101 52.4354 47.235 52.9736C47.3743 53.5171 46.7367 53.4744 46.3296 53.4957C45.0278 52.1477 43.5545 53.8634 42.2099 53.272Z" fill="#261132"/>
<path d="M47.0633 46.9472C46.6936 47.1124 46.3186 47.2775 45.949 47.4427C44.8454 47.0378 43.7418 46.9152 42.6489 47.48C42.2686 47.464 41.8882 47.448 41.5132 47.4374C43.2436 45.8922 44.99 44.5282 47.0686 46.9472H47.0633Z" fill="#2B232D"/>
<path d="M236.399 52.8082C235.987 52.8295 235.569 52.8561 235.156 52.8774C234.921 51.5613 234.69 50.2453 234.46 48.9292C236.705 49.4301 235.847 51.4654 236.405 52.8082H236.399Z" fill="#1E2435"/>
<path d="M250.409 48.6254C250.409 48.9238 250.409 49.2275 250.409 49.5259C248.619 49.8136 248.1 47.8155 246.658 47.4692C246.348 46.7872 246.31 46.2703 247.317 46.3716C248.346 47.1229 249.38 47.8741 250.409 48.6201V48.6254Z" fill="#11151C"/>
<path d="M236.089 115.101C236.978 115.266 236.978 116.231 237.54 116.689C237.149 117.051 236.758 117.419 236.367 117.781C235.923 116.62 233.994 118.452 233.903 116.577C234.551 115.964 234.83 114.808 236.094 115.101H236.089Z" fill="#3B3A39"/>
<path d="M68.396 44.8693C69.6442 44.134 68.1067 41.8215 70.2657 41.6084C70.1907 41.9494 69.9335 42.413 70.0675 42.6101C71.6746 44.9812 69.9871 44.8799 68.396 44.8746V44.8693Z" fill="#252737"/>
<path d="M52.2172 92.2961C52.769 91.9125 53.3208 91.5342 53.878 91.1505C54.628 90.9907 54.8101 91.4756 54.794 92.0403C54.7726 92.9035 54.194 93.2392 53.3958 93.2978C52.6351 93.3618 51.8583 93.5163 51.2476 92.8556C51.569 92.6691 51.8958 92.4826 52.2172 92.2961Z" fill="#524E48"/>
<path d="M50.7815 50.3253C50.7493 49.947 50.7172 49.5687 50.6797 49.1904C51.3761 49.4568 51.6654 50.8422 52.9404 49.6753C53.369 49.281 54.2048 50.3626 53.5565 51.3004C53.2833 50.6397 52.7797 50.9967 52.3511 51.0233C51.8261 50.7889 51.3065 50.5598 50.7815 50.3253Z" fill="#8D8790"/>
<path d="M248.962 83.5946C247.14 84.3779 245.319 84.7988 243.487 83.6319C245.319 84.3033 247.13 82.8593 248.962 83.5946Z" fill="#2A2928"/>
<path d="M237.294 47.0325C237.503 47.4054 238.499 47.4854 237.889 48.1354C237.187 48.8814 236.34 48.7215 235.606 48.0448C235.698 46.9259 236.49 46.9685 237.299 47.0271L237.294 47.0325Z" fill="#0F1820"/>
<path d="M221.672 39.4663C222.074 39.4983 222.894 39.5249 222.754 39.7487C222.256 40.5373 221.865 41.7948 220.435 41.182C220.847 40.6119 221.26 40.0364 221.672 39.4663Z" fill="#4F2063"/>
<path d="M230.056 307.376C230.913 305.607 231.851 307.04 232.762 307.312C231.872 307.946 230.983 308.468 230.056 307.376Z" fill="#363637"/>
<path d="M42.6274 283.383C43.8167 282.898 45.0864 282.163 45.3918 284.299C44.481 283.958 43.3132 284.395 42.6274 283.383Z" fill="#141415"/>
<path d="M200.088 67.1677C200.838 65.8516 202.14 65.2388 203.404 64.5781C202.89 66.1873 201.518 66.7201 200.088 67.1677Z" fill="#272728"/>
<path d="M43.2224 178.976C42.6867 179.716 42.1509 180.468 41.042 179.994C41.2241 178.502 42.1188 178.518 43.2224 178.976Z" fill="#828282"/>
<path d="M247.317 46.3771C246.835 46.5849 246.691 46.9951 246.658 47.4747C246.032 47.48 245.753 47.0911 245.603 46.5582C245.603 46.2012 245.598 45.8442 245.598 45.4926C246.401 45.3487 246.867 45.8549 247.323 46.3824L247.317 46.3771Z" fill="#0F171D"/>
<path d="M43.2971 102.255C43.8864 102.489 45.5525 101.317 44.7543 103.357C43.7792 103.629 43.2328 103.342 43.2971 102.255Z" fill="#B2B2B3"/>
<path d="M59.2461 160.284C59.5675 161.019 60.3443 161.744 59.2728 162.495C58.721 161.765 58.4478 161.03 59.2461 160.284Z" fill="#424142"/>
<path d="M238.681 193.261C238.044 193.272 237.363 193.794 236.785 193.138C236.731 193.074 236.833 192.813 236.929 192.696C237.653 191.838 238.092 192.888 238.681 192.968C238.746 193.069 238.746 193.165 238.681 193.266V193.261Z" fill="#B1AFAB"/>
<path d="M234.449 306.843C234.567 306.182 233.131 306.459 233.667 305.575C233.78 305.394 234.096 305.159 234.246 305.202C235.028 305.431 234.696 306.214 234.926 306.726L234.712 306.87L234.455 306.838L234.449 306.843Z" fill="#838383"/>
<path d="M215.559 45.8335C216.111 46.3716 216.663 46.9098 217.215 47.448C215.94 47.6771 215.356 46.9578 215.05 45.8708C215.222 45.9028 215.393 45.8868 215.559 45.8335Z" fill="#1E1424"/>
<path d="M223.252 37.186C223.686 37.5803 224.426 37.8733 223.863 38.6459C223.429 39.248 223.011 39.1468 222.706 38.4967C222.888 38.0598 223.07 37.6229 223.252 37.1807V37.186Z" fill="#35223E"/>
<path d="M108.581 4.9873C108.388 5.74392 108.307 6.55381 107.563 7.04401C107.364 6.09558 107.279 5.20043 108.581 4.9873Z" fill="#3D3D3E"/>
<path d="M47.9902 107.199C49.1849 107.188 49.1903 107.769 48.7027 108.606C48.0277 108.36 48.1724 107.7 47.9902 107.199Z" fill="#7C7C7C"/>
<path d="M219.369 47.4215C219.969 46.8087 220.692 46.4624 221.565 46.4624C221.072 47.3309 220.285 47.5121 219.369 47.4215Z" fill="#1E1424"/>
<path d="M235.001 119.923C234.926 120.967 234.851 122.012 234.776 123.056C234.369 129.439 234.374 135.86 234.46 142.216C234.503 145.573 234.31 149.111 234.974 152.638C235.623 156.075 234.851 159.938 234.856 163.62C234.862 168.895 234.599 174.202 235.055 179.439C235.306 182.322 235.719 185.151 235.333 188.034C235.349 188.929 235.29 189.83 235.365 190.725C235.419 191.785 235.499 192.845 235.526 193.906C235.671 199.458 234.642 200.566 229.103 201.397C221.078 202.607 213.277 204.876 205.37 206.608C201.368 207.482 197.447 208.953 193.236 209.054C191.077 209.107 189.197 210.551 187.011 210.967C183.534 211.627 180.18 212.954 176.693 213.53C171.346 214.414 166.091 215.4 160.959 217.259C157.23 218.613 153.271 219.369 149.366 220.163C148.048 220.43 146.976 221.927 145.417 221.021C144.389 221.565 143.687 221.442 143.746 220.105C143.885 216.87 144.057 213.647 144.003 210.397C143.971 208.558 144.014 206.704 143.708 204.908C143.221 202.042 144.067 199.074 142.948 196.282C142.755 195.68 142.449 195.083 142.83 194.449C143.698 194.028 143.36 193.202 143.36 192.584C143.387 185.913 143.36 179.248 143.349 172.577C143.349 168.069 143.912 163.46 143.14 159.086C142.68 156.475 144.469 153.843 142.599 151.173C142.214 150.624 143.189 147.694 143.446 145.85C143.612 144.667 142.615 143.474 143.349 142.243C142.824 140.836 142.932 139.248 142.133 137.916C142.433 136.142 143.714 136.089 145.117 136.211C145.766 136.27 146.783 136.909 146.585 135.407C148.916 134.474 151.557 134.538 153.801 133.76C158.687 132.061 163.857 132.194 168.78 130.713C172.637 129.556 176.795 129.242 180.754 128.23C181.809 127.958 182.87 127.057 184.032 127.99C184.739 128.683 185.747 129.21 185.463 130.478C185.286 134.171 185.393 137.868 185.377 141.556C185.731 142.318 184.943 143.399 186.063 143.943C189.057 143.639 191.779 142.078 194.838 142.104C196.006 142.163 197.024 141.71 198.015 141.177C199.59 140.527 201.224 140.112 202.917 139.973C203.576 139.883 204.352 140.133 204.776 139.339C205.884 136.334 204.518 133.43 204.433 130.478C204.374 128.384 204.277 126.269 205.724 124.5C206.618 123.408 207.829 122.965 209.227 122.901C210.39 122.848 211.477 122.449 212.527 121.964C213.101 121.74 213.711 121.841 214.301 121.745C215.747 121.857 217.135 121.649 218.463 121.053C219.079 120.749 219.599 120.088 220.419 120.504C222.46 121.942 224.517 120.903 226.344 120.216C228.787 119.294 231.471 119.891 233.801 118.676C234.824 118.5 235.306 118.841 235.012 119.928L235.001 119.923Z" fill="#FDEACD"/>
<path d="M61.4315 121.543C60.7993 118.117 62.7226 118.415 64.9619 119.134C71.8835 121.362 78.955 123.003 86.048 124.564C92.1928 125.917 98.3161 127.388 104.418 128.922C105.972 129.311 107.836 128.198 109.1 129.892C112.202 131.528 115.497 132.311 119.016 132.087C120.859 132.38 122.606 132.066 124.277 131.267C124.513 131.357 124.706 131.507 124.856 131.709C125.279 133.26 126.592 133.537 127.899 133.776C129.013 133.984 130.176 133.92 131.247 134.368C131.938 134.629 132.688 134.757 133.229 135.322C138.608 136.712 139.454 136.787 139.845 144.337C140.054 148.397 139.744 152.489 139.663 156.565C139.926 156.794 139.904 156.997 139.599 157.173C139.712 162.006 140.14 166.817 139.797 171.682C139.503 175.912 140.162 180.196 139.995 184.443C139.872 187.624 139.792 190.794 139.888 193.97C141.099 196.703 140.558 199.644 140.938 202.468C141.56 207.05 140.724 211.702 141.726 216.252C141.313 216.785 140.66 217.259 140.531 217.851C139.845 221.09 139.851 221.17 139.422 220.936C138.11 220.222 136.695 220.915 135.126 220.03C132.061 218.309 128.408 217.606 124.979 216.54C114.768 213.37 104.525 210.306 94.3517 207.029C92.1499 206.321 90.2963 204.525 87.7141 205.036C87.157 204.701 86.5248 204.504 86.0051 204.093C79.1157 202.292 72.221 200.486 65.3316 198.69C64.5119 198.477 64.244 198.131 64.019 197.172C62.9636 192.744 63.9976 188.311 63.778 183.878C63.3922 176.061 63.6922 168.213 63.6655 160.38C63.644 154.647 63.5422 148.909 63.5315 143.175C63.5315 142.584 63.344 142.163 63.0279 141.737C62.6797 141.375 62.9958 141.018 63.044 140.661C63.5797 136.798 63.3012 132.892 62.6422 129.13C62.2029 126.61 63.3762 123.802 61.4315 121.543Z" fill="#F9D8A1"/>
<path d="M118.695 86.355C115.524 84.5007 112.24 82.8117 109.234 80.7124C108.174 79.9717 107.134 79.6893 106.036 79.4709C101.82 78.629 99.6716 75.5173 97.9359 72.1019C97.3895 71.0309 98.5788 69.7841 99.1681 68.7877C100.197 67.0401 99.6341 66.2302 98.0912 65.2285C96.9234 64.4719 95.193 64.3653 94.668 62.7242C96.2376 61.179 97.952 61.163 100.181 61.2589C106.797 61.536 113.231 63.0013 119.761 63.7366C127.422 64.5997 135.131 65.74 142.417 68.5799C145.353 71.6224 150.046 71.9048 153.207 69.214C155.585 67.5569 158.66 67.4024 160.991 66.2142C164.66 64.3386 168.523 63.5074 172.327 62.5164C177.293 61.2216 182.334 60.0334 187.686 61.2909C189.936 61.8184 192.523 62.2233 195.031 61.211C196.525 60.6089 198.245 60.822 199.14 62.6389C198.304 65.1432 195.877 66.2089 194.2 67.9405C192.941 69.2406 192.02 70.2903 194.072 71.5211C195.272 72.2404 194.956 72.7679 194.2 73.6631C192.518 75.6558 190.375 76.9879 188.238 78.4052C185.811 80.0143 183.582 81.9272 181.268 83.7015C177.636 85.4651 174.293 87.8309 170.296 88.8326C169.589 89.0084 169.021 89.4347 168.576 89.9942C168.185 90.5696 168.668 90.9373 168.919 91.3582C169.428 92.4505 169.927 93.5374 170.553 94.5658C171.094 95.4503 171.234 96.3401 170.162 97.0061C168.1 100.352 164.901 102.75 162.759 106.096C159.983 110.423 156.598 114.366 153.523 118.511C153.008 119.204 152.071 119.902 152.896 121.005C153.115 121.292 153.062 121.66 152.703 121.921C148.61 124.852 146.172 129.311 142.605 132.727C141.271 134.005 140.226 135.215 138.469 132.897C136.867 130.782 134.403 129.365 132.87 127.111C132.42 126.45 132.254 126.471 131.965 127.207C131.826 127.553 131.012 127.921 131.081 127.35C131.354 125.081 129.324 124.324 128.285 123.077C124.369 118.383 120.168 113.923 116.076 109.378C117.077 107.455 116.74 105.276 117.286 103.219C118.443 98.8763 120.19 94.7363 121.331 90.3938C122.06 87.6231 120.817 86.8825 118.679 86.355H118.695Z" fill="#FBFEFE"/>
<path d="M142.256 68.9209C131.312 65.5428 119.879 64.8182 108.677 62.8361C105.168 62.218 101.525 62.7188 98.0698 61.52C96.7787 61.0724 96.2216 63.4328 94.6733 62.7242C95.2251 60.497 97.0734 59.1223 98.7073 58.03C100.765 56.6606 101.434 54.8171 102.098 52.7763C102.559 52.3181 102.415 51.4496 103.17 51.1885C104.649 47.7092 106.084 44.2085 107.649 40.7718C107.852 40.3295 107.895 39.4824 109.234 39.6582C110.584 39.8393 110.504 38.0331 110.686 36.8449C110.82 35.9764 109.545 35.1185 110.708 34.298C112.149 34.5004 113.456 33.7385 114.908 33.7971C116.386 33.8557 115.995 32.497 115.749 31.847C115.138 30.2485 115.224 28.4902 114.645 26.961C113.033 22.6984 115.342 19.7199 117.656 16.6775C120.11 18.4464 121.615 21.0147 123.163 23.4763C125.097 26.5614 127.31 28.5115 130.792 26.3429C131.563 25.8634 132.645 25.7781 133.599 25.6875C142.824 24.7924 152.039 23.6255 161.291 25.5969C165.694 26.5347 169.032 25.0055 171.41 21.02C173.13 18.1427 175.311 15.5266 177.4 12.8784C177.903 12.239 178.846 11.9407 179.586 11.4824C179.832 12.5054 180.786 13.1981 180.812 14.3437C180.92 18.9952 181.466 23.6521 179.72 28.1971C179.382 29.0763 180.105 30.3604 180.341 31.458C180.711 32.0122 180.737 32.7688 181.38 33.1577C183.764 33.616 183.727 36.1096 184.825 37.2285C186.866 39.3065 187.6 41.7842 188.891 44.0753C192.143 49.8511 194.897 55.904 198.818 61.2962C199.086 61.6638 199.707 62.0208 199.161 62.6283C198.443 61.8503 197.173 61.3601 196.557 61.7118C193.825 63.273 190.879 61.7917 188.029 62.4205C187 62.6496 184.654 61.7544 182.87 61.4507C181.675 61.2482 180.673 61.1843 179.778 62.0475C179.446 62.3672 179.168 62.575 178.648 62.5483C172.471 62.2233 167.055 64.6264 161.43 66.747C158.875 67.7114 156.116 68.3721 153.576 69.5603C150.239 65.8732 147.855 65.6227 143.462 68.4947C143.092 68.7344 142.744 69.0008 142.262 68.9049L142.256 68.9209Z" fill="#FEAB36"/>
<path d="M214.027 121.98C213.748 122.646 213.384 122.161 213.047 122.049C211.081 121.468 209.195 121.98 207.282 122.411C204.17 123.109 201.079 123.994 197.848 123.983C196.498 123.983 195.523 124.761 194.452 125.358C193.386 125.779 192.218 125.15 191.162 125.677C189.968 126.066 188.725 126.194 187.498 126.413C186.85 126.477 186.202 126.471 185.553 126.493C184.3 126.487 183.089 126.732 181.905 127.127C175.176 129.343 168.212 130.388 161.226 131.379C159.217 131.666 157.283 132.428 155.221 132.386C154.84 132.407 154.492 132.556 154.138 132.673C151.749 132.945 149.708 134.789 147.131 134.213C147.078 133.643 145.717 133.297 146.435 132.86C148.192 131.8 148.454 129.732 149.703 128.517C152.537 125.757 154.663 122.459 157.219 119.502C159.105 117.323 160.76 114.952 162.576 112.708C162.999 112.186 163.005 111.808 162.667 111.318L162.619 111.382C165.94 110.732 166.524 107.535 167.826 105.307C170.071 101.466 172.557 98.9722 177.4 98.5513C181.948 98.1623 186.469 96.9688 190.98 96.063C194.773 95.301 198.636 94.7202 202.407 94.246C206.923 93.6759 211.279 92.3918 215.79 91.827C219.272 91.3901 222.791 90.6654 226.295 90.0687C226.579 89.781 226.911 89.6584 227.313 89.7437C234.47 88.4116 241.633 87.0795 248.79 85.7528C249.262 85.2999 249.985 85.8114 250.446 85.3212L251.469 85.2146C253.151 84.9056 254.828 84.4794 256.526 84.3408C257.174 84.2875 258.637 83.4403 258.492 85.3052C256.355 87.5058 254.164 89.6584 252.583 92.3225C249.583 96.5585 246.187 100.517 243.529 104.998C240.658 108.078 237.861 111.216 236.099 115.106C235.504 115.793 235.231 116.955 233.908 116.582C230.313 115.548 227.045 116.188 223.895 118.207C222.775 118.921 221.27 119.038 219.941 119.427C219.395 120.456 218.291 120.056 217.477 120.392C216.229 120.701 214.729 120.482 214.038 121.99L214.027 121.98Z" fill="#F9D8A1"/>
<path d="M38.4224 92.2104C39.3974 91.88 40.2385 92.3436 41.1063 92.658C44.5403 93.4039 48.0654 94.2085 51.2583 95.3701C56.4388 97.2563 61.9299 97.6132 67.0407 99.4994C67.2925 99.59 67.5765 99.8085 67.7908 99.7499C69.339 99.3289 70.539 99.3822 72.0391 100.501C73.5819 101.652 75.7355 101.391 77.8195 101.039C78.7035 100.89 79.9892 102.648 81.516 103.011C91.8716 105.451 102.206 107.977 112.54 110.497C114.527 110.982 115.583 112.671 116.82 114.051C120.736 118.399 124.444 122.938 128.515 127.137C130.101 128.773 131.654 130.441 133.229 132.087C133.379 132.599 133.085 132.854 132.672 133.046C129.913 132.902 127.283 132.028 124.567 131.613L124.62 131.65C122.547 131 120.351 130.84 118.315 130.009C117.527 129.689 116.606 129.695 116.049 128.911L114.988 128.4C114.136 127.728 113.038 128.666 112.186 127.99C109.577 127.681 107.075 126.141 104.333 127.281C103.974 126.258 102.784 126.386 102.163 125.725C92.3591 123.503 82.55 121.281 72.7462 119.059C70.5551 117.861 68.3158 116.854 65.7175 117.227C63.4193 116.933 60.8263 117.189 60.2103 113.987C60.0978 113.396 59.5942 112.825 59.2299 114.024C58.9995 114.781 58.1638 114.706 57.6334 114.498C56.6638 114.125 57.5424 113.507 57.5745 112.985C57.7566 110.332 55.2977 109.325 54.0709 107.556C53.653 106.948 52.8655 106.597 52.2494 106.128C52.019 105.67 51.5637 105.408 51.2583 105.009C46.8868 100.832 42.4296 96.7501 38.4277 92.2104H38.4224Z" fill="#DBAB67"/>
<path d="M118.695 86.3548C120.27 85.3104 121.417 86.5359 122.375 87.3298C122.976 87.8254 122.279 89.0029 122.209 89.8607C121.856 94.2992 119.402 98.1089 118.32 102.35C117.752 104.561 119.07 107.844 116.086 109.383C114.393 106.586 111.2 107.146 108.747 106.575C104.247 105.531 99.7947 104.295 95.3 103.235C94.025 102.931 92.7607 102.574 91.4749 102.324C88.5445 101.753 86.9802 99.6434 85.0141 97.6027C80.7765 93.2016 78.1943 87.868 75.1407 82.7795C74.9639 82.4865 74.905 82.1348 74.7871 81.8044C77.755 80.9732 79.8658 78.437 83.0212 77.8509C84.9123 77.4992 85.7534 75.7409 86.2891 73.9826C86.5838 73.0022 86.4659 71.8086 87.7088 71.3291C95.6696 77.8402 104.772 82.5024 113.777 87.3352C115.272 88.1397 116.906 88.193 118.384 88.3102C120.109 88.4434 119.022 87.1167 118.695 86.3548Z" fill="#FEAB36"/>
<path d="M170.173 97.0115C170.95 94.6671 168.051 93.4256 168.416 91.2037C168.196 90.8574 167.885 90.5483 167.939 90.0848C167.864 89.4294 167.966 88.6675 168.662 88.5822C173.285 88.0014 176.639 84.1971 181.278 83.7015C180.984 84.1225 180.341 84.7033 180.448 84.927C180.85 85.7529 181.418 84.975 181.932 84.8791C189.775 83.3819 195.968 78.7463 202.273 74.3185C202.916 73.8709 203.597 73.4766 204.261 73.061C205.766 73.6898 205.279 75.7571 206.72 76.4285C207.674 77.1851 209.088 77.5474 209.082 79.1352C210.149 80.9735 211.879 81.9539 213.781 82.6892C214.413 82.9343 215.217 82.8277 215.559 83.6163C214.231 84.9803 214.74 87.1489 212.881 88.5343C211.3 89.7118 209.827 90.3565 207.984 90.6496C206.49 90.884 204.62 90.4684 203.929 92.5091C203.838 92.7755 203.8 93.1698 203.334 92.6637C201.791 90.9959 199.766 91.1718 198.775 93.1645C198.384 93.9478 197.923 93.8359 197.741 93.4629C196.922 91.7525 195.829 92.8342 194.763 93.01C186.571 94.3687 178.375 95.6901 170.178 97.0222L170.173 97.0115Z" fill="#FEAB36"/>
<path d="M53.3958 93.2978C53.8941 92.6584 55.0244 92.1575 53.878 91.1505C53.5351 88.188 51.7512 85.7157 51.0708 82.8651C50.7976 81.7301 49.9726 80.6592 50.7387 79.4283C56.3852 79.7747 62.0371 79.6628 67.6783 79.3431C68.8568 79.2738 69.0551 79.9079 69.3765 80.5686C72.5373 87.0477 76.657 92.8822 81.2749 98.3969C81.6607 98.8605 82.3089 99.6863 82.1696 99.8995C81.6071 100.725 80.9964 99.8249 80.3803 99.697C73.7694 98.333 67.2497 96.6066 60.7567 94.7577C58.7263 94.1823 56.5245 94.1556 54.3923 93.9798C53.8298 93.9318 53.6958 93.5748 53.4012 93.2978H53.3958Z" fill="#FDE8C2"/>
<path d="M242.308 75.1602C241.081 78.0482 240.958 80.984 240.492 83.8666C240.278 85.1987 238.601 85.4224 237.797 85.5823C234.074 86.3176 230.345 87.0582 226.569 87.5804C223.702 87.9747 220.499 87.5218 217.954 89.5305C217.783 89.6691 217.552 89.733 217.349 89.8342C217.354 89.424 217.209 88.9178 217.392 88.6141C218.399 86.9357 219.727 85.4065 220.488 83.6322C221.71 80.7656 224.351 78.7248 224.935 75.4746C225.186 74.0626 226.633 73.5564 228.069 73.6097C232.263 73.7642 236.453 73.9667 240.647 74.1159C241.521 74.1479 242.19 74.3077 242.319 75.1709L242.308 75.1602Z" fill="#FDE8C2"/>
<path d="M215.565 83.6107C212.377 83.6107 210.331 81.7511 208.611 79.3694C209.297 77.0143 208.981 76.62 206.485 76.7266C204.561 76.2097 205.043 74.2596 204.267 73.0607C208.558 69.656 211.504 64.5941 217.172 62.8678C218.94 62.3296 221.003 61.3865 222.197 62.969C223.654 64.9032 224.806 67.2849 223.89 70.013C223.172 72.1443 221.822 73.844 220.569 75.6556C218.785 78.2291 217.22 80.9572 215.565 83.616V83.6107Z" fill="#FAFDFD"/>
<path d="M87.7088 71.329C86.5945 78.714 80.3426 79.8329 74.7925 81.799C72.7996 78.8419 70.9299 75.8154 69.5853 72.5172C68.0531 68.7608 69.3228 64.6634 72.3657 63.2354C76.0836 61.4878 81.4355 62.8518 83.2034 66.2192C84.3123 68.3346 86.3802 69.4855 87.7142 71.329H87.7088Z" fill="#FAFDFD"/>
<path d="M117.65 16.6829C117.474 17.269 117.458 17.9883 117.093 18.4305C113.499 22.789 114.929 27.1955 116.692 31.7085C116.756 31.879 118.149 35.6514 114.575 34.3993C113.386 33.9837 111.983 35.7526 110.702 34.3087C110.933 29.4547 111.002 24.5793 111.479 19.7466C111.677 17.7538 112.727 15.8303 113.466 13.9068C113.836 12.9478 114.425 13.4433 114.875 13.8855C115.813 14.802 116.724 15.7504 117.645 16.6829H117.65Z" fill="#FDB249"/>
<path d="M154.685 131.698C158.574 131.208 162.437 130.196 166.273 129.844C172.937 129.231 179.082 126.583 185.655 125.832C186.732 126.413 186.475 127.265 186.025 128.049C185.543 128.89 184.782 128.864 184 128.432C182.318 127.681 180.802 128.858 179.393 129.221C176.178 130.052 172.777 130.068 169.76 131.038C166.916 131.949 164.023 132.279 161.189 132.988C156.855 134.07 152.435 134.842 148.042 135.689C147.592 135.775 147.072 135.508 146.585 135.402L147.131 134.203C149.376 133.334 151.578 132.317 154.048 132.199C154.599 132.455 154.31 131.645 154.696 131.698H154.685Z" fill="#090705"/>
<path d="M141.726 216.257C139.637 215.048 140.381 212.879 140.44 211.286C140.601 206.72 140.247 202.212 139.856 197.688C139.749 196.463 139.872 195.211 139.894 193.975C140.874 194.134 141.849 194.289 142.829 194.449C143.038 194.982 143.253 195.509 143.462 196.042C143.687 201.722 143.826 207.396 142.637 213.007C142.401 213.796 143.269 214.158 143.36 214.819C143.456 216.018 143.928 217.334 142.353 218C142.219 217.392 142.363 216.689 141.726 216.257Z" fill="#0B0705"/>
<path d="M142.128 137.917C142.958 138.055 143.981 137.89 143.542 139.382C143.28 140.277 143.397 141.284 143.344 142.243C143.36 140.682 140.381 139.957 142.128 137.917Z" fill="#F5CF92"/>
<path d="M132.592 132.721C132.806 132.508 133.021 132.295 133.235 132.082C134.263 132.849 134.269 132.855 133.513 133.478C132.865 134.016 133.304 134.704 133.229 135.316C132.469 135.215 131.547 135.775 131.006 134.778C130.829 133.553 132.083 133.419 132.592 132.716V132.721Z" fill="#82612B"/>
<path d="M181.375 33.1685C179.725 33.3922 180.625 32.0708 180.335 31.4688C181.112 31.7778 181.209 32.4918 181.375 33.1685Z" fill="#844211"/>
<path d="M162.657 111.312C162.4 111.371 162.116 111.371 161.902 111.499C161.478 111.749 161.093 112.069 160.691 112.362C160.691 112.133 160.594 111.818 160.707 111.685C161.237 111.078 161.778 110.204 162.614 111.376L162.662 111.312H162.657Z" fill="#B5A690"/>
<path d="M227.308 89.7385C226.97 89.845 226.627 89.9569 226.29 90.0635C226.268 89.5893 225.363 89.1097 225.968 88.79C226.44 88.5396 227.168 88.9765 227.308 89.7385Z" fill="#E5C99F"/>
<path d="M103.17 51.1939C102.961 51.8227 102.811 52.4887 102.099 52.7817C102.468 52.2596 101.134 50.5972 103.17 51.1939Z" fill="#52220D"/>
<path d="M139.599 157.173L139.663 156.565C140.296 157.279 141.485 155.707 141.538 156.661C141.603 157.78 140.226 156.762 139.599 157.173Z" fill="#987F5B"/>
<path d="M250.435 85.3105C249.985 85.8433 249.407 85.8806 248.78 85.7421C248.812 83.6321 250.007 85.9126 250.435 85.3105Z" fill="#2A2928"/>
<path d="M283.066 209.341C283.95 209.208 284.877 209.011 284.769 210.423C284.598 215.82 284.512 221.229 284.239 226.621C283.993 231.512 284.598 236.387 284.362 241.295C284.282 242.984 283.8 245.158 284.989 246.921C285.702 247.971 284.4 248.706 284.411 249.601C284.459 255.026 284.561 260.45 284.716 265.874C284.791 268.581 284.759 271.33 285.268 273.968C285.584 275.593 285.139 277.021 285.118 278.534C285.139 279.429 285.069 280.324 285.155 281.214C285.203 281.56 285.257 281.907 285.305 282.258C286.323 283.612 285.675 285.109 285.68 286.553C285.653 286.713 285.669 286.867 285.728 287.016C285.284 288.428 286.023 290.538 283.516 290.741C278.212 291.86 272.903 292.979 267.599 294.108C260.646 295.584 253.772 297.396 246.797 298.808C243.042 299.57 239.34 301.046 235.622 301.786C232.445 302.415 229.467 303.683 226.268 304.109C221.088 304.802 216.009 305.841 211.059 307.663C207.255 309.059 203.189 309.752 199.236 310.738C198.389 310.946 197.404 310.578 197.243 312.134C197.162 312.89 197.039 311.143 196.375 311.654C195.073 311.239 193.921 312.198 192.646 312.038C192.003 310.94 193.075 309.598 192.137 308.543C192.732 307.354 191.891 306.283 191.853 305.148C191.907 304.493 191.446 303.982 191.323 303.374C191.671 297.209 192.657 291.077 192.25 284.88C191.966 276.648 193.059 268.421 192.02 260.173C191.709 257.695 192.748 255.116 192.437 252.537C192.014 249.063 192.464 245.541 191.837 242.073C191.677 241.178 192.116 240.341 192.282 239.478C192.866 236.494 192.518 233.601 191.253 230.862C190.353 228.912 191.184 227.67 192.657 226.562C195.85 226.051 198.898 224.697 202.214 224.852C204.111 225.31 205.782 224.836 207.566 224.069C209.039 223.434 210.839 223.6 212.436 223.195C217.938 221.809 223.6 221.186 229.081 219.63C230.833 219.135 232.922 218 234.867 219.502C235.74 221.607 234.679 223.834 235.269 225.955C235.252 228.086 234.963 230.223 235.188 232.359C235.424 233.052 234.727 234.022 235.831 234.448C238.815 234.118 241.537 232.594 244.585 232.594C245.629 232.663 246.503 232.205 247.365 231.715C249.085 231.091 250.847 230.638 252.674 230.457C253.339 230.366 254.11 230.628 254.549 229.85C255.374 228.161 254.951 226.424 254.71 224.724C254.453 222.918 254.233 221.111 254.297 219.284C254.635 218.133 254.372 216.902 254.742 215.751C254.887 215.362 255.117 215.042 255.428 214.771C257.33 212.89 260.26 213.817 262.285 212.277C262.719 211.995 263.169 211.755 263.705 211.755C265.248 212.368 266.753 212.245 268.237 211.542C268.858 211.227 269.389 210.588 270.214 210.961C272.887 212.064 275.223 211.552 277.516 209.81C278.078 209.384 279.359 209.991 280.296 209.911C281.228 209.831 282.262 210.055 283.077 209.336L283.066 209.341Z" fill="#FDEACD"/>
<path d="M4.0931 188.631C4.10381 187.863 4.21096 187.187 5.26634 187.474C7.3878 188.013 9.4182 188.924 11.6522 189.009C15.3219 188.966 18.6327 190.607 22.1577 191.215C22.9667 191.556 23.8399 191.636 24.6971 191.769C24.9435 191.806 25.1846 191.87 25.4203 191.939C27.3221 192.398 29.1489 193.218 31.1686 193.117C34.1847 194.342 33.8954 196.98 33.7883 199.442C33.7079 201.296 33.2311 203.118 33.2258 204.994C33.2258 208.318 33.4615 208.697 36.6169 209.8C37.5276 210.119 38.4437 210.428 39.6652 210.492C38.208 209.928 36.8151 209.848 35.7169 209.075C34.5758 208.276 33.5258 207.359 34.9615 205.91C35.4919 205.75 35.974 205.899 36.4401 206.15C37.7205 207.461 39.1134 208.191 41.117 207.967C43.1313 207.738 46.5332 210.039 47.026 211.574C45.9921 212.427 44.8403 211.707 43.3135 211.798C45.7403 212.773 47.8939 213.199 50.0368 213.652C50.685 213.796 51.3386 214.089 51.9172 213.476C52.2761 209.816 52.3886 206.155 52.2761 202.489C52.2333 201.077 52.0297 199.644 53.5297 198.76C55.2762 197.843 56.8887 199.079 58.212 199.569C69.5211 203.763 81.1945 206.773 92.6697 210.418C94.4376 210.977 94.8823 211.643 93.5269 213.055C93.3769 213.945 93.8323 214.835 93.5376 215.725C92.2947 218.932 93.4733 222.231 93.2483 225.502C92.8037 232.034 93.1412 238.62 93.1412 245.19C93.1412 251.094 93.1144 257.003 93.0983 262.906C93.0823 268.549 92.8412 274.202 93.1198 279.829C93.318 283.862 92.8037 287.901 93.484 291.935C93.9126 294.482 91.6894 294.508 90.3126 293.943C84.0446 291.365 77.2302 290.805 70.8926 288.359C67.0782 286.889 62.9424 285.994 58.9298 284.928C58.1637 284.726 57.4084 284.406 56.6423 284.912C54.4244 283.207 51.6386 283.154 49.1154 282.338C41.1652 279.861 33.2419 277.298 25.1899 275.135C19.7309 273.669 14.3844 271.778 8.98426 270.078C8.89855 270.052 8.80747 270.057 8.72176 270.025C3.20915 268.149 3.32166 268.149 3.48237 262.134C3.56273 259.102 3.9431 256.017 3.08594 253.006C4.10381 252.069 3.30023 250.833 3.6163 249.783C4.51096 246.144 4.2431 242.393 4.2806 238.727C4.31275 235.317 4.46811 231.885 4.35025 228.47C4.0181 218.879 4.95561 209.299 4.41453 199.697C4.2056 196.021 4.39846 192.307 4.08774 188.62L4.0931 188.631Z" fill="#F9D8A1"/>
<path d="M166.943 222.05L169.027 222.183C170.805 223.184 172.428 222.188 174.1 221.783C174.336 221.879 174.523 222.028 174.673 222.231C175.22 223.85 176.639 224.005 178.032 224.213C179.152 224.383 180.271 224.533 181.391 224.724C184.15 225.699 187.289 225.31 189.818 227.085C190.659 228.657 189.572 230.282 189.947 231.87C189.888 232.562 189.706 233.26 190.011 233.948C190.659 238.263 190.488 242.59 190.118 246.916C190.139 247.162 190.156 247.407 190.177 247.652C190.514 253.699 190.091 259.763 190.332 265.8C190.579 272.066 190.107 278.316 190.343 284.571C190.675 289.031 190.37 293.523 191.184 297.956C191.452 299.432 190.927 300.924 190.922 302.421C190.922 303.913 191.281 305.335 191.543 306.779C190.997 307.296 190.231 307.722 190.359 308.623C190.841 311.996 188.784 311.239 186.968 310.648C179.527 308.213 172.177 305.453 164.639 303.364C160.369 302.181 156.266 300.29 151.932 299.645C147.228 298.947 143.114 296.485 138.539 295.803C132.137 294.849 126.42 291.69 120.083 290.645C120.002 290.629 119.933 290.544 119.852 290.518C112.995 288.365 112.706 287.923 113.418 280.682C113.745 277.33 113.006 273.877 113.247 270.728C113.467 267.841 113.317 264.937 113.515 262.049C114.061 260.077 114.142 258.09 113.756 256.081C112.631 252.431 114.029 248.701 113.429 245.046C112.727 240.794 114.527 236.441 112.829 232.242C112.47 231.875 112.797 231.529 112.861 231.177C113.199 227.021 112.974 222.897 112.272 218.783C112.031 217.382 111.833 216.252 114.19 217.046C121.229 219.423 128.413 221.384 135.463 223.733C137.633 224.458 139.728 223.978 141.855 224.213C148.46 224.932 154.707 222.918 161.023 221.442C162.844 221.016 164.569 221.714 166.321 222.007C166.546 221.831 166.755 221.842 166.953 222.05H166.943Z" fill="#F9D8A1"/>
<path d="M108.747 219.641C108.366 227.49 108.704 235.13 108.859 242.728C108.998 249.522 108.8 256.342 109.309 263.173C109.786 269.54 109.904 276.035 109.689 282.488C109.614 284.694 111.243 287.406 109.491 288.983C107.943 290.373 105.291 290.842 103.057 291.082C101.396 291.263 100.614 292.995 98.7018 292.686C97.175 292.441 97.1268 292.041 96.8107 290.667C96.3017 288.45 97.175 286.447 96.9821 284.262C96.3928 277.426 96.3767 270.536 96.3553 263.668C96.3392 256.619 96.9125 249.559 96.6232 242.531C96.2857 234.395 97.266 226.264 96.4142 218.128C96.2482 216.529 96.9178 214.798 96.7785 213.077C96.666 211.723 97.5553 211.958 98.3643 212.208C101.305 213.119 104.23 214.084 107.182 214.957C110.129 215.826 107.986 218.362 108.741 219.652L108.747 219.641Z" fill="#FDEACD"/>
<path d="M227.929 217.947C220.269 220.206 212.351 221.042 204.486 222.214C204.213 222.305 204.111 222.625 203.827 222.705L200.65 223.285C199.852 224.479 198.904 225.166 197.307 224.745C195.706 224.324 194.393 225.236 193.123 226.077C192.872 226.152 192.614 226.184 192.352 226.173C188.286 225.736 184.268 225.102 180.502 223.397C178.52 222.662 176.371 222.715 174.368 222.108L174.427 222.156C174.309 222.023 174.164 221.815 174.019 221.825C171.93 221.996 170.178 221.17 168.523 220.025C170.318 218.24 172.777 218.794 174.914 218.389C179.612 217.494 184.498 217.185 188.864 215.208C192.234 213.684 195.748 213.743 199.199 213.13C200.586 212.885 201.877 212.48 203.158 211.995C206.302 210.807 208.734 213.332 211.568 213.513C214.799 213.716 218.061 214.409 221.024 215.192C223.247 215.778 225.251 216.471 227.57 216.231C227.945 216.194 226.274 217.419 227.919 217.344C228.053 217.478 228.095 217.616 228.053 217.749C228.01 217.888 227.967 217.952 227.924 217.952L227.929 217.947Z" fill="#F9D8A1"/>
<path d="M32.5185 183.159C33.1667 183.345 33.6596 182.993 34.1578 182.674C39.9275 182.088 45.7026 181.501 51.4724 180.915C52.7046 180.793 53.9367 180.702 55.1635 180.548C58.1779 180.171 59.6993 181.541 59.7279 184.656C59.7386 186.318 59.6797 187.986 59.6583 189.648C59.4922 189.867 59.2779 190.027 59.0154 190.123C58.6297 190.256 58.2332 190.314 57.8314 190.336C55.7743 190.549 53.7278 190.874 51.676 191.108C49.8438 191.833 47.9956 192.307 45.9705 192.169C44.3473 192.057 42.8258 192.68 41.3579 193.367C38.9257 194.065 36.6114 193.351 34.281 192.813C33.6596 192.632 33.0381 192.435 32.4167 192.254C31.9238 192.078 31.3881 192.025 30.9167 191.822C28.8488 190.916 26.8719 190.853 25.0076 192.296L25.0666 192.328C24.6969 191.998 24.2094 191.806 23.9308 191.38C22.104 188.924 19.1307 189.542 16.6825 188.791C15.1878 188.332 13.5378 188.364 12.1663 187.448C11.8985 187.464 11.5931 187.57 11.3734 187.48C10.527 187.123 9.7127 186.702 8.88232 186.308C9.66448 185.578 10.6288 185.908 11.5342 185.801C17.2986 185.114 23.0576 184.352 28.822 183.617C30.0541 183.462 31.281 183.313 32.5131 183.164L32.5185 183.159Z" fill="#F9D8A1"/>
<path d="M263.678 212.006C263.394 212.181 263.11 212.357 262.826 212.533C259.923 211.686 257.303 213.247 254.523 213.487C254.265 213.577 254.008 213.647 253.746 213.7C250.017 214.792 246.369 214.558 242.796 213.066C238.601 212.624 234.642 210.929 230.404 210.727C228.122 209.933 225.636 209.688 223.558 208.313C223.493 207.839 223.638 207.562 224.184 207.674C229.129 206.454 234.186 205.67 238.842 203.39C239.962 202.841 241.51 203.273 242.892 203.555C247.263 204.44 251.656 205.249 256.065 205.899C261.476 206.699 266.919 207.306 272.341 208.02C272.828 208.084 273.712 208.366 273.701 208.441C273.594 209.16 272.887 208.782 272.459 208.963C271.569 209.342 270.637 209.608 269.721 209.922C269.175 210.94 268.082 210.546 267.267 210.876C266.014 211.068 264.771 211.292 263.683 212L263.678 212.006Z" fill="#F7D7A1"/>
<path d="M235.424 216.263C231.937 215.858 228.637 214.291 225.219 214.062C221.335 213.801 218.083 211.569 214.269 211.393C213.69 211.366 213.133 210.839 212.565 210.54C213.004 209.853 213.561 209.283 214.445 209.357C216.69 209.549 218.779 208.873 220.901 208.329C221.624 209.011 222.578 208.926 223.462 209.075C225.862 209.613 228.219 210.327 230.662 210.674C233.983 210.839 236.881 212.784 240.208 212.927C240.61 212.959 241.007 213.034 241.398 213.141C242.164 213.439 243.058 213.45 243.637 214.153C243.808 214.584 243.771 214.989 243.492 215.368C242.646 216.028 241.537 215.895 240.61 216.321C238.88 216.678 237.139 217.478 235.424 216.263Z" fill="#D2D4D9"/>
<path d="M191.532 306.774C189.545 305.42 190.231 303.316 190.279 301.552C190.391 297.156 190.15 292.782 189.641 288.439C189.481 287.065 190.123 285.775 189.647 284.465C190.777 283.798 191.747 284.107 192.62 284.955C194.029 287.065 192.77 289.292 192.791 291.439C192.813 294.375 192.818 297.354 192.229 300.3C192.02 301.344 192.856 302.591 191.607 303.476C191.082 304.515 192.336 304.184 192.534 304.664C192.384 305.959 192.813 307.312 192.127 308.548C191.998 307.935 192.159 307.221 191.532 306.769V306.774Z" fill="#0B0805"/>
<path d="M141.822 212.97C143.237 211.286 142.556 209.213 142.77 207.343C143.199 203.597 143.253 199.809 143.456 196.037C145.069 198.685 143.874 201.642 144.356 204.439C145.256 209.656 144.881 214.941 144.399 220.179C144.281 221.458 145.058 220.786 145.417 221.026C141.158 223.259 143.376 219.007 142.353 218C143.012 216.774 142.631 215.442 142.754 214.158C142.47 213.742 142.01 213.46 141.822 212.97Z" fill="#F7D6A3"/>
<path d="M59.6049 189.632L59.6585 189.654C60.896 190.911 59.2406 192.621 60.3281 193.906C59.7978 195.168 58.5013 194.396 57.687 194.891C55.7584 196.399 53.2726 194.886 51.2797 196.053C50.9637 196.314 50.6154 196.511 50.1922 196.554C48.8154 196.543 47.61 195.93 46.3564 195.493C45.66 195.136 44.8028 195.115 44.2082 194.529C43.7689 193.501 44.3689 192.925 45.2314 192.856C47.5779 192.664 49.8601 191.838 52.2494 192.089C53.4387 193.575 53.9048 192.382 54.4566 191.492C55.453 190.613 56.7656 190.65 57.9441 190.304C58.5495 190.202 59.1013 189.952 59.621 189.632H59.6049Z" fill="#CED1D6"/>
<path d="M50.2029 196.047H51.269C52.0404 196.943 51.8315 198.642 53.5351 198.765C52.3351 202.393 53.3958 206.134 52.9886 209.8C52.8065 211.43 53.6369 213.204 52.3458 214.686C51.21 213.588 51.2422 212.112 51.06 210.711C50.8618 210.183 50.385 209.714 50.669 209.075C50.8565 208.675 51.2047 208.377 51.3868 207.983C51.8101 207.066 51.3654 206.656 50.4707 206.533C49.71 203.912 50.1868 201.274 50.3207 198.642C50.6475 197.768 49.3993 196.953 50.2029 196.053V196.047Z" fill="#26211A"/>
<path d="M192.979 225.758C193.584 223.557 195.63 224.032 196.943 224.143C198.411 224.266 199.429 223.563 200.661 223.28C201.164 223.818 202.118 223.925 202.209 224.863C199.241 225.801 196.332 226.983 193.134 226.893C192.829 226.546 193.086 226.126 192.984 225.753L192.979 225.758Z" fill="#1F1912"/>
<path d="M234.797 226.355C234.337 224.069 234.165 221.788 234.862 219.518C235.044 218.964 235.231 218.416 235.413 217.861C236.094 217.574 236.64 217.803 237.112 218.304C236.972 219.796 238.065 221.362 236.854 222.79C236.619 222.897 236.254 222.62 236.094 223.008C236.388 223.04 236.683 223.062 236.929 223.28C237.61 224.085 237.621 224.868 236.871 225.635C236.228 226.019 235.703 226.738 234.792 226.355H234.797Z" fill="#2D251B"/>
<path d="M237.015 218.383C236.479 218.208 235.944 218.032 235.408 217.861C235.108 217.328 236.024 216.801 235.419 216.263C237.203 216.412 238.928 216.023 240.658 215.687C241.113 215.426 241.558 215.421 241.992 215.73C242.051 218.298 240.085 219.348 237.015 218.383Z" fill="#101113"/>
<path d="M168.523 220.019C170.302 221.245 172.916 220.179 174.421 222.145C172.777 222.039 171.684 224.49 169.728 223.115C169.337 222.843 169.048 222.652 169.027 222.177C169.182 221.384 169.359 220.584 168.523 220.014V220.019Z" fill="#1F180F"/>
<path d="M113.745 256.076C114.768 258.106 115.047 260.109 113.504 262.043C113.306 260.045 113.092 258.042 113.745 256.076Z" fill="#F0E6D6"/>
<path d="M223.134 209.24C222.09 209.661 221.002 210.188 220.9 208.329C221.956 207.919 222.931 207.114 224.184 207.679C224.013 207.871 223.836 208.068 223.665 208.26C223.97 208.84 223.6 209.064 223.14 209.24H223.134Z" fill="#4C4843"/>
<path d="M59.3103 195.499C60.371 195.989 60.4568 196.511 60.4514 197.049C60.4407 198.216 59.5567 198.232 58.7585 198.168C58.3728 198.136 57.6817 197.731 57.7031 197.582C57.8746 196.442 60.5532 198.024 59.3049 195.499H59.3103Z" fill="#716046"/>
<path d="M93.5485 215.73C93.2056 214.84 91.5984 213.956 93.5377 213.061C95.027 213.945 94.9949 214.835 93.5485 215.73Z" fill="#645032"/>
<path d="M267.567 210.418C268.023 209.118 269.196 210.929 269.721 209.928C269.882 210.274 270.042 210.626 270.203 210.972C269.63 211.254 269.4 212.075 268.591 211.99C268.494 211.936 268.398 211.883 268.301 211.83C267.969 211.526 267.733 211.164 267.589 210.743C267.578 210.636 267.573 210.524 267.567 210.418Z" fill="#534532"/>
<path d="M235.36 190.719C234.663 189.829 234.551 188.934 235.328 188.028C236.308 188.913 236.158 189.813 235.36 190.719Z" fill="#C8B396"/>
<path d="M227.929 217.946C227.929 217.744 227.929 217.541 227.924 217.334C228.593 217.153 229.536 217.094 229.579 217.771C229.611 218.218 228.593 218.628 227.929 217.941V217.946Z" fill="#867158"/>
<path d="M166.943 222.05C166.734 222.034 166.519 222.023 166.311 222.007C166.369 221.357 165.507 220.19 166.648 220.195C167.666 220.201 166.546 221.437 166.943 222.044V222.05Z" fill="#615646"/>
<path d="M203.833 222.699L204.491 222.209C204.084 222.859 205.606 223.786 204.416 224.111C203.65 224.319 203.934 223.237 203.833 222.694V222.699Z" fill="#A99272"/>
<path d="M63.0439 140.66C63.7725 141.028 62.9421 141.374 63.0279 141.736C62.6582 141.742 62.1064 142.168 62.0046 141.481C61.8975 140.761 62.5028 140.697 63.0439 140.66Z" fill="#6B5E4A"/>
<path d="M57.6816 194.891C58.5602 194.561 59.4442 194.231 60.3228 193.906C60.0388 195.819 58.6567 194.822 57.6816 194.891Z" fill="#716046"/>
<path d="M112.85 231.171C113.6 231.55 112.733 231.88 112.818 232.237C112.438 232.184 111.87 232.381 111.886 231.726C111.902 231.129 112.459 231.246 112.85 231.171Z" fill="#746856"/>
<path d="M86.0107 204.098C86.8572 203.912 87.2536 204.535 87.7197 205.041C86.9268 205.132 86.2036 205.095 86.0107 204.098Z" fill="#725C3D"/>
<path d="M3.62164 249.793C3.94307 250.95 5.01988 252.228 3.09127 253.017C3.02163 252.34 3.31092 251.61 2.78055 250.998C1.51624 249.538 3.09127 250.023 3.61628 249.793H3.62164Z" fill="#665F57"/>
<path d="M48.5849 283.212C49.0081 283.372 49.4314 283.532 49.8546 283.692C49.0831 283.767 48.242 284.369 47.6206 283.383C47.942 283.324 48.2635 283.271 48.5903 283.212H48.5849Z" fill="#C8C8C8"/>
<path d="M285.67 286.564C284.984 285.178 285.321 283.708 285.295 282.269C285.879 282.312 286.511 282.237 286.832 282.908C287.025 283.265 286.864 283.622 286.827 283.979C286.318 284.784 286.864 286.057 285.675 286.569L285.67 286.564Z" fill="#1B1B1B"/>
<path d="M283.505 290.752C285.338 290.155 285.37 288.498 285.718 287.027C285.836 288.77 286.95 291.103 283.505 290.752Z" fill="#1B1B1B"/>
<path d="M286.827 283.974C286.023 283.612 286.768 283.26 286.832 282.903C287.314 282.834 287.748 282.903 288.064 283.324C288.006 283.527 287.952 283.734 287.893 283.937L286.827 283.974Z" fill="#C1C1C1"/>
<path d="M285.15 281.225C284.448 280.341 284.346 279.445 285.113 278.545C286.141 279.424 285.954 280.325 285.15 281.225Z" fill="#C6B6A1"/>
<path d="M116.048 128.911C118.69 128.725 120.779 131.064 123.527 130.521C124.213 130.387 124.658 130.888 124.625 131.65C122.965 132.316 121.411 133.542 119.456 132.593C118.347 131.57 116.236 133.11 115.523 131.075C117.023 130.675 115.615 129.572 116.048 128.911Z" fill="#140D06"/>
<path d="M115.523 131.075C116.504 132.423 118.727 130.595 119.456 132.594C115.636 133.094 112.068 132.636 109.105 129.892C111.243 130.286 113.386 130.681 115.523 131.075Z" fill="#F7C476"/>
<path d="M65.7065 117.222C65.8137 116.678 65.7548 115.516 66.403 115.879C68.4709 117.035 71.0638 117.163 72.7406 119.06C70.8549 117.845 68.5834 119.038 66.6655 118.09C66.2958 117.909 66.028 117.515 65.7119 117.222H65.7065Z" fill="#C38C2D"/>
<path d="M102.157 125.725C102.902 126.21 105.211 124.543 104.327 127.281C102.816 127.851 102.548 126.701 102.157 125.725Z" fill="#846533"/>
<path d="M112.186 127.984C113.129 128.075 114.174 127.462 114.988 128.395C114.19 127.345 112.743 130.648 112.186 127.984Z" fill="#8A6837"/>
<path d="M51.253 105.009C52.1048 104.924 52.2655 105.446 52.2441 106.128C51.553 106.069 50.7601 106.101 51.253 105.009Z" fill="#694D23"/>
<path d="M12.1715 187.442C16.2323 188.108 20.4645 188.082 24.1771 190.197C24.4717 190.362 24.5414 190.916 24.7182 191.289C23.9574 191.721 23.2181 192.264 22.2646 191.822C18.7127 190.948 15.0269 190.565 11.6519 189.009C11.8233 188.487 11.9947 187.965 12.1662 187.437L12.1715 187.442Z" fill="#100C08"/>
<path d="M217.777 119.917C218.222 118.585 219.411 120.418 219.931 119.416L220.408 120.498C219.845 120.775 219.615 121.59 218.811 121.484C218.715 121.431 218.618 121.377 218.522 121.329C218.19 121.031 217.949 120.669 217.799 120.242C217.788 120.136 217.783 120.024 217.772 119.917H217.777Z" fill="#51402A"/>
<path d="M237.315 122.662C237.401 123.131 237.251 123.328 236.951 123.205C236.667 123.093 236.431 122.843 236.174 122.656C236.319 122.507 236.517 122.204 236.603 122.23C236.892 122.331 237.139 122.545 237.315 122.656V122.662Z" fill="#000001"/>
<path d="M235.001 119.923C235.06 119.065 234.647 118.655 233.79 118.671C234.261 118.063 234.829 118.164 235.253 118.639C235.644 119.075 235.403 119.555 235.001 119.923Z" fill="#3B3A39"/>
<path d="M53.1545 284.353C52.8384 285.104 52.7527 285.535 52.3242 285.376C52.0884 285.29 51.8366 284.944 51.8099 284.694C51.7777 284.379 51.9866 284.022 52.4259 284.102C52.742 284.161 53.042 284.31 53.1599 284.353H53.1545Z" fill="#C4C4C4"/>
<path d="M194.848 125.725C194.136 123.796 195.448 123.317 196.841 123.338C201.432 123.402 205.756 122.043 210.17 121.127C211.124 120.93 212.683 119.987 213.052 122.054C212.592 123.86 210.893 123.29 209.827 123.466C205.659 124.153 204.422 126.114 205.129 130.196C205.686 133.419 206.554 136.744 205.418 140.063C204.582 140.303 203.72 140.127 202.874 140.229C202.375 139.898 202.306 139.392 202.3 138.854C202.745 136.6 202.488 134.362 202.231 132.114C202.113 131.091 202.049 130.03 202.493 129.034C203.05 128.304 202.97 127.494 202.766 126.674C202.402 126.444 203.447 125.336 202.097 125.683C199.906 126.247 197.634 126.141 195.395 126.29C195.068 126.183 194.725 126.109 194.554 125.762C194.393 125.443 194.666 125.326 194.613 125.677C194.554 126.029 195.223 125.725 194.87 125.72L194.848 125.725Z" fill="#0D0A07"/>
<path d="M185.072 142.307C184.295 138.161 184.488 134.011 185.023 129.86C185.875 130.259 186.555 130.936 186.186 131.847C185.607 133.275 187.091 132.3 187.204 132.838C188.104 135.241 188.409 137.65 187.348 140.09C185.854 140.074 186.668 142.419 185.072 142.307Z" fill="#1D1E20"/>
<path d="M194.72 142.749C192.03 143.053 189.448 143.767 186.914 144.694C186.432 144.87 185.896 145.077 185.495 144.502C185.795 143.713 186.502 143.314 187.102 142.802C189.357 141.577 191.591 140.229 194.35 141.017C195.073 141.465 196.027 141.87 194.72 142.749Z" fill="#4F473D"/>
<path d="M186.668 132.673C185.955 133.52 185.028 133.35 185.511 132.359C186.111 131.128 184.959 130.707 185.018 129.865C185.178 129.034 183.791 129.3 183.989 128.442C185.886 128.421 186.057 127.313 185.645 125.842C186.346 125.853 187.053 125.858 187.755 125.869C188.061 126.434 187.766 126.94 187.589 127.457C187.477 127.771 187.391 128.091 187.375 128.426C187.289 129.87 188.57 131.544 186.662 132.684L186.668 132.673Z" fill="#0D0E10"/>
<path d="M202.692 138.939L203.12 140.095C203.329 140.175 203.404 140.266 203.345 140.367C203.286 140.474 203.222 140.527 203.158 140.527C201.427 140.937 199.702 141.342 197.972 141.752C196.52 142.264 195.732 142.04 196.343 140.287C198.208 138.673 200.42 138.689 202.686 138.939H202.692Z" fill="#35322F"/>
<path d="M187.337 143.175C187.075 144.097 186.303 144.326 185.5 144.502C183.909 144.049 184.97 143.085 185.077 142.307C185.189 141.849 185.993 141.822 185.462 140.863C184.82 139.701 185.602 139.275 186.711 140.128C188.12 140.9 187.98 141.987 187.337 143.175Z" fill="#12100F"/>
<path d="M214.027 121.98C213.872 118.767 216.353 120.296 217.778 119.918L217.729 119.875C217.804 120.621 218.115 121.218 218.838 121.537L218.811 121.489C217.253 122.001 215.769 123.242 214.027 121.985V121.98Z" fill="#1F170F"/>
<path d="M196.927 140.175C196.038 141.513 196.702 141.827 197.966 141.747C197.066 142.669 195.947 142.882 194.714 142.749C195.298 142.003 194.966 141.673 194.168 141.556C194.704 140.341 195.464 139.563 196.922 140.175H196.927Z" fill="#A9A39D"/>
<path d="M203.152 140.527C203.147 140.383 203.131 140.239 203.115 140.096C203.865 139.11 204.636 139.595 205.408 140.064C204.845 141.129 203.956 140.612 203.152 140.527Z" fill="#BAA78D"/>
<path d="M132.592 132.721C133.047 134.16 131.081 133.75 131.006 134.783C129.217 134.624 127.47 134.16 125.724 133.899C123.736 133.606 124.422 132.62 124.572 131.608C127.46 130.43 129.913 132.375 132.592 132.721Z" fill="#0F0A05"/>
<path d="M154.878 79.0553C151.583 76.4551 147.903 78.1549 144.137 79.1459C141.619 79.8119 139.61 78.304 137.595 77.0146C136.54 76.3379 136.754 75.3309 137.097 74.6968C137.745 73.5033 138.554 74.7768 138.913 75.0698C141.597 77.2437 144.222 77.2118 146.858 75.1231C147.946 74.2599 149.285 74.3665 150.099 74.9153C153.448 77.1745 156.137 75.3842 158.923 73.8496C159.523 73.5193 160.128 72.8959 160.808 73.4926C161.435 74.0468 160.771 74.7608 160.535 75.1337C159.357 77.0466 157.862 78.661 154.883 79.05L154.878 79.0553Z" fill="#020203"/>
<path d="M142.256 68.921C144.147 65.6175 147.603 65.8945 150.587 65.7454C152.499 65.6494 153.249 67.7488 153.571 69.5764C153.04 70.9884 152.114 71.6864 150.512 71.4892C149.371 71.3507 148.235 71.6224 147.089 71.7823C144.833 72.0913 142.862 71.5478 142.256 68.921Z" fill="#010102"/>
<path d="M167.939 90.0845C168.405 90.3296 168.496 90.7292 168.416 91.2034C167.966 91.1128 167.318 91.326 167.152 90.7558C166.991 90.207 167.559 90.1804 167.939 90.0845Z" fill="#FDDCB0"/>
<path d="M138.061 58.0514C138.061 59.0158 138.061 59.9749 138.061 60.9393C138.067 62.6177 136.829 63.3104 135.533 63.4809C134.268 63.646 133.208 62.9054 132.693 61.5787C131.585 58.7227 131.852 55.9307 132.913 53.1334C133.213 52.3448 133.433 51.6415 134.504 51.7268C135.372 51.796 136.17 51.6788 136.819 52.6166C137.986 54.3056 138.163 56.1226 138.067 58.0514H138.061Z" fill="#020101"/>
<path d="M155.13 56.101C155.13 54.5877 154.953 53.4901 155.178 52.4831C155.392 51.5293 155.73 50.1386 157.005 50.2772C158.076 50.3944 159.287 50.5383 159.952 52.0195C161.13 54.6357 161.028 57.2945 160.9 59.9799C160.852 61.0349 160.337 61.8608 158.955 61.9833C157.503 62.1165 156.373 61.9993 155.666 60.5714C154.878 58.9835 155.216 57.2892 155.125 56.0956L155.13 56.101Z" fill="#010001"/>
<path d="M187.273 127.329C187.434 126.839 187.6 126.349 187.761 125.864C188.8 125.624 189.84 125.39 190.879 125.15C191.334 124.932 191.774 124.916 192.202 125.214C192.738 126.312 192.293 126.983 191.243 127.388C189.92 127.436 188.586 128.113 187.273 127.335V127.329Z" fill="#070403"/>
<path d="M192.062 125.294L190.878 125.144C192.4 123.972 193.627 124.809 194.843 125.72C194.998 125.741 195.154 125.762 195.314 125.784C193.9 127.771 192.978 126.535 192.062 125.288V125.294Z" fill="#463827"/>
<path d="M154.685 131.698C154.262 132.354 155.789 133.249 154.642 133.59C153.892 133.814 154.155 132.732 154.037 132.199C154.251 132.034 154.471 131.863 154.685 131.698Z" fill="#A99577"/>
<path d="M206.479 76.7265C207.309 75.5277 208.279 75.2986 209.163 76.5827C209.859 77.595 210.47 78.7779 208.606 79.3747C208.697 77.8561 207.261 77.5524 206.479 76.7319V76.7265Z" fill="#FECD88"/>
<path d="M213.036 70.498C217.349 70.5407 219.433 73.8602 217.75 77.137C216.668 79.2524 215.591 78.6449 214.799 77.2969C214.043 76.0128 213.486 75.0697 211.745 75.2242C210.657 75.3201 209.811 74.409 210.186 73.3007C210.668 71.8568 211.857 70.9243 213.036 70.498Z" fill="#020203"/>
<path d="M217.22 68.2656C217.365 68.1963 217.574 68.1697 217.649 68.0525C218.217 67.1893 218.661 66.1396 219.899 66.1396C220.226 66.1396 220.836 66.6565 220.831 66.9229C220.788 68.1004 220.097 68.9903 219.208 69.7362C218.811 70.0666 218.506 70.5887 217.874 70.285C216.877 69.8055 217.397 68.905 217.306 68.175L217.22 68.2603V68.2656Z" fill="#0A0A0C"/>
<path d="M217.311 68.1801C216.449 68.1002 216.165 70.0397 214.954 68.8302C214.177 68.0522 214.418 67.1997 214.777 66.4111C215.093 65.7131 215.549 64.9246 216.518 65.0684C217.788 65.2549 217.049 66.3046 217.209 66.9546C217.311 67.3649 217.22 67.8284 217.22 68.2654L217.306 68.1801H217.311Z" fill="#0A0A0B"/>
<path d="M220.563 72.2296C219.974 72.1603 219.251 72.1444 219.428 71.6595C219.797 70.6471 220.585 69.8319 221.576 69.347C221.897 69.1872 222.674 69.2831 222.513 69.8372C222.208 70.9029 221.656 71.9046 220.563 72.2296Z" fill="#09090B"/>
<path d="M80.1554 70.9401C81.6875 70.8921 82.9358 71.0253 83.7661 72.1443C84.6394 73.3218 84.9501 74.3875 83.0161 74.8617C81.5643 75.2187 80.1393 75.7036 79.1589 76.9184C78.366 77.9094 77.525 78.6874 76.3731 77.5045C75.4463 76.5507 74.3588 75.8261 75.4142 73.9559C76.6196 71.8246 78.0125 70.7536 80.1554 70.9348V70.9401Z" fill="#030405"/>
<path d="M77.2889 69.1178C76.7586 69.6826 77.3371 71.1426 75.8318 70.8868C74.1121 70.5991 73.8228 69.0432 73.3567 67.8177C73.0621 67.0451 73.9299 66.6349 74.7067 66.6189C76.405 66.5816 76.7157 67.9936 77.2836 69.1125L77.2889 69.1178Z" fill="#0D0E10"/>
<path d="M80.3532 67.248C81.1247 68.937 80.0479 68.7878 79.18 68.8678C77.4121 69.0276 77.7335 67.541 77.5246 66.6459C77.3425 65.8733 77.2782 64.5998 78.6014 64.8183C79.8925 65.0314 81.0711 65.7507 80.3532 67.248Z" fill="#040406"/>
<path d="M74.005 72.384C74.005 72.7037 74.0478 73.2099 73.0407 73.0767C71.396 72.8635 71.3692 71.329 70.6621 70.3752C70.5924 70.2793 70.7746 68.9739 71.8192 69.0432C73.7907 69.1764 73.6568 70.7802 74.005 72.384Z" fill="#111113"/>
<path d="M141.822 212.97C142.706 212.922 142.99 213.338 142.754 214.158C142.036 214.078 140.836 214.371 141.822 212.97Z" fill="#5D492D"/>
<path d="M192.979 225.758C193.659 226.056 193.257 226.493 193.129 226.898C191.441 228.252 190.697 229.376 192.588 231.496C193.991 233.074 193.59 235.78 193.07 237.725C192.218 240.911 192.743 244.194 192.636 247.263C192.513 250.897 192.963 254.728 192.931 258.516C192.882 265.011 193.723 271.549 192.904 277.985C192.598 280.362 194.302 282.738 192.625 284.955C191.634 284.79 190.643 284.63 189.652 284.465C189.614 276.435 189.459 268.389 189.641 260.376C189.738 256.113 189.111 251.909 189.389 247.678C189.797 247.518 189.872 247.321 189.454 247.071C189.55 242.963 189.657 238.849 189.722 234.741C189.722 234.443 189.427 234.145 189.266 233.846C189.298 233.297 189.743 232.791 189.459 232.205C189.475 230.66 188.656 229.045 189.85 227.602C189.523 224.985 191.243 225.577 192.722 225.79C192.802 225.731 192.888 225.721 192.979 225.758Z" fill="#020202"/>
<path d="M254.716 219.481C255.262 223.163 256.334 226.818 255.198 230.569C254.507 230.814 253.864 230.638 253.226 230.356C252.75 229.994 252.546 229.493 252.439 228.928C252.316 225.385 251.764 221.852 252.214 218.288C252.3 217.616 252.476 217.115 253.044 216.753C256.119 216.135 254.785 218.186 254.716 219.476V219.481Z" fill="#0C0B0B"/>
<path d="M254.212 213.087C256.467 212.539 258.712 211.942 260.983 211.478C261.755 211.324 262.842 211.105 262.826 212.533C262.291 214.318 260.582 213.876 259.446 213.977C258.069 214.094 256.912 214.494 255.766 215.128C255.198 214.489 254.517 213.929 254.212 213.093V213.087Z" fill="#191614"/>
<path d="M234.797 226.354C235.435 226.083 235.73 225.188 236.613 225.353C238.371 226.845 237.872 228.635 237.283 230.431C236.03 230.772 235.767 232.12 234.862 232.818C234.288 230.67 234.133 228.518 234.797 226.354Z" fill="#29231C"/>
<path d="M244.483 233.26C241.729 233.601 239.056 234.288 236.458 235.264C236.045 235.418 235.595 235.455 235.29 235.002C235.595 234.219 236.297 233.814 236.897 233.308C239.153 232.083 241.387 230.734 244.146 231.539C244.912 231.987 245.78 232.424 244.478 233.265L244.483 233.26Z" fill="#45413C"/>
<path d="M253.039 228.949C253.146 229.391 253.098 229.908 253.644 230.127C253.869 230.777 253.451 230.931 252.948 231.027C251.04 231.464 249.133 231.906 247.226 232.343C245.549 232.61 245.737 231.736 246.197 230.692C248.212 229.098 250.735 229.455 253.033 228.955L253.039 228.949Z" fill="#3D3428"/>
<path d="M237.117 233.702C236.828 234.581 236.083 234.816 235.295 234.997C233.694 234.555 234.77 233.585 234.856 232.812C236.121 232.583 233.474 229.551 236.479 230.574C237.867 231.379 237.792 232.482 237.117 233.702Z" fill="#0E0B07"/>
<path d="M263.678 212.006C264.401 210.093 266.025 210.354 267.562 210.418L267.509 210.381C267.53 211.164 267.862 211.745 268.618 212.043L268.585 211.99C266.951 212.443 265.318 214.169 263.673 212.006H263.678Z" fill="#201A13"/>
<path d="M254.212 213.087C255.117 213.471 256.151 213.764 255.765 215.123C255.546 215.325 255.321 215.533 255.101 215.736C254.362 216.993 253.805 216.204 253.231 215.57C253.044 215.267 252.91 214.942 252.862 214.585C252.862 213.711 253.585 213.471 254.174 213.109L254.212 213.087Z" fill="#0C0B0B"/>
<path d="M246.685 230.702C246.358 231.416 245.838 232.189 247.231 232.338C246.588 233.457 245.517 233.297 244.483 233.265C245.094 232.514 244.676 232.231 243.942 232.098C244.472 230.878 245.217 230.089 246.69 230.702H246.685Z" fill="#B8A995"/>
<path d="M253.494 215.037C253.832 215.73 254.223 216.295 255.107 215.74C254.812 216.971 255.739 218.325 254.716 219.481C254.212 218.746 255.803 216.47 253.125 217.339C252.509 216.454 252.246 215.623 253.5 215.042L253.494 215.037Z" fill="#191614"/>
<path d="M252.953 231.022C253.183 230.724 253.419 230.426 253.65 230.122C254.276 229.887 254.716 230.303 255.198 230.569C254.635 231.63 253.757 231.134 252.953 231.022Z" fill="#BAA78D"/>
<path d="M192.534 304.669C191.848 304.568 190.552 304.935 191.607 303.481C192.529 303.406 192.775 303.848 192.534 304.669Z" fill="#60523D"/>
<path d="M50.7599 198.152C50.7599 200.992 50.7599 203.832 50.7599 206.672C51.5475 207.535 51.2689 208.42 50.8189 209.315L51.6707 210.322C51.4885 210.78 51.1135 211.116 50.8778 211.542C50.6689 212.4 50.5617 213.449 49.3564 213.332C48.317 213.231 47.2242 212.965 47.0099 211.632C45.242 209.911 43.0562 208.649 40.683 208.745C38.6097 208.825 37.3133 208.302 36.3008 206.661C34.2757 203.757 34.8757 198.637 37.5918 195.584C37.8061 195.451 38.0365 195.349 38.2776 195.28C39.1937 195.163 40.0669 195.898 41.0044 195.413C41.4651 195.269 41.9366 195.168 42.4241 195.206C43.6241 195.562 44.8884 194.774 46.0777 195.376C47.2027 197.022 49.4367 196.825 50.7546 198.157L50.7599 198.152Z" fill="#D1D4D8"/>
<path d="M32.5455 191.721C33.2098 191.545 33.7295 191.764 34.1473 192.286C34.5652 192.605 35.0259 192.893 35.0634 193.495C35.0849 193.756 35.0634 194.012 35.0259 194.268C34.8063 195.77 34.5224 197.284 35.5777 198.632C35.492 201.115 35.8242 203.619 35.0902 206.054C34.3723 207.658 35.1117 208.441 36.6331 208.825C37.9778 209.166 39.3117 209.544 40.651 209.922C41.2136 210.082 41.6261 210.492 41.5243 211.063C41.3796 211.872 40.71 211.537 40.26 211.414C37.8921 210.78 35.4867 210.226 33.183 209.395C31.9402 208.947 32.4437 207.519 32.3848 206.549C32.2134 203.544 33.0438 200.603 33.0223 197.571C33.0063 195.648 32.3902 194.481 30.9437 193.501C30.3276 191.881 31.5544 191.907 32.5455 191.716V191.721Z" fill="#1E170E"/>
<path d="M32.5454 191.721C32.2133 191.801 33.3276 193.224 31.8597 192.382C31.2597 192.036 31.1954 193.064 30.9383 193.506C28.7472 194.14 26.9257 192.984 25.0024 192.297C25.2114 189.819 26.7543 189.84 28.5757 190.421C29.899 190.842 31.2168 191.284 32.5401 191.721H32.5454Z" fill="#382C1D"/>
<path d="M35.0848 206.065C34.8705 203.592 35.9366 201.088 34.9241 198.632C34.7794 197.071 33.9651 195.531 34.8009 193.948L34.7634 194.012C36.3866 193.362 37.3723 194.359 38.342 195.392C35.4705 198.76 35.4009 202.623 36.3063 206.662C35.8991 206.464 35.492 206.262 35.0848 206.065Z" fill="#E4D1B4"/>
<path d="M47.0153 211.627C48.4242 212.421 49.9296 213.806 50.7225 211.004C51.2314 212.171 51.7457 213.338 50.1867 214.153C47.8135 214.472 45.8099 213.119 43.592 212.709C42.5687 212.517 42.0277 211.329 42.3009 210.753C42.6866 209.938 43.3455 210.855 43.9402 211.105C44.8724 211.494 45.9813 211.473 47.0153 211.627Z" fill="#6E5A3E"/>
<path d="M50.1865 214.153C50.8347 213.183 50.9419 212.117 50.7222 211.004C51.0383 210.775 51.3544 210.551 51.6758 210.322C51.9008 211.776 52.1258 213.231 52.3508 214.68C51.4776 215.112 50.8026 214.75 50.1865 214.153Z" fill="#090705"/>
<path d="M22.2646 191.828C23.0843 191.652 23.8986 191.471 24.7183 191.295C24.8361 191.641 24.954 191.988 25.0718 192.334C24.1825 191.918 23.079 192.696 22.27 191.828H22.2646Z" fill="#382C1D"/>
<path d="M192.716 225.79C191.441 225.891 190 225.742 189.845 227.601C187.027 226.077 183.743 226.28 180.813 225.166C180.132 224.383 180.089 223.605 180.813 222.822C184.595 224.548 188.752 224.788 192.716 225.79Z" fill="#1F160E"/>
<path d="M180.812 222.822C180.812 223.605 180.812 224.383 180.812 225.167C179.152 224.911 177.475 224.74 175.814 224.447C174.03 224.133 174.052 223.366 174.362 222.097C176.661 221.048 178.664 222.54 180.812 222.822Z" fill="#14100B"/>
<path d="M189.448 247.076C190.07 247.763 191.264 246.266 191.307 247.193C191.361 248.291 190.005 247.278 189.384 247.683C189.405 247.481 189.427 247.278 189.448 247.076Z" fill="#977C57"/>
<path d="M189.459 232.205C190.139 232.839 190.081 233.388 189.266 233.846C188.345 233.185 189.448 232.759 189.459 232.205Z" fill="#725C3C"/>
<path d="M38.3417 195.387C37.0827 195.099 35.8399 194.769 34.7631 194.007C34.5595 193.431 34.3559 192.856 34.147 192.286C36.6006 192.52 39.0221 193.293 41.5293 192.781C43.1293 192.362 43.7507 193.216 43.3936 195.344C43.0239 195.85 42.5311 195.77 42.0275 195.616C41.765 195.722 41.5025 195.824 41.24 195.93C40.2382 195.951 39.3381 195.397 38.3417 195.403V195.392V195.387Z" fill="#241B10"/>
<path d="M43.2061 194.897C42.9811 194.641 42.5365 194.193 42.5686 194.156C44.3526 192.083 42.29 192.909 41.5293 192.776C42.4347 191.764 43.7633 191.742 44.9151 191.641C47.0526 191.455 49.1902 191.423 51.2313 190.671C51.9116 190.346 52.5599 190.245 53.0742 190.964C53.2188 191.609 52.9617 192.046 52.3777 192.318C50.0473 192.728 47.7223 193.176 45.3812 193.527C44.6901 193.628 44.1758 193.74 44.0686 194.513C43.8972 194.886 43.699 195.211 43.2115 194.902L43.2061 194.897Z" fill="#483924"/>
<path d="M52.9029 191.279C52.4958 190.661 51.8154 190.805 51.2314 190.677C53.5351 190.139 55.8333 189.536 58.2334 189.6C58.5977 189.979 58.2548 190.41 58.3191 190.81C57.028 191.172 55.7422 191.54 54.4511 191.902C53.7708 192.099 53.294 191.79 52.9029 191.279Z" fill="#725F43"/>
<path d="M58.3192 190.81C57.7085 190.447 58.1478 190.01 58.2335 189.6C58.6889 189.611 59.1496 189.621 59.605 189.632C59.0532 189.893 59.1335 190.831 58.3192 190.815V190.81Z" fill="#524739"/>
<path d="M254.174 213.114C253.815 213.625 253.451 214.132 253.092 214.643C252.856 215.879 252.01 216.375 250.842 216.449C249.005 216.567 247.178 216.854 245.329 216.668C244.012 216.295 244.703 214.489 243.454 214.057C242.656 214.057 241.831 214.254 241.119 213.7C241.397 213.156 241.917 212.837 242.324 212.416C242.549 212.32 242.774 212.331 242.994 212.437C246.653 213.705 250.371 214.11 254.169 213.114H254.174Z" fill="#191614"/>
<path d="M242.999 212.437L242.399 212.725C241.805 213.274 240.813 212.794 240.283 213.519C238.237 213.647 236.297 213.396 234.615 212.091C233.399 211.153 231.669 212.544 230.517 211.233C230.426 210.908 230.088 210.722 230.029 210.375C231.953 209.123 233.683 210.636 235.488 210.839C238.022 211.127 240.497 211.883 242.999 212.437Z" fill="#615547"/>
<path d="M230.03 210.375C230.19 210.663 230.351 210.945 230.517 211.233C228.026 210.689 225.347 210.823 223.135 209.246C223.312 208.921 223.488 208.59 223.66 208.265C225.808 208.889 228.165 208.899 230.03 210.375Z" fill="#5C5953"/>
<path d="M243.455 214.057C244.74 213.727 245.099 214.185 245.046 216.092C245.298 217.414 244.392 217.11 243.669 217.062C243.01 216.63 243.032 216.103 243.455 215.522V214.057Z" fill="#615547"/>
<path d="M240.283 213.519C240.412 211.745 241.617 212.784 242.399 212.725C242.881 214.222 241.494 213.306 241.119 213.706C240.84 213.647 240.562 213.583 240.283 213.524V213.519Z" fill="#0D0807"/>
<path d="M243.46 215.522L243.423 216.705C242.367 217.222 242.319 216.119 241.831 215.725C241.44 215.709 241.049 215.698 240.658 215.682C241.564 215.176 242.48 214.803 243.455 215.522H243.46Z" fill="#191614"/>
<path d="M50.7601 198.152C49.1422 197.268 46.4583 198.349 45.8904 195.531C45.7779 194.992 45.944 194.731 46.5333 194.886C47.7547 195.275 48.9815 195.658 50.203 196.047C49.8976 196.879 51.3119 197.257 50.7601 198.152Z" fill="#16171A"/>
<path d="M52.9029 191.279C53.594 191.06 53.9744 191.593 54.4512 191.902C54.4512 192.813 54.7672 194.044 53.4869 194.183C52.2654 194.321 52.4047 193.154 52.3726 192.318C52.5493 191.971 52.7261 191.625 52.8976 191.279H52.9029Z" fill="#E5CCA5"/>
<path d="M46.5386 194.891C46.3244 195.104 46.1101 195.323 45.8958 195.536C44.6208 196.207 43.335 196.293 42.0332 195.616C42.4404 195.403 43.0457 195.509 43.2118 194.902C43.5011 194.774 43.785 194.641 44.0743 194.513C44.9529 194.284 45.7672 194.47 46.544 194.891H46.5386Z" fill="#494B50"/>
<path d="M50.8242 209.315C50.3581 208.446 50.5831 207.557 50.7653 206.672C51.0492 206.262 51.3974 205.468 51.6064 205.505C52.5278 205.66 51.8796 206.502 52.0725 206.949C52.6885 208.356 51.7992 208.825 50.8242 209.315Z" fill="#080606"/>
<path d="M241.837 215.725C242.699 215.517 242.694 216.7 243.428 216.705C244.103 216.86 244.767 216.972 245.057 216.092C247.767 215.767 250.708 216.716 253.098 214.643C253.232 214.776 253.366 214.904 253.5 215.037C252.824 215.714 253.237 216.567 253.125 217.334C252.187 221.197 253.162 225.076 253.044 228.944C251.164 230.372 248.758 229.935 246.69 230.697C245.774 231.161 244.858 231.624 243.942 232.093C241.365 231.363 239.394 233.169 237.117 233.702C236.983 232.647 237.069 231.544 236.48 230.575C237.594 228.859 236.962 227.101 236.608 225.348C237.251 224.57 236.753 223.877 236.431 223.174C236.308 222.987 236.33 222.822 236.501 222.673C237.626 221.351 235.547 219.657 237.015 218.378C238.649 217.542 241.585 219.039 241.831 215.719L241.837 215.725Z" fill="#D2D5DA"/>
<path d="M236.506 222.678C236.506 222.849 236.485 223.014 236.437 223.179C236.067 223.28 236.019 224.069 235.536 223.738C235.306 223.579 235.172 222.907 235.317 222.651C235.617 222.129 236.12 222.124 236.506 222.683V222.678Z" fill="#16110D"/>
<path d="M268.623 212.043C266.774 212.464 267.503 211.185 267.514 210.38C268.28 210.673 268.708 211.19 268.623 212.043Z" fill="#EFDABB"/>
<path d="M218.838 121.532C216.974 121.964 217.692 120.696 217.729 119.87C218.49 120.163 218.908 120.685 218.838 121.532Z" fill="#E9CA96"/>
<path d="M192.062 125.294C193.102 125.752 194.018 126.999 195.314 125.789C197.725 124.942 200.404 125.949 202.852 124.521C203.506 124.137 203.179 125.981 203.27 126.807C202.804 127.521 203.763 128.224 203.291 128.938C202.214 131.352 203.334 133.792 203.222 136.222C203.179 137.181 203.457 138.14 202.686 138.934C200.768 139.344 198.845 139.76 196.927 140.17C196.011 140.628 195.089 141.092 194.173 141.55C191.623 140.948 189.587 142.504 187.337 143.165C187.23 142.126 187.391 141.039 186.711 140.117C187.803 137.623 187.177 135.146 186.668 132.663C187.766 131.155 186.137 129.583 186.775 128.07C188.023 127.121 189.63 127.356 191.002 126.812C192.464 127.068 191.95 125.96 192.068 125.283L192.062 125.294Z" fill="#D2D4DA"/>
<path d="M203.291 128.938C202.997 128.23 202.215 127.526 203.27 126.807C203.549 127.516 204.417 128.219 203.291 128.938Z" fill="#636364"/>
<path d="M190.996 126.823C189.721 127.675 188.168 127.622 186.77 128.08C186.936 127.83 187.107 127.579 187.273 127.334C188.516 127.164 189.754 126.999 190.996 126.828V126.823Z" fill="#090705"/>
<path d="M38.3418 195.397C39.4882 194.609 40.4097 195.008 41.2401 195.925C40.0615 196.889 39.2204 196.042 38.3418 195.397Z" fill="#E4D1B4"/>
<path d="M34.8007 193.948C34.7525 195.509 35.4061 197.055 34.9239 198.632C33.6007 197.103 33.815 195.536 34.8007 193.948Z" fill="#241B10"/>
</svg>
