<svg width="413" height="432" viewBox="0 0 413 432" fill="none" xmlns="http://www.w3.org/2000/svg">
<path d="M234.596 412.502C225.554 411.666 215.732 409.466 206.847 411.744C194.073 415.014 182.346 421.404 169.287 424.312C143.561 430.039 116.085 430.284 90.9485 421.861C67.7288 414.084 41.6288 403.053 24.0914 385.427C7.23371 368.48 2.76023 345.388 2.83265 322.174C2.91064 297.422 17.2559 275.328 28.4034 253.93C39.4896 232.643 56.2582 214.348 75.4947 200.248C85.3274 193.039 96.5696 190.181 106.687 184.159C112.982 180.41 111.806 181.808 108.67 176.41C104.831 169.792 93.5725 161.134 90.2355 154.21C90.2355 154.21 98.8872 132.204 101.934 124.127C107.712 108.818 101.884 103.859 100.263 87.9153C98.8259 73.7762 98.2799 64.8738 99.578 50.7013C100.224 43.6707 104.191 14.4288 111.962 11.5931C119.026 9.01935 132.146 25.2531 136.753 29.4926C146.357 38.3337 154.006 48.4172 162.034 58.6288C169.377 67.9601 168.223 67.3027 186.095 64.7847C193.243 63.7763 210.006 63.9657 217.805 63.9657C217.805 63.9657 220.518 58.1274 223.376 50.0383C227.214 39.1805 230.618 29.9829 236.189 19.398C241.203 11.0416 247.008 -0.896962 254.573 8.81322C261.96 18.3006 266.122 34.0274 266.272 43.9103C272.957 47.2529 278.35 52.757 281.576 62.9295C285.019 73.7818 281.013 83.4251 279.643 93.4918C279.643 93.4918 295.737 119.681 301.369 128.589C301.369 128.589 299.553 136.282 293.364 146.94C287.431 157.157 282.177 167.029 274.183 175.892C267.041 183.808 254.016 193.769 245.66 198.783C245.66 198.783 250.88 221.396 252.345 232.209C254.506 248.153 251.788 267.863 246.774 282.904C246.774 282.904 260.417 287.222 269.615 292.932C293.041 307.472 312.4 329.071 323.096 354.77C331.453 373.711 333.124 390.981 333.124 390.981C333.124 390.981 317.609 387.884 314.054 387.081C306.951 385.477 299.681 384.307 292.395 384.062C286.005 383.85 279.899 383.054 275.804 388.084C272.696 391.906 272.528 397.193 268.796 401.148C259.988 410.479 246.395 410.697 234.59 412.507L234.596 412.502Z" fill="#FEA619"/>
<path d="M3.13912 328.898C3.13912 324.497 3.13912 320.096 3.13354 315.695C5.53463 293.796 17.579 276.509 26.8937 257.261C35.6512 239.172 48.4979 223.39 63.6843 210.309C71.4837 203.591 79.6953 197.535 88.9041 192.917C92.3413 191.19 111.21 185.942 112.43 182.332C114.62 175.853 97.2939 166.02 93.8511 160.466C88.386 151.653 95.9513 141.274 99.3663 132.243C102.926 122.817 102.18 112.171 108.698 104.74C113.606 99.1408 131.761 79.8653 138.708 77.8876C142.608 88.4724 142.123 93.1632 144.608 99.6366C148.58 109.987 153.605 119.915 159.538 129.28C165.187 138.199 171.549 146.94 179.037 154.41C186.257 161.614 197.638 166.349 199.805 177.106C203.694 196.415 182.775 220.76 172.012 234.76C165.204 243.613 157.176 254.676 147.226 260.158C137.238 265.668 124.915 267.139 114.464 272.119C95.4221 281.2 69.4168 297.629 58.2471 315.545C57.6008 315.996 56.9546 316.442 56.3084 316.893C56.3084 316.893 55.768 318.397 60.4699 315.968C65.1718 313.539 155.767 263.412 207.164 283.534C228.451 291.868 244.735 305.979 258.79 323.717C273.793 342.647 293.776 362.48 305.263 383.694C298.996 383.694 285.303 381.109 279.565 384.307C274.673 387.031 274.467 394.474 270.991 398.691C261.944 409.683 244.406 411.622 231.181 411.36C223.42 411.204 216.178 409.287 208.546 410.652C200.006 412.179 191.399 416.513 183.115 419.148C166.641 424.39 150.508 426.307 133.271 426.541C103.422 426.947 71.4614 417.972 47.1274 400.218C36.5816 392.53 24.3589 386.625 16.2922 375.633C6.17529 361.851 4.94968 345.271 3.13912 328.893V328.898Z" fill="#FE7C01"/>
<path d="M243.548 57.4811C247.314 75.5533 229.509 65.6315 214.969 63.9212C213.276 63.7206 219.56 55.7486 220.312 53.9102C222.819 47.7765 225.131 37.3143 229.275 32.3784C233.688 27.1194 234.1 29.9996 237.214 36.785C240.239 43.381 241.76 48.9186 243.548 57.4811Z" fill="#FE7F06"/>
<path d="M100.82 66.7457C101.556 62.1385 103.957 52.3782 104.72 47.8044C105.834 41.1192 106.753 36.0051 109.734 30.5344C113.962 22.7685 115.672 22.6905 120.33 30.0999C122.252 33.1528 123.884 36.4341 125.299 39.7711C127.282 44.4507 129.076 49.225 130.714 54.0439C133.817 63.1524 136.664 72.35 139.806 81.4419C140.731 84.1159 123.188 96.9625 116.413 102.957C110.196 108.461 106.129 115.207 105.829 115.213C103.422 110.327 103.968 109.653 103.6 104.071C103.4 100.985 101.372 94.6005 100.815 66.7457H100.82Z" fill="#FE6D2E"/>
<path d="M186.674 418.691C192.206 412.597 197.805 406.558 203.259 400.396C208.323 394.675 213.242 388.825 218.652 382.536C208.891 381.511 181.594 377.611 152.352 360.235C168.223 327.472 195.616 305.428 199.493 302.386C201.365 300.921 201.242 299.467 199.788 297.718C192.34 288.793 184.101 280.977 173.059 276.526C168.335 274.621 163.861 272.091 159.354 269.685C158.313 269.128 157.41 268.058 156.775 267.016C152.374 259.841 148.101 252.593 143.7 245.418C141.444 241.735 141.215 238.153 142.435 233.902C145.299 223.919 147.271 213.68 151.912 204.243C152.352 203.351 151.393 201.034 150.407 200.315C147.46 198.181 144.101 196.621 141.031 194.638C134.591 190.477 128.285 186.098 121.812 181.981C119.249 180.354 116.313 179.324 113.706 177.764C111.528 176.46 109.439 174.917 107.556 173.218C96.3635 163.118 91.9067 154.761 91.9067 154.761C101.934 152.533 112.876 151.313 123.104 151.419C141.655 151.614 162.658 156.433 179.616 163.97C180.117 164.193 180.602 164.466 181.115 164.655C184.201 165.769 190.312 167.552 190.312 167.552C194.412 149.753 214.468 146.967 222.824 145.853C228.802 145.057 241.682 149.63 245.626 153.831C247.91 156.265 248.256 154.639 250.679 153.096C262.935 145.296 270.579 137.525 281.876 133.597C287.498 131.647 290.233 129.698 301.375 130.812C299.146 141.397 288.534 160.148 282.194 168.783C273.815 180.198 263.442 189.786 251.437 197.491C246.518 200.644 246.863 200.716 248.607 206.348C250.267 211.724 251.57 217.262 252.412 222.822C253.582 230.565 254.228 238.387 254.991 246.186C256.083 257.351 253.136 267.98 250.356 278.581C249.548 281.651 249.855 282.665 252.902 284.336C266.985 292.052 281.214 299.629 293.197 310.626C308.261 324.447 319.564 340.848 326.4 360.112C329.252 368.146 331.157 376.541 333.101 384.87C334.327 390.112 332.333 391.555 327.308 390.04C307.236 383.978 286.957 381.661 266.573 388.207C258.083 390.937 249.855 394.508 241.565 397.833C225.309 404.363 209.103 410.998 192.864 417.56C190.841 418.379 188.758 419.037 186.702 419.772C186.702 419.41 186.697 419.048 186.691 418.686L186.674 418.691Z" fill="#FEEDD3"/>
<path d="M119.204 56.7179C119.204 56.7179 126.068 63.1245 127.561 64.5173C128.458 63.5089 130.207 59.353 131.461 57.8321C133.689 62.2889 138.87 75.2024 140.374 81.7872C140.374 81.7872 138.675 85.4362 136.474 87.9153C132.018 92.9292 129.789 95.1576 124.218 99.0572C122.085 100.55 116.731 103.742 115.862 103.514C114.993 103.286 113.633 99.0572 112.854 96.3497C111.405 92.3721 105.834 71.7595 119.204 56.7179Z" fill="#FEEDD4"/>
<path d="M278.913 95.9765C276.1 93.2968 273.158 90.6395 270.423 87.7927C269.799 87.1465 269.671 85.8318 269.66 84.8178C269.498 74.2553 268.144 50.4283 267.81 49.0188C267.587 48.0662 267.799 47.0133 267.821 45.9994C268.846 46.1275 270.116 45.9103 270.857 46.4451C275.459 49.7431 280.05 53.0299 281.554 59.0856C282.25 61.8933 283.693 64.5061 284.712 67.2415C287.749 75.3973 284.584 82.6563 281.381 89.9041C280.54 91.815 279.804 93.7704 278.907 95.9709L278.913 95.9765Z" fill="#FEEDD4"/>
<path d="M112.848 96.3442C113.572 97.0907 114.297 97.8372 115.021 98.5781C114.297 97.8316 113.572 97.0851 112.848 96.3442Z" fill="#FEF6EA"/>
<path d="M92.0071 154.343C105.143 152.377 117.951 152.522 130.725 152.834C137.594 153.001 144.435 154.098 151.288 154.8C160.073 155.697 168.051 159.246 176.145 162.405C178.936 163.497 183.12 164.627 186.697 165.736C188.101 166.171 190.368 167.524 190.368 167.524C189.839 169.669 188.34 178.377 196.078 187.078C201.326 192.984 214.212 194.933 222.262 194.878C222.262 197.106 218.947 199.067 216.902 199.986C208.384 203.808 200.323 208.404 192.959 214.137C188.647 217.49 184.546 221.134 180.424 224.727C176.574 228.081 172.502 231.245 169.098 235.011C162.625 242.164 155.956 249.234 151.304 257.813C149.589 260.977 146.887 262.331 143.644 262.921C140.987 263.406 138.28 263.64 135.26 264.025C135.165 262.793 134.753 261.495 135.026 260.364C137.438 250.337 139.923 240.32 142.486 230.331C144.647 221.908 146.965 213.529 149.154 205.112C149.377 204.254 149.182 203.284 149.182 202.092C143.912 199.201 138.452 196.343 133.132 193.245C128.413 190.505 123.661 187.752 119.277 184.527C115.979 182.098 113.193 178.956 110.258 176.048C105.299 171.134 100.403 166.148 95.4778 161.196C93.6673 159.374 91.8901 157.547 92.0016 154.343H92.0071Z" fill="#FE9B95"/>
<path d="M155.416 354.207C171.572 364.235 186.056 368.135 212.156 365.672C221.994 364.313 231.732 362.463 241.32 359.539C250.83 356.642 260.646 354.53 270.735 354.675C277.565 354.775 283.682 356.943 289.899 359.867C299.654 364.458 307.275 371.639 315.458 378.246C319.258 381.31 323.681 383.588 327.792 386.274C329.386 387.315 330.895 388.496 332.11 390.68C330.996 390.781 318.394 387.845 313.107 386.847C305.291 385.377 288.005 383.733 275.749 384.848C241.209 394.875 193.226 417.867 185.911 419.365C190.702 413.365 195.516 407.376 200.279 401.354C205.075 395.288 210.067 389.343 213.749 382.079C188.284 378.714 162.658 368.686 152.073 360.33C152.63 358.658 153.226 358.034 155.416 354.202V354.207Z" fill="#FE9B95"/>
<path d="M130.904 77.8876C131.043 75.0185 130.586 61.2861 130.586 58.4004C132.965 57.2862 138.664 74.6341 140.374 81.2302C140.625 82.2051 137.032 89.5866 128.675 95.7146C128.675 95.7146 130.347 89.5866 130.904 77.8876Z" fill="#FEA19B"/>
<path d="M279.18 96.5782C276.072 93.8651 267.854 87.2802 267.944 86.244C268.389 81.0352 267.944 73.325 268.501 67.8599C271.264 74.6787 274.295 84.2106 281.191 87.6368C280.907 91.1186 280.69 93.776 280.473 96.4277C280.038 96.4779 279.609 96.528 279.175 96.5782H279.18Z" fill="#FEA19B"/>
<path d="M279.18 96.5782C279.615 96.528 280.044 96.4779 280.478 96.4277C280.578 96.7564 280.679 97.0851 280.779 97.4138C280.244 97.1352 279.715 96.8567 279.18 96.5726V96.5782Z" fill="#FED3D1"/>
<path d="M281.983 99.4593L281.826 99.0461L282.211 99.0852L281.983 99.4593Z" fill="#FED3D1"/>
<path d="M250.033 0.869055C250.885 2.0111 251.493 3.63782 252.635 4.22277C257.487 6.71299 259.041 11.6266 261.364 15.8438C265.102 22.6292 268.144 34.0664 269.024 42.0886C269.281 42.5064 269.504 43.0301 269.866 43.4312C270.601 44.2446 271.414 44.9911 272.395 45.9604C272.712 45.8768 273.164 45.7543 273.788 45.5816C284.796 53.0467 288.573 63.9435 287.336 76.7901C286.98 80.5004 285.247 84.0936 284.027 87.698C283.331 89.7482 282.4 91.7203 281.671 93.4974C289.347 105.598 296.779 117.308 304.456 129.391C299.771 144.204 293.002 158.16 282.874 170.198C272.852 182.109 262.529 193.858 248.016 200.482C258.484 233.869 257.303 255.618 255.119 264.843C253.866 270.13 252.195 275.517 250.027 280.771C251.097 281.322 252 281.98 253.014 282.292C266.027 286.32 276.985 293.74 287.18 302.542C292.746 307.35 298.294 312.141 302.829 317.974C306.311 322.453 309.52 327.166 313.263 331.416C325.988 345.856 329.781 364.062 334.918 381.717C335.553 383.906 336.26 389.193 336.26 389.561C336.483 392.084 337.597 395.427 332.712 393.733C315.525 388.329 296.567 386.441 279.102 387.622C278.545 391.522 277.849 394.023 276.072 396.964C271.331 404.808 263.816 408.981 255.403 411.549C246.128 414.385 236.496 413.973 226.947 413.655C223.866 413.555 220.741 412.875 217.76 412.017C214.507 411.081 211.649 411.694 208.702 413.014C191.794 420.602 174.218 426.084 155.895 428.914C148.513 430.056 141.004 431.187 133.578 431.036C124.285 430.847 114.987 429.794 105.812 427.85C95.9124 425.75 86.5699 422.19 77.2608 418.351C65.2164 413.393 53.6288 407.544 42.4312 400.964C31.111 394.318 21.6961 385.449 13.2951 375.338C6.98874 367.75 4.52081 358.82 2.47627 349.578C-0.565479 335.829 -0.108661 321.985 1.55706 308.169C2.57097 299.768 5.29517 291.762 9.23384 284.258C10.4595 281.924 12.582 280.074 14.1196 277.88C15.3508 276.119 16.5931 274.275 17.3619 272.286C22.203 259.779 28.2587 247.863 35.7015 236.749C44.7487 223.24 55.6845 211.251 69.1551 202.103C79.2162 195.273 89.1381 188.17 110.815 180.666C104.135 173.591 88.7147 156.41 87.9069 154.717C92.2857 142.059 96.7536 129.335 101.043 116.556C101.712 114.561 102.085 112.216 101.734 110.182C100.419 102.617 99.3051 95.0573 98.4361 87.4139C97.2272 76.7623 97.3664 66.1273 97.7787 55.5146C98.2132 44.4117 99.1937 33.292 102.737 22.5958C103.244 21.0638 107.756 10.0611 112.692 8.70182C118.453 10.4567 123.383 13.9942 128.035 17.8271C133.945 22.7016 139.773 27.7155 145.282 33.0358C152.157 39.6708 158.101 47.147 163.466 55.0689C165.416 57.9435 167.382 60.807 169.611 64.066C185.02 60.6009 200.713 60.6733 215.894 60.4783C220.824 48.5175 225.549 37.0413 230.284 25.5596C234.134 16.2338 239.036 7.60992 246.741 0.846771C247.844 0.846771 248.952 0.846771 250.055 0.846771L250.033 0.869055ZM268.768 49.5314C268.551 49.3587 268.334 49.1916 268.116 49.0189C268.378 49.1414 268.646 49.264 268.907 49.3921C268.958 52.1442 268.98 54.8907 269.063 57.6427C269.314 66.2666 269.632 74.8848 269.793 83.5087C269.816 84.6062 269.036 85.7148 268.629 86.8178C268.267 86.7733 267.905 86.7287 267.543 86.6841C268.116 74.4057 268.178 62.0883 265.626 50.1108C263.086 38.1833 260.763 26.0999 255.61 15.231C252.729 12.5681 250.105 10.1391 247.526 7.75476C246.256 9.15307 245.181 10.167 244.306 11.3313C242.106 14.2561 239.576 17.036 237.927 20.2616C231.927 31.9884 227.259 44.2724 223.337 56.8572C222.368 59.9769 221.855 62.7959 224.674 66.0214C216.312 66.0214 208.78 65.9824 201.248 66.0326C192.312 66.0883 183.399 66.5228 174.625 68.3612C172.318 68.8459 170.079 69.637 167.694 70.3167C166.636 68.9072 149.784 44.9465 140.647 35.604C137.845 32.7349 120.447 17.8438 115.567 15.5987C114.447 15.0806 113.639 14.3898 112.525 14.3898C111.946 15.5207 105.283 22.1891 103.144 50.4116C102.525 63.4309 102.341 76.4837 104.029 89.4696C104.876 96.0043 105.606 102.561 106.837 109.024C107.338 111.653 107.5 113.943 106.592 116.494C103.639 124.767 100.871 133.107 98.0628 141.424C96.7926 145.185 95.5837 148.967 94.1074 153.486C110.831 149.881 127.138 150.126 143.254 152.589C165.288 155.959 183.393 162.087 190.413 167.535C188.931 167.274 188.034 167.224 187.22 166.951C179.271 164.276 171.377 161.424 163.377 158.901C154.118 155.981 144.541 154.282 134.915 153.458C125.984 152.694 116.954 152.455 107.996 153.218C103.717 153.58 99.5057 154.75 94.8261 155.641C95.6339 156.8 95.9681 157.463 96.4639 157.959C102.553 164.087 108.559 170.304 114.831 176.243C117.065 178.36 118.564 180.655 119.416 183.558C116.425 184.527 113.517 185.418 110.642 186.41C106.67 187.775 102.575 188.906 98.7926 190.677C88.1632 195.663 78.3973 202.22 68.9434 209.056C57.885 217.056 48.7988 227.245 41.044 238.493C35.0942 247.122 30.4592 256.504 26.0247 265.991C23.6236 271.122 20.6153 275.969 18.1529 281.072C15.1056 287.395 11.0388 293.205 8.8773 299.968C7.29515 304.921 7.26172 310.085 6.41493 315.121C4.70465 325.3 6.14753 335.294 7.17816 345.299C8.16422 354.892 13.0834 363.104 17.8298 371.26C19.2003 373.622 20.8103 375.889 22.5819 377.962C29.5901 386.146 38.0691 392.697 47.3615 397.906C56.7486 403.17 66.1245 408.474 76.2692 412.463C87.556 416.897 98.7647 421.204 110.742 423.41C120.297 425.17 129.945 426.184 139.572 425.655C147.756 425.204 155.934 423.672 163.984 421.984C170.769 420.563 177.438 418.435 184.034 416.245C192.875 413.31 201.694 410.273 210.34 406.814C226.122 400.496 241.671 393.599 257.498 387.393C272.166 381.639 287.559 380.987 303.091 382.413C306.194 382.697 309.325 382.898 312.389 383.421C318.082 384.396 324.227 385.895 330.361 387.081C330.121 384.68 329.77 382.107 329.141 380.084C324.873 366.43 321.364 352.569 312.946 340.464C303.358 326.681 293.152 313.562 279.882 303.155C271.075 296.241 261.42 290.838 250.819 286.854C239.03 282.425 227.532 277.178 216.134 271.802C204.329 266.236 191.8 263.846 179.026 262.894C170.669 262.27 162.201 262.871 153.795 263.211C147.054 263.484 140.43 264.531 133.834 266.203C129.11 267.401 124.909 269.534 120.698 271.634C112.831 275.556 105.138 279.852 97.528 284.258C89.4222 288.955 82.2023 294.888 75.1773 301.055C69.0047 306.47 62.7875 311.84 56.6984 317.35C50.1581 323.266 43.7181 329.283 34.8324 332.124C31.7628 332.492 28.4202 331.935 28.8548 327.879C30.0859 326.921 31.0943 326.932 32.1138 326.893C34.8101 326.776 37.1332 325.751 39.2223 324.219C42.9214 321.511 46.6986 318.876 50.1414 315.862C58.665 308.403 66.8209 300.548 75.6954 293.45C87.6061 283.918 100.102 275.439 113.929 268.955C117.232 267.406 120.603 265.98 123.856 264.336C129.132 261.674 134.787 260.337 140.541 259.3C147.16 258.108 153.845 257.88 160.536 257.445C169.756 256.849 178.87 257.501 187.995 258.431C191.438 258.782 194.881 259.373 198.262 260.13C209.41 262.632 219.811 267.139 230.028 272.141C234.919 274.537 239.922 276.704 245.175 279.116C253.866 253.105 250.696 230.911 244.011 206.014C242.897 201.557 240.668 200.443 239.977 199.156C242.317 197.775 244.674 196.465 246.947 195.028C250.913 192.516 255.114 190.271 258.724 187.312C275.754 173.363 288.562 156.199 296.957 135.82C297.403 134.734 298.378 132.801 298.601 131.363C296.929 130.806 293.47 131.207 292.473 131.363C284.595 132.583 278.84 135.447 272.038 139.597C268.757 141.603 265.403 143.508 262.239 145.697C259.604 147.519 259.047 147.519 260.161 146.405C263.57 143.335 266.635 140.862 270.367 138.566C278.896 133.324 287.782 128.689 298.601 129.692C290.656 117.18 282.924 105.403 275.208 93.2523C276.685 89.9153 278.055 86.7454 279.487 83.609C281.531 79.1411 281.682 74.2609 281.531 69.6203C281.253 61.0187 276.01 54.5453 271.08 48.0384C269.999 48.7347 269.387 49.1303 268.774 49.5258L268.768 49.5314ZM260.339 392.413C247.626 395.884 236.1 402.173 223.694 406.636C226.496 408.257 229.292 408.73 238.178 408.335C245.565 408.006 252.952 407.354 259.955 403.806C260.15 399.884 260.707 398.212 260.339 392.407V392.413ZM273.398 388.207C269.559 389.388 266.362 390.374 263.398 391.288C263.047 395.327 262.752 398.73 262.412 402.624C267.665 398.886 272.478 395.65 273.398 388.207Z" fill="black"/>
<path d="M139.533 82.1661C136.848 75.0854 134.162 68.0047 131.143 60.0438C130.285 61.6872 128.675 64.5173 127.004 65.0744C124.218 62.846 122.664 60.5842 120.074 57.7263C117.533 59.5034 116.23 62.7569 115.149 65.5312C111.344 75.3194 110.575 85.4028 113.717 95.6088C114.48 98.0935 116.976 103.514 115.906 103.921C106.948 91.815 108.007 67.1468 117.828 56.3447C120.313 53.3754 120.313 55.0467 121.706 56.3447C122.943 57.7987 125.221 60.1998 126.998 62.2889C128.307 60.9296 129.633 59.3474 129.784 57.8321C129.784 57.8321 128.742 54.1163 128.129 52.445C125.873 46.2668 123.154 40.2613 120.608 34.1946C119.695 32.0163 118.764 29.8381 117.856 27.6598C116.97 25.5206 116.97 22.178 118.714 24.6571C121.444 30.4286 123.867 35.2196 125.995 40.1332C128.034 44.8295 129.99 49.6038 131.756 54.367C137.583 70.0883 140.486 79.9823 140.792 81.726C140.92 82.8959 140.92 84.0101 139.522 82.1661H139.533Z" fill="black"/>
<path d="M195.677 142.973C192.786 143.486 191.627 141.954 190.513 140.282C189.399 138.611 188.446 132.645 189.482 129.224C190.513 125.798 194.229 125.018 197.103 126.801C199.983 128.583 199.983 138.611 199.426 139.725C198.869 140.839 198.312 142.511 195.677 142.973Z" fill="black"/>
<path d="M215.153 164.07C218.44 159.268 223.861 158.26 226.724 158.667C230.624 159.224 232.646 160.65 233.844 163.87C231.627 165.875 229.51 168.137 226.724 169.808C221.71 168.137 219.738 167.898 215.153 164.07Z" fill="black"/>
<path d="M235.08 124.127C236.15 123.057 238.98 121.898 241.765 125.241C243.843 127.737 243.203 135.731 243.041 136.895C242.88 138.06 241.765 139.725 240.651 140.282C239.537 140.839 237.593 141.502 236.055 139.775C234.518 138.048 233.96 135.619 233.727 133.33C233.409 130.249 233.409 125.792 235.08 124.121V124.127Z" fill="black"/>
<path d="M199.086 175.34C209.454 185.402 214.769 182.85 223.944 181.162C224.278 181.101 224.624 181.117 224.952 181.201C231.298 182.805 237.543 182.655 241.899 175.959C241.765 178.165 239.381 181.535 236.752 182.622C234.122 183.708 232.189 184.321 224.495 182.622C222.267 183.179 218.924 184.293 215.582 184.293C208.412 184.293 205.109 182.922 200.284 177.68C199.71 177.062 198.869 175.936 199.086 175.346V175.34Z" fill="black"/>
<path d="M251.119 153.369C251.331 153.135 251.08 152.778 250.791 152.889C249.403 153.424 247.927 154.132 247.498 154.265C246.445 153.82 245.32 153.012 244.323 152.433C244.089 152.299 243.805 152.6 243.988 152.795C247.342 156.433 249.086 161.179 249.57 168.132C250.055 175.084 248.456 179.831 245.671 183.173C239.71 190.037 233.415 193.201 222.273 194.315C221.42 194.332 220.518 194.582 219.682 194.699C219.515 194.722 219.426 195.017 219.588 195.045C221.71 195.429 223.504 195.53 224.496 195.429C229.977 194.889 233.571 194.438 238.206 191.474C241.493 189.374 244.551 186.516 246.779 183.73C247.843 182.377 248.896 180.549 249.387 179.502C251.242 175.53 251.236 170.917 250.991 166.6C250.779 162.912 249.303 159.396 248.512 156.115C248.997 155.419 250.206 154.371 251.119 153.369Z" fill="black"/>
<path d="M236.189 148.455C231.894 147.859 227.582 146.717 223.304 146.828C219.053 146.945 215.577 147.525 210.022 149.268C210.011 148.082 215.053 146.037 217.515 145.87C223.822 145.447 230.312 144.466 236.189 148.455Z" fill="black"/>
<path d="M194.412 185.964C191.443 183.987 188.841 178.165 189.616 173.268C189.644 173.084 189.905 173.067 189.955 173.246C190.284 174.455 190.702 176.416 191.075 177.608C191.76 179.792 192.407 180.828 193.304 182.622C193.861 183.736 194.418 184.85 194.975 185.407C194.975 185.407 196.089 187.078 194.418 185.964H194.412Z" fill="black"/>
<path d="M230.69 30.1333C230.139 31.4202 229.587 32.7127 229.03 33.9995" stroke="black" stroke-width="2" stroke-linecap="round" stroke-linejoin="round"/>
<path d="M261.086 390.669C262.479 392.903 262.936 395.744 262.005 397.761C260.796 400.368 261.437 402.602 261.637 405.026" stroke="black" stroke-width="2" stroke-linecap="round" stroke-linejoin="round"/>
<path d="M248.373 2.52362V4.1782" stroke="black" stroke-width="2" stroke-linecap="round" stroke-linejoin="round"/>
<path d="M123.661 189.307C117.945 179.268 116.024 172.455 122.38 167.541C126.397 164.438 137.188 163.129 140.931 166.466C146.597 171.513 147.059 185.407 139.26 191.535C141.94 194.683 146.235 198.482 149.137 201.424C150.129 202.432 151.995 202.989 153.477 203.034C159.315 203.206 165.159 203.006 171.003 203.112C175.828 203.201 175.984 203.307 175.967 208.616C175.961 211.385 176.886 213.268 179.421 214.176C185.599 216.387 187.56 221.061 187.087 227.145C186.596 233.479 180.485 238.331 169.343 240.003C169.343 240.003 186.173 269.423 196.396 278.921C198.496 280.877 207.905 285.083 208.897 286.799C215.51 298.208 206.763 301.283 197.198 304.069C192.83 305.344 179.761 300.687 174.357 299.612C167.321 298.214 155.371 294.158 148.731 291.255C144.257 289.3 143.6 287.595 143.02 283.222C142.447 278.888 140.374 260.058 140.374 260.058C134.959 262.041 122.252 268.765 116.664 270.164C112.542 271.2 109.21 269.077 106.631 265.908C100.352 258.214 95.8845 249.512 95.9179 239.518C95.9513 230.075 96.9374 220.565 98.358 211.212C99.6226 202.9 104.247 195.468 111.4 191.546C117.528 188.187 122.458 189.441 123.656 189.301L123.661 189.307Z" fill="#9E5FF4"/>
<path d="M134.246 190.978C122.441 191.557 116.959 186.421 116.436 178.248C115.945 170.633 123.249 164.767 132.302 164.7C140.385 164.639 146.201 169.92 146.402 177.508C146.619 185.725 142.129 190.867 134.246 190.978Z" fill="#713E25"/>
<path d="M187.984 223.613C187.945 232.17 178.195 241.217 171.015 240.576C170.452 240.526 172.63 220.242 173.794 212.705C173.794 212.705 174.909 212.148 178.519 213.134C184.29 214.705 186.842 219.446 187.984 223.613Z" fill="#744128"/>
<path d="M127.561 233.317C121.934 235.278 114.118 235.713 109.177 231.646C107.422 230.203 106.887 225.941 107.505 223.29C108.001 221.162 111.338 217.819 113.634 217.162C121.433 214.933 128.675 217.719 128.675 217.719L127.561 233.317Z" fill="#734027"/>
<path d="M172.63 201.563C173.36 201.563 174.084 201.574 174.814 201.574C178.117 205.697 177.872 211.173 174.44 214.805C173.544 215.752 172.83 217.195 172.708 218.471C172.179 224.153 172.045 229.88 171.421 235.551C171.276 236.883 163.109 242.242 160.981 238.331C158.864 234.437 155.744 230.315 152.067 227.746C148.263 225.089 140.173 230.036 139.254 235.546C138.881 237.785 138.959 239.813 138.14 240.56C136.764 241.819 123.015 239.947 119.199 240.003C116.441 240.042 113.071 236.103 112.514 234.432C112.514 234.432 121.282 233.997 122.369 233.941C128.435 233.618 128.452 233.056 128.669 227.189C128.892 221.128 129.65 215.189 130.001 209.134C130.018 208.059 130.029 206.983 130.045 205.903C131.494 205.541 132.942 205.178 134.391 204.816C136.213 204.805 138.029 204.8 139.85 204.789C140.942 204.438 142.034 204.081 143.126 203.73C150.769 203.006 158.418 202.287 166.062 201.563C168.246 201.563 170.435 201.563 172.619 201.563H172.63Z" fill="#ECE2FD"/>
<path d="M210.98 288.631C209.304 284.141 206.061 281.061 202.373 278.314C200.474 276.899 198.173 275.841 196.708 274.075C190.669 266.799 184.858 259.334 179.02 251.897C176.602 248.821 174.329 245.629 171.655 242.036C173.443 241.518 174.491 241.334 175.432 240.916C178.39 239.596 181.783 238.738 184.151 236.699C188.775 232.721 191.259 227.395 189.85 221.1C188.552 215.306 186.084 210.242 179.22 209.284C179.867 205.151 181.259 201.875 178.257 198.772C169.404 199.128 159.427 198.978 151.544 199.296C148.263 195.847 145.8 193.262 143.622 190.973C144.926 187.78 146.302 184.817 147.36 181.747C149.772 174.744 146.864 167.218 140.564 163.569C139.026 162.678 131.461 160.338 124.736 163.056C116.764 166.282 113.299 174.605 116.347 182.744C116.725 183.758 117.533 185.402 118.647 186.516C113.439 187.942 108.063 189.858 104.72 194.165C101.617 198.165 99.5947 201.418 97.4777 206.014C94.1352 213.256 92.6254 220.805 92.2689 225.384C91.9068 229.969 92.4639 262.281 111.667 270.966C112.335 271.189 112.72 272.264 113.55 273.35C121.806 270.013 129.89 266.749 138.664 263.206C139.271 269.322 140.174 275.445 140.396 281.59C140.608 287.294 143.199 291.2 147.706 294.28C154.073 298.637 161.371 300.03 168.753 301.283C172.312 301.89 176.385 301.79 179.265 303.567C186.084 307.773 193.293 307.768 200.418 306.353C208.975 304.654 214.596 298.308 210.986 288.637L210.98 288.631ZM184.53 222.721C185.215 229.54 181.505 233.523 171.867 235.613C172.803 228.766 173.694 222.192 174.636 215.29C181.75 215.384 183.972 217.173 184.53 222.716V222.721ZM173.844 205.139C172.591 215.501 171.326 225.941 170.101 236.075C167.611 239.044 164.792 238.844 162.747 238.381C159.756 234.744 157.577 231.384 154.719 228.771C150.146 224.588 145.388 226.075 142.146 229.641C139.784 232.237 139.26 232.76 137.589 240.003C132.018 240.56 123.594 240.27 118.09 238.888C116.018 238.37 115.862 237.217 114.191 235.546C120.876 234.989 124.218 234.989 128.675 233.874C129.182 225.329 129.951 216.114 130.463 207.518C134.97 205.858 168.702 203.942 173.85 205.139H173.844ZM108.046 225.758C108.124 224.259 108.074 223.418 109.383 221.1C112.079 218.047 114.269 217.351 116.971 217.162C122.725 216.749 126.647 217.852 128.096 217.791C127.8 222.51 127.494 227.334 127.182 232.326C122.386 233.579 117.461 234.315 112.491 233.061C109.232 232.237 107.845 229.624 108.046 225.763V225.758ZM118.553 265.412C112.681 267.556 110.987 266.225 107.366 260.921C103.149 254.743 101.077 247.952 99.9234 240.665C98.1741 229.641 98.6309 218.705 102.575 208.354C104.531 203.229 106.336 199.931 110.285 195.981C111.957 194.31 116.447 192.75 118.859 192.248C121.249 191.747 123.801 191.078 127.344 190.527C127.695 190.471 127.862 190.064 127.656 189.78C126.107 187.647 125.188 186.549 124.007 185.435C119.89 181.541 119.21 175.875 122.514 171.173C125.828 166.449 132.146 165.107 136.993 167.29C141.789 169.457 142.603 173.664 142.463 177.675C142.302 182.354 140.714 187.006 135.711 189.24C134.903 189.602 134.107 189.981 133.321 190.382C133.182 190.454 133.121 190.683 132.881 191.067C136.725 195.212 143.94 195.836 145.778 203.095C140.252 203.708 134.959 204.293 128.904 204.967C128.658 208.905 128.402 212.905 128.146 216.983C124.787 215.964 119.778 215.351 116.826 215.836C113.667 216.354 109.427 217.641 107.656 222.309C105.806 225.245 106.057 229.941 108.475 232.426C110.831 234.849 113.149 237.306 116.319 240.621C119.789 240.983 127.906 241.685 129.121 241.952C130.335 242.22 130.335 242.22 129.377 242.66C127.227 243.557 125.048 244.392 122.937 245.367C121.193 246.175 118.998 247.306 117.617 248.287C117.327 248.493 117.472 249.1 117.812 248.988C121.422 247.791 123.739 246.905 126.681 245.891C129.934 244.771 133.761 243.25 137.578 241.663C137.578 246.677 138.218 251.183 138.948 256.348C132.023 259.467 125.45 262.882 118.553 265.406V265.412ZM178.769 296.598C172.686 297.69 166.547 295.902 160.519 293.985C156.931 292.849 153.477 291.144 150.168 289.328C147.299 287.757 146.023 285.099 145.694 281.679C144.981 274.292 143.834 270.158 142.597 262.843C142.012 259.373 140.252 252.877 139.806 249.406C139.249 245.111 138.903 240.548 139.767 236.376C140.731 231.719 144.263 228.593 149.583 227.535C152.63 227.746 155.895 231.117 157.611 234.543C160.859 241.022 163.989 247.573 166.775 254.264C170.273 262.665 173.85 270.971 179.07 278.498C183.181 284.431 184.379 289.027 183.265 291.812C182.123 294.141 181.037 295.712 178.775 296.603L178.769 296.598ZM180.474 297.378C181.588 297.378 182.563 296.085 183.243 295.367C185.616 292.843 186.19 289.874 184.975 286.737C183.794 283.684 182.619 280.526 180.803 277.846C173.365 266.871 168.569 254.676 163.884 242.415C163.716 241.975 163.21 240.56 163.861 239.947C168.418 246.47 172.407 252.32 176.535 258.064C183.477 267.718 190.847 276.905 200.713 283.913C203.187 285.668 205.733 286.52 207.471 290.459C208.184 292.074 208.039 293.935 207.092 295.428C202.123 303.311 190.206 303.745 180.474 297.389V297.378Z" fill="black"/>
<path d="M385.078 330.904C378.889 331.049 372.694 331.06 366.522 331.439C365.196 331.522 360.722 330.291 360.427 331.361C358.366 338.77 356.984 348.904 355.413 356.43C354.644 360.118 355.547 362.681 351.018 362.007C349.937 360.202 348.8 358.43 347.798 356.58C347.241 355.561 346.36 354.313 346.55 353.349C348.633 342.803 350.901 332.297 353.118 321.779C355.029 318.965 352.561 319.054 350.984 318.553C350.622 316.776 350.26 314.993 349.898 313.216C348.929 311.84 348.238 310.046 346.934 309.149C341.007 305.066 335.887 305.963 330.567 311.701C329.464 312.889 328.409 313.034 327.402 312.135C327.893 310.453 328.405 308.776 328.862 307.082C331.464 297.445 333.865 291.952 330.89 281.774C335.541 281.774 341.28 281.217 345.931 281.217C344.901 287.35 346.505 288.62 352.037 291.785C352.511 292.804 352.761 294.046 353.508 294.799C355.369 296.687 357.486 298.319 359.43 300.13C360.577 301.194 361.385 302.837 362.706 303.445C368.159 305.952 369.692 310.013 369.318 315.84C368.912 322.091 373.157 325.751 379.613 326.102C381.507 326.202 383.379 326.781 385.262 327.138C385.195 328.391 385.134 329.645 385.067 330.898L385.078 330.904Z" fill="#BBDE8A"/>
<path d="M356.327 254.292C358.026 247.484 359.747 240.682 361.419 233.869C362.227 230.588 362.711 227.206 363.837 224.047C364.243 222.9 366.137 221.462 367.274 221.529C380.393 222.287 393.496 223.418 406.616 224.192C410.059 224.398 411.396 224.972 410.426 228.883C408.176 238.003 406.421 247.239 404.466 256.431C402.7 255.718 400.939 255 399.173 254.286C393.513 243.813 379.045 240.766 370.789 249.423C366.249 254.181 362.182 255.713 356.321 254.286L356.327 254.292Z" fill="#A4D5C9"/>
<path d="M333.274 193.691C346.388 193.602 346.516 193.624 344.054 206.265C341.681 218.46 339.101 230.621 336.338 242.738C336.026 244.103 333.993 245.986 332.684 246.047C327.542 246.287 322.372 245.897 317.219 245.741C317.169 244.855 317.263 243.93 317.04 243.094C314.907 235.2 316.188 228.632 323.23 223.412C326.985 220.627 330.717 217.29 331.135 211.953C331.848 207.307 332.561 202.666 333.269 198.02C333.269 196.577 333.269 195.134 333.269 193.691H333.274Z" fill="#A4D5C9"/>
<path d="M291.353 308.943C293.024 300.486 294.578 292.002 296.4 283.579C297.859 276.821 297.586 280.058 304.717 280.113C310.728 280.158 317.647 280.565 323.659 280.671C323.647 285.54 323.135 286.91 323.124 291.785C320.455 291.796 316.934 290.743 315.308 292.046C312.327 294.442 310.461 298.225 308.127 301.428C305.625 306.069 303.13 310.709 300.628 315.355C298.812 314.208 296.968 313.116 295.196 311.901C293.865 310.988 292.628 309.935 291.353 308.943Z" fill="#AED9B6"/>
<path d="M280.434 233.941C282.924 220.944 285.336 207.936 288.038 194.984C288.278 193.825 290.328 192.382 291.659 192.243C294.617 191.931 297.653 192.365 300.662 192.499C300.294 198.811 299.926 205.123 299.559 211.435C296.74 215.256 299.782 218.187 301.308 221.128C302.963 224.32 302.456 226.326 299.497 228.248C293.67 232.025 287.47 234.315 280.439 233.941H280.434Z" fill="#A7D6BA"/>
<path d="M343.463 361.444C333.831 361.294 324.199 361.143 314.567 360.993C316.706 353.639 318.851 346.285 320.99 338.932C322.946 338.241 325.224 336.542 326.79 337.049C332.444 338.87 336.817 337.194 340.973 333.561C341.614 332.999 342.929 332.893 343.814 333.093C344.171 333.171 344.494 334.67 344.377 335.45C343.692 339.973 342.973 344.503 342.048 348.982C341.714 350.608 340.778 352.113 340.115 353.672C338.845 352.653 337.597 351.6 336.288 350.631C335.486 350.04 334.578 349.594 333.72 349.082C333.413 349.656 332.756 350.308 332.862 350.787C333.157 352.074 333.441 353.739 334.355 354.424C335.542 355.31 337.33 355.762 338.856 355.75C342.968 355.728 344.048 357.845 343.458 361.455L343.463 361.444Z" fill="#A7D6C2"/>
<path d="M300.634 315.355C303.135 310.715 305.631 306.074 308.133 301.428C308.255 303.718 308.751 306.063 308.411 308.286C307.915 311.511 308.84 312.681 311.982 311.757C314.567 310.999 317.107 310.124 318.846 313.216C312.433 312.559 306.64 314.653 304.467 320.575C303.23 323.951 301.598 326.609 299.564 329.288C299.208 332.146 298.851 335.004 298.495 337.862C297.414 345.299 296.333 352.737 295.258 360.174C291.882 360.196 288.512 360.207 285.136 360.235C282.339 360.257 281.492 359.232 282.138 356.263C284.317 346.23 286.189 336.135 288.183 326.063C291.319 325.706 294.523 325.611 297.57 324.871C298.773 324.581 299.626 322.859 300.64 321.79C301.397 320.358 304.417 318.932 300.64 317.506C300.64 316.793 300.64 316.074 300.64 315.361L300.634 315.355Z" fill="#B0DAAA"/>
<path d="M356.327 254.292C362.187 255.718 366.254 254.186 370.794 249.429C379.051 240.771 393.518 243.819 399.178 254.292C399.178 254.654 399.173 255.016 399.167 255.373C398.51 255.172 397.563 255.178 397.229 254.732C394.159 250.61 392.655 252.337 391.619 256.136C391.295 257.312 390.945 258.481 390.605 259.651C390.248 260.008 389.892 260.37 389.541 260.727C384.271 263.384 379.123 263.434 374.265 259.813C367.948 255.105 367.223 255.312 364.733 263.083C364.31 264.398 364.126 265.791 363.831 267.15C361.691 267.15 359.547 267.15 357.407 267.15C356.327 266.08 355.246 265.011 354.165 263.935C354.889 260.721 355.608 257.512 356.332 254.298L356.327 254.292Z" fill="#A6D6BE"/>
<path d="M280.434 233.941C287.464 234.315 293.67 232.025 299.492 228.248C302.45 226.331 302.957 224.32 301.302 221.128C299.782 218.187 296.74 215.256 299.553 211.435C302.055 213.579 304.556 215.73 307.057 217.875C307.057 224.298 307.057 230.727 307.057 237.15C305.982 239.975 304.907 242.799 303.832 245.629C296.573 245.618 289.681 243.217 282.422 243.345C278.918 243.406 277.615 244.437 278.707 241.15C279.481 238.816 279.865 236.354 280.423 233.947L280.434 233.941Z" fill="#A6D6B6"/>
<path d="M343.464 361.444C344.054 357.828 342.979 355.717 338.862 355.739C337.336 355.745 335.547 355.299 334.361 354.413C333.447 353.734 333.163 352.068 332.868 350.776C332.756 350.296 333.414 349.645 333.726 349.071C334.584 349.583 335.492 350.029 336.294 350.62C337.603 351.583 338.851 352.642 340.121 353.661C340.784 352.101 341.72 350.597 342.054 348.971C342.979 344.491 343.698 339.962 344.383 335.439C344.5 334.659 344.177 333.16 343.82 333.082C342.929 332.887 341.62 332.993 340.979 333.55C336.823 337.188 332.45 338.859 326.795 337.038C325.224 336.531 322.946 338.235 320.996 338.921C320.996 338.207 320.996 337.489 320.996 336.776C322.094 332.358 323.397 328.804 329.464 330.926C332.422 331.962 335.988 331.528 339.241 331.288C340.344 331.21 342.233 329.712 342.249 328.832C342.361 322.871 345.865 320.085 351.001 318.559C351.714 319.634 352.422 320.709 353.135 321.784C350.918 332.302 348.65 342.809 346.567 353.355C346.377 354.319 347.258 355.567 347.815 356.586C348.817 358.43 349.954 360.207 351.035 362.012C348.517 361.823 345.999 361.633 343.48 361.444H343.464Z" fill="#A7D6BA"/>
<path d="M374.511 166.772C384.382 167.363 394.26 167.864 404.109 168.694C405.006 168.772 406.544 171.118 406.382 172.198C405.747 176.365 404.549 180.449 403.558 184.56C401.329 184.182 399.09 183.847 396.878 183.407C393.652 182.761 390.388 181.307 387.24 181.535C383.307 181.825 379.48 183.485 375.608 184.549C377.096 182.382 378.327 179.964 380.137 178.115C381.825 176.393 382.527 175.586 379.647 174.694C375.803 173.508 373.876 170.928 374.516 166.761L374.511 166.772Z" fill="#B6DC9C"/>
<path d="M375.602 184.56C379.474 183.496 383.307 181.836 387.235 181.546C390.382 181.312 393.647 182.772 396.872 183.418C399.09 183.858 401.323 184.193 403.552 184.571C403.407 185.986 403.262 187.396 403.117 188.811C395.552 188.95 393.24 190.46 392.772 195.708C392.633 197.284 392.722 198.878 392.705 200.465C385.207 200.126 377.703 199.791 370.204 199.452C370.327 193.881 370.767 188.427 375.597 184.566L375.602 184.56Z" fill="#ADD8AE"/>
<path d="M320.985 336.781C320.985 337.494 320.985 338.213 320.985 338.926C318.845 346.28 316.701 353.633 314.561 360.987C310.634 360.748 306.701 360.508 302.773 360.268C303.57 354.853 304.233 349.416 305.191 344.029C306.411 337.149 305.308 336.051 298.495 337.856C298.851 334.999 299.208 332.141 299.564 329.283C303.252 330.664 306.996 331.912 310.611 333.455C313.976 334.893 316.589 338.564 320.985 336.776V336.781Z" fill="#ABD8B2"/>
<path d="M323.124 291.785C323.135 286.916 322.533 285.545 322.545 280.671C325.391 280.843 328.611 280.498 331.458 280.671C334.433 290.849 331.475 297.45 328.873 307.094C328.416 308.787 327.898 310.458 327.414 312.146C327.057 312.146 326.706 312.146 326.35 312.146C318.383 310.882 318.06 310.325 320.26 302.893C321.347 299.227 322.182 295.489 323.13 291.785H323.124Z" fill="#B2DBA0"/>
<path d="M307.063 217.875C304.561 215.73 302.06 213.579 299.559 211.435C299.926 205.123 300.294 198.811 300.662 192.499C308.155 192.822 315.648 193.14 323.135 193.463C322.778 195.167 322.416 196.878 322.06 198.582C320.884 198.833 319.692 199.34 318.528 199.29C312.249 199.034 311.319 199.663 309.208 206.081C308.494 210.008 307.781 213.942 307.063 217.869V217.875Z" fill="#B0D9A6"/>
<path d="M375.602 184.56C370.772 188.421 370.332 193.881 370.21 199.446C369.329 199.485 368.444 199.58 367.569 199.557C362.51 199.429 362.065 198.911 363.151 193.931C364.839 186.187 366.717 178.482 368.293 170.717C369.051 166.99 370.828 165.541 374.516 166.772C373.875 170.939 375.803 173.519 379.647 174.705C382.527 175.597 381.825 176.399 380.137 178.126C378.326 179.975 377.09 182.393 375.608 184.56H375.602Z" fill="#BBDE8A"/>
<path d="M351.034 276.882C351.792 273.64 352.555 270.398 353.313 267.15C354.678 267.15 356.042 267.144 357.413 267.139C359.552 269.724 361.691 270.96 363.836 267.144C365.892 267.428 367.959 267.646 369.998 268.008C375.051 268.91 379.97 271.306 385.262 269.289C381.307 276.063 372.583 277.59 367.223 274.247C363.686 272.041 362.159 272.921 361.703 276.782C360.627 280.353 359.552 283.924 358.477 287.489C357.747 286.882 356.817 286.403 356.327 285.64C354.483 282.765 352.783 279.801 351.034 276.871V276.882Z" fill="#B0D9A6"/>
<path d="M303.837 245.629C304.913 242.805 305.988 239.98 307.063 237.15C311.297 233.451 317.286 231.083 317.029 223.958C317.013 223.529 317.475 222.961 317.876 222.666C322.467 219.256 327.085 215.886 331.692 212.504C331.274 217.841 327.542 221.178 323.787 223.964C316.745 229.184 315.458 235.752 317.598 243.646C317.826 244.482 317.726 245.412 317.776 246.292C313.13 246.069 308.484 245.846 303.837 245.624V245.629Z" fill="#A7D6C2"/>
<path d="M399.212 282.164C397.006 293.227 394.8 304.286 392.593 315.35C391.201 316.425 389.808 317.5 388.41 318.575C388.265 316.046 387.697 313.456 388.053 310.993C389.078 303.851 390.465 296.76 391.713 289.651C393.128 285.005 394.543 280.359 395.958 275.712C397.039 277.863 398.125 280.013 399.206 282.158L399.212 282.164Z" fill="#A7D6BA"/>
<path d="M298.495 337.856C305.308 336.051 306.417 337.149 305.191 344.029C304.233 349.416 303.57 354.853 302.773 360.268C300.266 360.235 297.759 360.202 295.252 360.168C296.333 352.731 297.414 345.294 298.489 337.856H298.495Z" fill="#A7D6BA"/>
<path d="M351.034 276.882C352.789 279.813 354.488 282.776 356.327 285.651C356.817 286.414 357.747 286.893 358.477 287.501C358.188 291.712 355.363 292.119 352.048 291.79C346.516 288.626 344.355 287.356 345.386 281.222C347.174 280.955 349.246 277.144 351.034 276.882Z" fill="#B2DBA0"/>
<path d="M392.711 200.46C392.727 198.872 392.638 197.279 392.777 195.702C393.245 190.454 395.557 188.945 403.123 188.805C402.889 190.165 402.672 191.524 402.426 192.878C401.398 198.597 398.159 201.123 392.711 200.454V200.46Z" fill="#A4D5C9"/>
<path d="M300.634 321.784C299.62 322.854 298.768 324.575 297.564 324.865C294.517 325.606 291.319 325.701 288.177 326.057C289.096 321.768 290.01 317.472 290.929 313.183C293.091 314.977 295.258 316.776 297.419 318.57C298.489 319.639 299.564 320.715 300.634 321.784Z" fill="#B2DBA0"/>
<path d="M399.212 282.164C398.131 280.013 397.045 277.863 395.964 275.718C396.338 272.509 396.705 269.3 397.079 266.086C397.769 263.947 398.466 261.802 399.157 259.662C399.162 259.3 399.173 258.938 399.179 258.576C400.627 259.3 402.076 260.025 403.524 260.743C402.087 267.885 400.65 275.022 399.212 282.164Z" fill="#A6D6BE"/>
<path d="M388.416 318.575C389.808 317.5 391.201 316.425 392.599 315.35C391.892 319.612 391.14 323.873 390.488 328.146C389.953 331.662 387.714 331.623 385.079 330.904C385.145 329.65 385.207 328.397 385.274 327.144C386.321 324.286 387.368 321.433 388.421 318.575H388.416Z" fill="#A7D6C2"/>
<path d="M322.06 198.582C322.417 196.878 322.779 195.167 323.135 193.463C326.701 193.725 330.266 193.986 333.832 194.248C333.832 195.691 333.832 197.134 333.832 198.577C329.91 198.577 325.982 198.577 322.06 198.582Z" fill="#ABD8B2"/>
<path d="M297.419 318.57C295.258 316.776 293.091 314.977 290.929 313.183C291.068 311.768 291.213 310.358 291.353 308.943C292.628 309.935 293.865 310.993 295.197 311.901C296.968 313.11 298.818 314.208 300.628 315.355C300.628 316.068 300.628 316.787 300.628 317.5C299.559 317.857 298.489 318.213 297.414 318.57H297.419Z" fill="#ADD8AE"/>
<path d="M403.529 260.743C402.081 260.019 400.632 259.295 399.184 258.576C399.184 257.506 399.178 256.442 399.173 255.373C399.173 255.011 399.178 254.649 399.184 254.292C400.95 255.005 402.71 255.724 404.476 256.437C404.164 257.874 403.847 259.312 403.535 260.749L403.529 260.743Z" fill="#A7D6C2"/>
<path d="M357.408 267.144C356.043 267.144 354.678 267.15 353.308 267.155C353.592 266.08 353.876 265.005 354.16 263.93C355.241 264.999 356.321 266.069 357.402 267.144H357.408Z" fill="#ABD8B2"/>
<path d="M388.416 318.575C387.368 321.433 386.321 324.286 385.268 327.143C383.385 326.787 381.513 326.208 379.619 326.107C373.162 325.762 368.917 322.096 369.324 315.846C369.703 310.013 368.171 305.957 362.711 303.45C361.391 302.843 360.578 301.194 359.436 300.135C357.486 298.33 355.374 296.693 353.514 294.804C352.773 294.046 352.522 292.81 352.043 291.79C355.358 292.119 358.182 291.712 358.472 287.501C359.547 283.93 360.622 280.359 361.697 276.793C366.477 277.144 371.04 277.84 374.694 281.567C375.681 282.576 378.087 283.233 379.335 282.749C383.173 281.267 385.29 283.35 387.547 285.696C388.873 287.077 390.321 288.336 391.714 289.651C390.466 296.759 389.073 303.851 388.054 310.993C387.703 313.45 388.265 316.041 388.41 318.575H388.416Z" fill="#B4DC94"/>
<path d="M320.985 336.781C316.589 338.57 313.977 334.898 310.612 333.461C306.996 331.918 303.252 330.664 299.564 329.288C301.598 326.609 303.225 323.951 304.467 320.575C306.64 314.659 312.433 312.559 318.846 313.216C318.846 315.361 318.846 317.5 318.846 319.645C316.756 321.573 314.667 323.5 312.578 325.428C314.762 326.575 316.846 328.23 319.163 328.687C320.556 328.96 322.69 327.723 323.815 326.531C325.347 324.91 326.244 322.681 327.408 320.715C330.695 316.163 335.614 315.344 340.561 315.784C343.18 316.018 345.28 316.832 347.023 314.107C347.436 313.467 348.912 313.506 349.904 313.233C350.266 315.016 350.628 316.793 350.99 318.575C345.859 320.102 342.349 322.887 342.238 328.848C342.221 329.728 340.333 331.227 339.23 331.305C335.976 331.545 332.411 331.979 329.453 330.943C323.386 328.82 322.082 332.375 320.985 336.792V336.781Z" fill="#ADD8AE"/>
<path d="M349.904 313.222C348.918 313.495 347.436 313.45 347.023 314.096C345.274 316.821 343.179 316.007 340.561 315.773C335.614 315.333 330.695 316.152 327.408 320.703C326.695 319.99 325.982 319.283 325.274 318.57C325.625 317.5 325.982 316.425 326.333 315.355C326.333 314.286 326.338 313.211 326.344 312.141C326.701 312.141 327.052 312.141 327.408 312.141C328.415 313.04 329.469 312.895 330.572 311.706C335.893 305.974 341.012 305.077 346.94 309.155C348.243 310.052 348.929 311.84 349.904 313.222Z" fill="#B4DC94"/>
<path d="M353.118 321.784C352.405 320.709 351.697 319.634 350.984 318.559C352.561 319.06 355.029 318.971 353.118 321.784Z" fill="#ADD8AE"/>
<path d="M322.06 198.582C325.982 198.582 329.909 198.582 333.831 198.577C333.118 203.223 332.405 207.864 331.698 212.51C327.085 215.891 322.472 219.262 317.882 222.671C317.486 222.967 317.024 223.54 317.035 223.964C317.291 231.089 311.302 233.457 307.068 237.156C307.068 230.732 307.068 224.304 307.068 217.88C307.781 213.953 308.495 210.02 309.213 206.092C313.191 205.295 315.018 207.262 315.625 210.967C315.742 211.685 316.377 212.32 316.773 212.995C317.319 212.376 318.149 211.852 318.372 211.134C319.681 206.978 320.845 202.777 322.065 198.594L322.06 198.582Z" fill="#A7D6BA"/>
<path d="M326.344 312.141C326.344 313.211 326.338 314.286 326.333 315.355C323.837 314.642 321.341 313.929 318.84 313.211C317.102 310.119 314.561 310.993 311.977 311.751C308.829 312.676 307.91 311.506 308.406 308.28C308.745 306.063 308.25 303.712 308.127 301.422C310.456 298.219 312.322 294.431 315.308 292.041C316.935 290.737 320.455 291.79 323.124 291.779C322.177 295.484 321.341 299.222 320.255 302.888C318.06 310.314 318.378 310.871 326.344 312.141Z" fill="#B0D9A6"/>
<path d="M297.419 318.57C298.489 318.213 299.559 317.857 300.634 317.5C304.411 318.926 301.392 320.358 300.634 321.784C299.564 320.715 298.489 319.639 297.419 318.57Z" fill="#B0D9A6"/>
<path d="M385.262 269.3C379.964 271.317 375.045 268.921 369.998 268.019C367.959 267.651 365.892 267.44 363.836 267.155C364.132 265.796 364.316 264.403 364.739 263.089C367.235 255.317 367.953 255.111 374.271 259.818C379.129 263.44 384.276 263.384 389.546 260.732C388.833 262.871 388.115 265.016 387.402 267.155C386.688 267.868 385.975 268.587 385.262 269.3Z" fill="#ABD8B2"/>
<path d="M387.401 267.15C388.114 265.011 388.833 262.866 389.546 260.727C389.903 260.37 390.259 260.008 390.61 259.651C393.457 259.651 396.309 259.662 399.156 259.662C398.465 261.802 397.769 263.947 397.078 266.086C393.853 266.442 390.627 266.799 387.401 267.15Z" fill="#B0D9A6"/>
<path d="M399.156 259.662C396.309 259.662 393.457 259.651 390.61 259.651C390.95 258.481 391.301 257.311 391.624 256.136C392.66 252.337 394.165 250.61 397.234 254.732C397.568 255.178 398.51 255.172 399.173 255.373C399.173 256.442 399.178 257.506 399.184 258.576C399.178 258.938 399.167 259.3 399.162 259.662H399.156Z" fill="#ABD8B2"/>
<path d="M363.831 267.15C361.686 270.966 359.547 269.729 357.408 267.15C359.547 267.15 361.692 267.15 363.831 267.15Z" fill="#ABD8B2"/>
<path d="M322.06 198.582C320.845 202.766 319.675 206.967 318.366 211.123C318.138 211.841 317.313 212.371 316.767 212.983C316.372 212.309 315.742 211.674 315.62 210.956C315.012 207.251 313.185 205.284 309.208 206.081C311.319 199.658 312.249 199.028 318.528 199.29C319.692 199.34 320.879 198.833 322.06 198.582Z" fill="#ABD8B2"/>
<path d="M387.402 267.15C390.628 266.793 393.853 266.437 397.079 266.086C396.705 269.295 396.338 272.504 395.965 275.718C394.55 280.364 393.134 285.01 391.719 289.657C390.327 288.342 388.878 287.077 387.552 285.701C385.296 283.356 383.179 281.272 379.341 282.754C378.087 283.239 375.686 282.581 374.7 281.573C371.046 277.846 366.483 277.15 361.703 276.799C362.16 272.933 363.692 272.058 367.224 274.264C372.583 277.607 381.307 276.08 385.263 269.306C385.976 268.593 386.689 267.874 387.402 267.161V267.15Z" fill="#B6DC9C"/>
<path d="M325.274 318.57C325.987 319.283 326.701 319.99 327.408 320.703C326.238 322.67 325.347 324.898 323.815 326.52C322.684 327.712 320.55 328.948 319.163 328.676C316.845 328.219 314.762 326.564 312.578 325.416C314.667 323.489 316.756 321.561 318.845 319.634C320.99 319.277 323.135 318.921 325.274 318.564V318.57Z" fill="#B0D9A6"/>
<path d="M325.274 318.57C323.129 318.926 320.984 319.283 318.845 319.639C318.845 317.5 318.845 315.355 318.845 313.216C321.341 313.929 323.837 314.642 326.338 315.361C325.987 316.431 325.631 317.506 325.28 318.575L325.274 318.57Z" fill="#B0DAAA"/>
<path d="M279.553 362.77C280.428 357.778 295.247 276.771 295.247 276.771C310.522 276.927 330.149 277.373 345.424 277.412C346.878 277.412 348.332 277.412 350.321 277.412C354.433 258.459 358.561 239.44 362.795 219.953C379.251 221.546 395.441 221.83 412.081 223.24C411.452 227.462 397.084 300.018 394.048 315.478C393.073 320.453 390.51 333.595 390.51 333.595C383.418 333.511 373.118 333.411 366.026 333.433C364.767 333.433 363.508 333.433 361.803 333.433C360.928 338.464 360.065 343.422 359.213 348.38C358.444 352.848 356.761 360.887 355.97 365.349C355.97 365.349 339.881 364.519 333.547 364.396C322.455 364.174 311.364 364.257 300.272 363.984C293.603 363.817 286.941 363.221 279.548 362.775L279.553 362.77ZM340.845 332.297C341.842 326.726 342.773 321.762 343.608 316.781C345.196 307.305 346.761 297.824 348.26 288.331C348.617 286.074 347.631 285.06 345.229 284.865C344.505 284.804 343.775 284.849 343.046 284.849C331.77 284.81 320.494 284.765 309.219 284.732C306.729 284.726 304.233 284.732 301.765 284.732C299.52 296.999 297.575 308.793 295.169 320.486C292.606 332.937 289.119 353.099 289.119 356.441C309.163 358.307 329.971 357.906 350.143 357.778C351.447 350.787 353.681 339.617 354.856 333.043C354.856 333.043 344.11 332.703 340.845 332.302V332.297ZM371.012 277.885C369.747 286.241 364.327 317.996 363.213 326.352C369.285 326.352 384.382 326.91 384.382 326.91C386.767 314.999 396.053 266.676 397.58 259.406C399.686 249.39 401.897 239.39 404.165 228.916C391.936 228.181 380.26 227.473 368.254 226.749C364.873 243.579 361.53 260.186 358.126 277.122C362.355 277.707 366.55 277.267 371.012 277.879V277.885ZM355.786 325.617C357.881 312.124 360.984 299.055 362.655 285.127C357.664 284.849 356.683 285.177 356.059 289.216C355.558 292.436 355.09 295.662 354.555 298.876C353.246 306.731 349.842 324.096 349.842 325.244C351.775 325.244 354.065 325.623 355.786 325.623V325.617Z" fill="#2F5965"/>
<path d="M347.057 192.649C346.322 197.552 345.224 202.36 344.322 206.922C342.489 216.153 340.45 225.345 338.483 234.554C337.765 237.919 337.029 243.351 335.915 246.693C335.915 246.693 332.01 246.548 330.918 246.537C320.924 246.426 310.924 246.443 300.929 246.164C292.835 245.936 284.384 245.479 275.743 245.022C276.3 241.679 276.985 237.98 277.615 234.66C279.771 223.284 281.999 211.919 284.25 200.56C284.846 197.541 285.554 192.85 286.328 189.869C286.328 189.869 295.052 190.181 297.743 190.287C310.244 190.789 322.745 191.167 335.241 191.702C338.656 191.847 342.639 192.204 347.051 192.655L347.057 192.649ZM338.974 198.17C322.912 197.585 307.576 197.028 291.86 196.46C291.281 200.265 290.885 203.663 290.233 207.011C288.311 216.961 285.219 229.418 283.548 239.445C283.548 239.445 302.712 240.003 308.707 240.186C314.851 240.376 330.344 240.56 330.344 240.56C331.681 234.186 333.787 224.894 335.079 218.51C336.405 211.958 337.598 205.373 338.968 198.176L338.974 198.17Z" fill="#315A66"/>
<path d="M368.143 166.215C369.229 166.126 404.995 168.171 408.237 168.566C405.981 179.875 403.802 190.817 401.552 202.114C387.998 201.429 374.572 200.755 360.449 200.048C363.062 188.56 365.602 177.391 368.143 166.221V166.215ZM396.076 195.663C397.452 188.454 399.201 180.705 400.538 173.708C392.181 172.594 381.04 172.037 373.418 171.97C371.775 179.446 370.159 186.789 368.477 194.438C371.92 194.9 389.524 195.658 396.076 195.658V195.663Z" fill="#315A67"/>
</svg>
