<svg fill="currentColor" height="18" viewBox="0 0 18 18" width="18" xmlns="http://www.w3.org/2000/svg"><path clip-rule="evenodd" d="m17.2478 1.44193c-.0133-.17215-.0858-.34059-.2175-.47226-.2148-.214846-.5276-.272096-.7946-.17175l-14.98346 5.24421c-.290249.10158-.489077.37006-.501613.67732-.012535.30726.163763.59104.444773.71593l6.4864 2.88282 2.8828 6.4864c.1249.281.4087.4573.716.4448.3072-.0125.5757-.2114.6773-.5016l5.2447-14.98487c.0385-.10298.0535-.21272.0452-.321zm-3.6021 1.85171-10.11239 3.53933 4.55058 2.02248zm-4.50114 6.62246 5.56184-5.56185-3.5393 10.11245z" fill-rule="evenodd"/></svg>
