<svg width="19" height="18" fill="none" xmlns="http://www.w3.org/2000/svg"><path fill-rule="evenodd" clip-rule="evenodd" d="M9.035 17.25c4.592 0 8.281-3.675 8.281-8.25S13.627.75 9.035.75C4.442.75.753 4.425.753 9s3.689 8.25 8.282 8.25zm.15-6.825c.301-.075 2.786-.975 2.786-2.925 0-1.275-.828-2.4-2.033-2.775a2.933 2.933 0 00-3.84 1.8c-.075.375.076.825.452.825.377.15.828-.075.979-.45.301-.75 1.204-1.2 1.957-.9.603.225.98.75.98 1.425 0 .825-1.28 1.425-1.733 1.575-.376.15-.602.6-.451.975.075.3.376.525.677.525.076 0 .15 0 .226-.075zM15.811 9c0-3.75-3.012-6.75-6.776-6.75-3.765 0-6.776 3-6.776 6.75s3.011 6.75 6.776 6.75c3.764 0 6.776-3 6.776-6.75zm-6.4 3.15c.075 0 .15.075.15.075.076.075.151.15.076.225.075.075.075.225.075.3a.68.68 0 01-.226.525.685.685 0 01-.527.225.685.685 0 01-.527-.225.68.68 0 01-.226-.525c0-.088.026-.15.048-.201.015-.037.028-.068.028-.099 0-.075.075-.15.15-.225.076-.075.15-.15.226-.15C8.808 12 8.96 12 9.11 12c.043.043.062.061.084.07.016.005.034.005.066.005.038 0 .057.019.076.038.019.018.037.037.075.037z" fill="#212529"/></svg>