<svg fill="currentColor" height="16" viewBox="0 0 18 16" width="18" xmlns="http://www.w3.org/2000/svg"><path clip-rule="evenodd" d="m13.5.5h3c.45 0 .75.3.75.75v13.5c0 .45-.3.75-.75.75h-3c-.45 0-.75-.3-.75-.75v-13.5c0-.45.3-.75.75-.75zm.75 13.5h1.5v-12h-1.5zm-3.75-9.75h-3c-.45 0-.75.3-.75.75v9.75c0 .45.3.75.75.75h3c.45 0 .75-.3.75-.75v-9.75c0-.45-.3-.75-.75-.75zm-2.25 9.75h1.5v-8.25h-1.5zm-3.75-6h-3c-.45 0-.75.3-.75.75v6c0 .45.3.75.75.75h3c.45 0 .75-.3.75-.75v-6c0-.45-.3-.75-.75-.75zm-2.25 6h1.5v-4.5h-1.5z" fill-rule="evenodd"/></svg>
