<svg fill="currentColor" height="18" viewBox="0 0 18 18" width="18" xmlns="http://www.w3.org/2000/svg" xmlns:xlink="http://www.w3.org/1999/xlink"><path clip-rule="evenodd" d="m14.85 14.85c1.5-1.5 2.4-3.525 2.4-5.85 0-4.575-3.675-8.25-8.25-8.25-2.25 0-4.35.9-5.85 2.4s-2.4 3.6-2.4 5.85c0 4.575 3.675 8.25 8.25 8.25 2.25 0 4.35-.9 5.85-2.4zm.9-5.85c0 1.575-.525 3.075-1.5 4.2l-9.45-9.45c1.125-.975 2.625-1.5 4.2-1.5 3.75 0 6.75 3 6.75 6.75zm-12-4.2c-.975 1.125-1.5 2.625-1.5 4.2 0 3.75 3 6.75 6.75 6.75 1.575 0 3.075-.6 4.2-1.5z" fill-rule="evenodd"/></svg>
